<svg id="Layer_1" data-name="Layer 1" xmlns="http://www.w3.org/2000/svg" viewBox="0 0 608.85 612.95"><defs><style>.cls-1{fill:#006954;}</style></defs><title>green</title><path class="cls-1" d="M608.85,244.33a111.49,111.49,0,0,0-40.57-86,133.29,133.29,0,0,0-103-97.85A111.6,111.6,0,0,0,314.6,13.5a113.57,113.57,0,0,0-13,8A126.48,126.48,0,0,0,133,46.64a113.68,113.68,0,0,0-16.79-1.23,116.14,116.14,0,0,0-13.38,231.52,125.58,125.58,0,0,0,68.66,66.88c28.48,11.5,73.72,21.11,136.7-27.95l.77-.63c46.63-40,78.27-50.1,112.91-36.12C449,290,467,311.08,471.41,336.77c5.16,30.44-2.24,74.26-18.84,111.69A348.44,348.44,0,0,1,423,501.32c-23.53-106.48-110.14-160.43-114.37-163l-21.84,35.49a232.07,232.07,0,0,1,50.89,46.82c32.76,40.16,49.47,85.59,49.47,135V613l36.75-44.17c29.7-35.71,51.49-69.57,66.56-103.53,12.94-29.13,24.57-71,24-110.68A111.94,111.94,0,0,0,608.85,244.33Zm-242.5-202A69.76,69.76,0,0,1,413.42,60.4C362,71.07,332.94,113.63,311.18,155.54h0a70.08,70.08,0,0,1,55.23-113.3Zm-135.3-.76a85,85,0,0,1,41.28,10.7,111.44,111.44,0,0,0,13.35,137.36,73.73,73.73,0,0,1-54.61,21.84,85,85,0,0,1,0-170ZM41.63,161.66a74.66,74.66,0,0,1,69.18-74.45,125.76,125.76,0,0,0-1.06,75.27,125.25,125.25,0,0,0-17.34,69.75,74.69,74.69,0,0,1-50.78-70.65ZM282.37,283.34c-36.36,28.2-64,34.56-95.25,21.84a85,85,0,0,1-51.44-95.8,126.2,126.2,0,0,0,95.56,43.68c30.74,0,76.2-8,116.3-77.1l.49-.84c28.07-54.5,53.65-75.63,91-75.63a92.35,92.35,0,0,1,71.23,34.07,110.32,110.32,0,0,0-13.1-.79,111.61,111.61,0,0,0-111,99C346.12,234.23,311.83,258.09,282.37,283.34Zm226,30.22c-10.92-32.4-36.31-59.05-71-73-3.39-1.34-6.72-2.51-10-3.55a69.86,69.86,0,1,1,80.89,76.44Z"/></svg>