<?xml version="1.0" encoding="utf-8"?>
<!-- Generator: Adobe Illustrator 24.1.3, SVG Export Plug-In . SVG Version: 6.00 Build 0)  -->
<svg version="1.1" id="Layer_1" xmlns="http://www.w3.org/2000/svg" xmlns:xlink="http://www.w3.org/1999/xlink" x="0px" y="0px"
	 viewBox="0 0 608.8 613" style="enable-background:new 0 0 608.8 613;" xml:space="preserve">
<style type="text/css">
	.st0{fill:#FDB615;}
</style>
<path class="st0" d="M608.8,244.3c0-33.3-14.9-64.8-40.6-86c-12.6-49.7-52.7-87.8-103-97.9c-28.6-54.6-96.1-75.6-150.7-47
	c0,0,0,0,0,0c-4.5,2.4-8.8,5-13,8C247.3-14.9,174.3-4,133,46.6c-5.6-0.8-11.2-1.2-16.8-1.2C52.1,45.3,0,97.3,0,161.4
	c0,59.1,44.2,108.8,102.9,115.5c13.1,30.5,37.8,54.5,68.7,66.9c17.7,7.1,41.8,13.5,72.6,5.7c14,6.9,27.4,13.4,42.7,24.3
	c19.2,13,36.4,28.8,50.9,46.8c32.8,40.2,49.5,85.6,49.5,135V613l36.8-44.2c29.7-35.7,51.5-69.6,66.6-103.5
	c12.9-29.1,24.6-71,24-110.7C568.7,346,608.7,299.3,608.8,244.3z M508.3,313.5C508.3,313.5,508.3,313.4,508.3,313.5
	c0.1,0,0.1,0.1,0.1,0.1L508.3,313.5z"/>
</svg>
