<?xml version="1.0" standalone="no"?>
<!DOCTYPE svg PUBLIC "-//W3C//DTD SVG 20010904//EN"
 "http://www.w3.org/TR/2001/REC-SVG-20010904/DTD/svg10.dtd">
<svg version="1.0" xmlns="http://www.w3.org/2000/svg"
 width="700.000000pt" height="700.000000pt" viewBox="0 0 700.000000 700.000000"
 preserveAspectRatio="xMidYMid meet">
<metadata>
Created by potrace 1.11, written by Peter Selinger 2001-2013
</metadata>
<g transform="translate(0.000000,700.000000) scale(0.100000,-0.100000)"
fill="#000000" stroke="none">
<path d="M2500 6979 c-25 -4 -64 -10 -87 -13 -283 -44 -579 -205 -799 -435
l-61 -64 -194 -2 c-117 -1 -214 -6 -244 -14 -27 -7 -61 -15 -75 -17 -47 -9
-199 -63 -252 -90 -415 -208 -685 -583 -742 -1030 -12 -99 -13 -247 -2 -317 3
-20 9 -54 12 -74 46 -307 241 -627 499 -823 171 -129 401 -228 595 -255 24 -4
48 -9 52 -11 4 -2 18 -29 32 -60 32 -70 125 -213 185 -284 321 -382 830 -580
1287 -500 206 35 427 127 640 265 63 41 120 80 127 85 309 258 526 402 718
476 129 50 185 59 339 58 92 -1 132 -7 200 -27 365 -109 606 -358 671 -692 23
-120 17 -424 -11 -573 -4 -26 -11 -67 -15 -92 -19 -128 -93 -376 -162 -542
-97 -234 -347 -677 -364 -647 -4 8 -15 43 -24 79 -145 575 -507 1136 -1000
1551 -104 87 -257 199 -272 199 -10 0 -28 -27 -78 -112 -12 -21 -142 -233
-162 -265 -13 -20 -11 -23 34 -54 211 -144 446 -376 624 -619 200 -273 350
-599 414 -900 9 -41 18 -84 21 -95 2 -11 6 -40 9 -65 3 -25 8 -56 10 -70 12
-72 17 -241 18 -567 0 -200 1 -363 3 -363 3 0 360 427 464 555 380 467 662
946 807 1370 50 146 106 361 128 485 25 145 37 244 41 365 5 139 9 173 20 162
7 -7 161 34 244 66 281 106 542 342 679 615 36 72 97 248 107 307 3 22 8 43 9
46 2 3 7 39 11 80 38 393 -85 744 -356 1022 -93 95 -97 101 -124 185 -62 195
-192 414 -336 570 -203 218 -494 385 -782 446 -18 4 -35 21 -54 53 -87 151
-242 320 -374 408 -107 71 -230 131 -340 165 -99 31 -114 34 -220 50 -67 10
-314 7 -385 -5 -133 -23 -330 -100 -452 -177 l-65 -41 -36 22 c-175 104 -375
177 -562 206 -63 10 -316 13 -370 4z m300 -473 c45 -6 78 -14 155 -36 57 -16
176 -72 173 -80 -2 -4 -24 -50 -50 -101 -66 -132 -76 -158 -103 -262 -47 -188
-53 -410 -15 -577 6 -25 10 -47 10 -50 -3 -13 67 -194 102 -264 40 -82 122
-205 177 -265 17 -19 31 -37 31 -41 0 -8 -56 -60 -102 -93 -62 -46 -191 -105
-279 -129 -118 -31 -336 -31 -456 0 -250 65 -460 214 -590 417 -48 76 -98 190
-124 285 -21 73 -24 108 -24 240 1 173 18 260 80 396 139 304 430 522 750 560
28 4 51 7 53 9 4 3 165 -3 212 -9z m1567 -15 c113 -23 249 -88 352 -170 l24
-19 -34 -7 c-102 -22 -259 -85 -353 -142 -150 -90 -329 -249 -432 -385 -27
-35 -51 -65 -54 -68 -18 -14 -168 -252 -226 -359 l-66 -121 -18 23 c-52 65
-117 212 -136 304 -10 46 -10 287 0 328 54 235 211 441 413 543 65 33 176 70
234 77 29 4 55 8 57 9 6 7 193 -3 239 -13z m-3078 -517 c-17 -46 -47 -196 -55
-274 -15 -146 -7 -315 22 -445 8 -38 17 -81 20 -95 4 -18 -4 -44 -25 -81 -44
-81 -95 -212 -119 -309 -33 -131 -43 -206 -45 -339 -1 -48 -5 -81 -12 -81 -18
0 -135 59 -192 97 -160 106 -297 301 -348 493 -26 102 -31 268 -10 370 72 357
351 622 715 679 30 5 56 9 57 10 1 0 -2 -11 -8 -25z m3886 -129 c243 -33 493
-168 649 -352 l18 -22 -113 2 c-146 3 -231 -6 -350 -37 -164 -41 -329 -122
-463 -225 -69 -53 -186 -174 -235 -241 -22 -30 -45 -61 -52 -68 -6 -7 -35 -60
-64 -117 -58 -114 -100 -238 -120 -352 -7 -41 -15 -77 -18 -80 -3 -2 -25 -6
-49 -8 -172 -14 -411 -94 -598 -200 -139 -78 -265 -166 -438 -304 -229 -184
-356 -266 -511 -329 -225 -92 -458 -86 -691 16 -204 90 -376 254 -477 457 -28
55 -60 137 -68 175 -2 8 -9 38 -15 65 -15 62 -20 275 -8 333 l10 44 71 -70
c40 -39 88 -83 107 -99 19 -15 37 -30 40 -33 15 -16 159 -105 227 -139 123
-62 300 -117 443 -139 63 -9 355 -9 415 1 414 66 727 288 1023 727 47 70 65
101 125 211 197 363 375 574 587 694 149 84 353 118 555 90z m675 -861 c247
-57 448 -213 551 -425 151 -310 93 -667 -148 -915 -48 -49 -119 -101 -193
-142 -52 -29 -227 -89 -234 -81 -2 2 -23 49 -47 104 -143 330 -456 617 -807
740 -62 22 -67 26 -66 52 8 140 109 342 229 457 47 45 146 116 195 141 54 27
160 62 221 74 66 12 237 10 299 -5z"/>
</g>
</svg>
