<svg id="Layer_1" data-name="Layer 1" xmlns="http://www.w3.org/2000/svg" viewBox="0 0 275.82 100"><defs><style>.cls-1{fill:#002b49;}.cls-2{fill:#ff6f00;}</style></defs><path class="cls-1" d="M225.57,74.93v0a4.6,4.6,0,0,1,9.2,0v0a4.62,4.62,0,0,1-4.62,4.6A4.56,4.56,0,0,1,225.57,74.93Zm8.66,0v0a4.07,4.07,0,1,0-8.13,0v0a4.07,4.07,0,1,0,8.13,0Zm-6-2.58h2.18a2,2,0,0,1,1.51.54,1.47,1.47,0,0,1,.4,1.06v0a1.51,1.51,0,0,1-1.05,1.51l1.19,1.75h-1.25l-1.05-1.57h-.85v1.57h-1.08Zm2.16,2.39c.55,0,.84-.29.84-.7v0c0-.47-.33-.72-.86-.72h-1.06v1.44Z"/><path class="cls-1" d="M7.15,85.67H9.42l6.16,14.09H13l-1.42-3.38H5L3.51,99.76H1Zm3.51,8.53L8.24,88.61,5.85,94.2Z"/><path class="cls-1" d="M18,85.77h5.21c4.4,0,7.44,3,7.44,7v0c0,3.93-3,7-7.44,7H18ZM20.44,88v9.51h2.75a4.56,4.56,0,0,0,4.86-4.71v0A4.59,4.59,0,0,0,23.19,88Z"/><path class="cls-1" d="M31.51,85.77h2.72l4.21,10.75,4.2-10.75H45.3L39.5,99.86H37.31Z"/><path class="cls-1" d="M50.66,85.67h2.28l6.15,14.09h-2.6l-1.42-3.38H48.46L47,99.76H44.5Zm3.52,8.53-2.42-5.59-2.4,5.59Z"/><path class="cls-1" d="M61.49,85.77h2.28l7.49,9.67V85.77h2.42v14H71.62l-7.71-10v10H61.49Z"/><path class="cls-1" d="M76.66,92.81v0a7.08,7.08,0,0,1,7.2-7.24,7.31,7.31,0,0,1,5.49,2.18l-1.58,1.82a5.57,5.57,0,0,0-3.93-1.72,4.69,4.69,0,0,0-4.6,4.92v0a4.71,4.71,0,0,0,4.62,5,5.45,5.45,0,0,0,4-1.8l1.58,1.6A7.22,7.22,0,0,1,83.78,100,7,7,0,0,1,76.66,92.81Z"/><path class="cls-1" d="M92.05,85.77h10.37V88H94.51v3.64h7v2.21h-7v3.74h8v2.2H92.05Z"/><path class="cls-1" d="M105.44,85.77h5.22c4.4,0,7.43,3,7.43,7v0c0,3.93-3,7-7.43,7h-5.22ZM107.9,88v9.51h2.76a4.56,4.56,0,0,0,4.86-4.71v0A4.59,4.59,0,0,0,110.66,88Z"/><path class="cls-1" d="M127.07,85.77h5.52c3.27,0,5.31,1.86,5.31,4.68v0c0,3.14-2.52,4.77-5.59,4.77h-2.78v4.5h-2.46Zm5.32,7.28c1.86,0,3-1,3-2.5v0c0-1.64-1.17-2.5-3-2.5h-2.86v5Z"/><path class="cls-1" d="M140.42,85.77h6.24a5.6,5.6,0,0,1,4,1.4,4.23,4.23,0,0,1,1.16,3v0a4.19,4.19,0,0,1-3.31,4.23l3.77,5.3H149.4L146,94.88h-3.08v4.88h-2.46Zm6.06,6.94c1.76,0,2.88-.92,2.88-2.34v0c0-1.5-1.08-2.32-2.9-2.32h-3.58v4.7Z"/><path class="cls-1" d="M154.25,92.81v0a7.32,7.32,0,0,1,14.63,0v0a7.32,7.32,0,0,1-14.63,0Zm12.05,0v0a4.77,4.77,0,0,0-4.75-5,4.71,4.71,0,0,0-4.72,4.92v0a4.78,4.78,0,0,0,4.76,5A4.7,4.7,0,0,0,166.3,92.81Z"/><path class="cls-1" d="M171.24,92.81v0a7.13,7.13,0,0,1,7.22-7.24,7.53,7.53,0,0,1,5.37,1.9l-1.56,1.86a5.52,5.52,0,0,0-3.91-1.48,4.72,4.72,0,0,0-4.54,4.92v0a4.67,4.67,0,0,0,4.76,5A5.72,5.72,0,0,0,182,96.7V94.1h-3.58V92h6v5.87A8.9,8.9,0,0,1,178.5,100,6.94,6.94,0,0,1,171.24,92.81Z"/><path class="cls-1" d="M187.53,85.77h6.24a5.64,5.64,0,0,1,4,1.4,4.27,4.27,0,0,1,1.15,3v0a4.18,4.18,0,0,1-3.31,4.23l3.77,5.3h-2.91l-3.44-4.88H190v4.88h-2.46Zm6.06,6.94c1.76,0,2.88-.92,2.88-2.34v0c0-1.5-1.08-2.32-2.9-2.32H190v4.7Z"/><path class="cls-1" d="M206.94,85.67h2.28l6.15,14.09h-2.59l-1.42-3.38h-6.62l-1.44,3.38h-2.52Zm3.52,8.53L208,88.61l-2.4,5.59Z"/><path class="cls-1" d="M217.77,85.77h2.62l4.26,6.62,4.26-6.62h2.61v14h-2.46v-10l-4.41,6.59h-.08l-4.38-6.55v10h-2.42Z"/><path class="cls-1" d="M234.18,97.72,235.66,96a6.48,6.48,0,0,0,4.42,1.82c1.52,0,2.48-.72,2.48-1.76v0c0-1-.56-1.54-3.16-2.14-3-.71-4.66-1.59-4.66-4.17v0c0-2.4,2-4.06,4.78-4.06a7.76,7.76,0,0,1,5.08,1.76l-1.32,1.86a6.36,6.36,0,0,0-3.8-1.44c-1.44,0-2.28.74-2.28,1.66v0c0,1.08.64,1.56,3.34,2.2,3,.72,4.48,1.78,4.48,4.09v0c0,2.62-2.06,4.18-5,4.18A8.62,8.62,0,0,1,234.18,97.72Z"/><path class="cls-1" d="M0,27.3v-.09A16.16,16.16,0,0,1,16.58,10.76c6,0,9.59,2,12.54,4.91L24.67,20.8c-2.45-2.22-5-3.59-8.13-3.59-5.36,0-9.23,4.46-9.23,9.91v.09c0,5.45,3.77,10,9.23,10,3.63,0,5.86-1.45,8.36-3.72L29.35,38a16.28,16.28,0,0,1-13,5.67A16,16,0,0,1,0,27.3Z"/><path class="cls-1" d="M34.94,11.31h7V23.89h12.9V11.31h7v31.8h-7V30.34H41.94V43.11h-7Z"/><path class="cls-1" d="M69.47,11.31h24v6.22h-17V24h15v6.23h-15v6.68H93.69v6.22H69.47Z"/><path class="cls-1" d="M99.92,11.31h24v6.22h-17V24h15v6.23h-15v6.68h17.26v6.22H99.92Z"/><path class="cls-1" d="M130.36,11.31h7v13.9l12.81-13.9h8.59l-13,13.49L159.3,43.11h-8.4L141,29.57l-3.68,3.82v9.72h-7Z"/><path class="cls-1" d="M173.31,30.57,161.09,11.31h8.17l7.59,12.76,7.72-12.76h8L180.3,30.43V43.11h-7Z"/><path class="cls-1" d="M.41,74.72,4.3,70.05c2.7,2.22,5.53,3.64,9,3.64,2.69,0,4.32-1.07,4.32-2.83v-.08c0-1.67-1-2.53-6-3.82-6-1.54-9.93-3.21-9.93-9.16v-.09c0-5.44,4.36-9,10.49-9a17.34,17.34,0,0,1,11.13,3.81l-3.42,5c-2.66-1.85-5.27-3-7.8-3s-3.85,1.16-3.85,2.61v.09c0,2,1.28,2.61,6.47,3.94,6.08,1.58,9.5,3.77,9.5,9v.09c0,6-4.54,9.29-11,9.29A19.07,19.07,0,0,1,.41,74.72Z"/><path class="cls-1" d="M28.54,64.18v-.09a15.24,15.24,0,0,1,15.64-15.5c5.65,0,9,1.89,11.82,4.63l-4.2,4.84c-2.31-2.1-4.67-3.39-7.67-3.39-5.05,0-8.69,4.2-8.69,9.34v.08c0,5.14,3.55,9.43,8.69,9.43,3.43,0,5.53-1.37,7.88-3.51l4.2,4.23A15.32,15.32,0,0,1,43.92,79.6,15.14,15.14,0,0,1,28.54,64.18Z"/><path class="cls-1" d="M61.77,49.1h6.6v30h-6.6Z"/><path class="cls-1" d="M75.86,49.1H98.48V55H82.42v6.08H96.55v5.87H82.42v6.3H98.69v5.86H75.86Z"/><path class="cls-1" d="M104.56,49.1h6.08l14,18.46V49.1h6.51v30h-5.62L111.07,60v19h-6.51Z"/><path class="cls-1" d="M145.37,55.19h-9.12V49.1h24.84v6.09H152V79.08h-6.59Z"/><path class="cls-1" d="M166.44,49.1H173v30h-6.59Z"/><path class="cls-1" d="M178.47,74.72l3.9-4.67c2.7,2.22,5.52,3.64,8.95,3.64,2.7,0,4.32-1.07,4.32-2.83v-.08c0-1.67-1-2.53-6-3.82-6-1.54-9.94-3.21-9.94-9.16v-.09c0-5.44,4.37-9,10.49-9a17.37,17.37,0,0,1,11.14,3.81l-3.43,5c-2.65-1.85-5.27-3-7.79-3s-3.86,1.16-3.86,2.61v.09c0,2,1.29,2.61,6.47,3.94,6.08,1.58,9.51,3.77,9.51,9v.09c0,6-4.54,9.29-11,9.29A19.09,19.09,0,0,1,178.47,74.72Z"/><path class="cls-1" d="M214.27,55.19h-9.12V49.1H230v6.09h-9.12V79.08h-6.6Z"/><path class="cls-2" d="M275.82,31.52a14.41,14.41,0,0,0-5.23-11.1A17.18,17.18,0,0,0,257.3,7.8a14.41,14.41,0,0,0-21.11-5A16.31,16.31,0,0,0,214.44,6a14.31,14.31,0,0,0-2.17-.16,15,15,0,0,0-1.72,29.87,16.15,16.15,0,0,0,8.85,8.62c3.68,1.49,9.5,2.73,17.64-3.6l.1-.08c6-5.16,10.1-6.47,14.56-4.66a9.87,9.87,0,0,1,6.39,7.44c.67,3.92-.28,9.58-2.43,14.4a44.39,44.39,0,0,1-3.82,6.82c-3-13.72-14.21-20.69-14.75-21l-2.8,4.58a30,30,0,0,1,6.56,6,26.92,26.92,0,0,1,6.38,17.41v7.41l4.75-5.7A57.16,57.16,0,0,0,260.56,60a35.77,35.77,0,0,0,3.1-14.28A14.43,14.43,0,0,0,275.82,31.52ZM244.54,5.46a9,9,0,0,1,6.07,2.33c-6.63,1.38-10.38,6.87-13.19,12.28h0a9,9,0,0,1,7.13-14.62Zm-17.45-.1a10.93,10.93,0,0,1,5.32,1.38,14.38,14.38,0,0,0,1.72,17.72,9.5,9.5,0,0,1-7,2.83,11,11,0,1,1,0-21.93ZM202.65,20.84a9.63,9.63,0,0,1,8.92-9.59,16.36,16.36,0,0,0-.81,5.07,16.17,16.17,0,0,0,.68,4.64,15.38,15.38,0,0,0-1.07,2.15A16.24,16.24,0,0,0,209.2,30,9.65,9.65,0,0,1,202.65,20.84Zm31,15.71c-4.69,3.64-8.26,4.46-12.29,2.83A11,11,0,0,1,214.77,27a16.29,16.29,0,0,0,12.32,5.63c4,0,9.83-1,15-9.95l.06-.11c3.65-7,6.95-9.77,11.77-9.77a11.89,11.89,0,0,1,9.18,4.4,13.33,13.33,0,0,0-1.69-.11A14.44,14.44,0,0,0,247.09,29.9C241.93,30.22,237.51,33.29,233.7,36.55Zm29.15,3.9A15.59,15.59,0,0,0,253.71,31q-.66-.26-1.29-.45a9,9,0,1,1,10.43,9.87Z"/></svg>