<svg id="Layer_1" data-name="Layer 1" xmlns="http://www.w3.org/2000/svg" viewBox="0 0 346.51 100"><defs><style>.cls-1{fill:#fff;}.cls-2{fill:#8c8c8a;}</style></defs><path class="cls-1" d="M0,34.3v-.12C0,22.82,8.56,13.52,20.83,13.52c7.54,0,12.05,2.51,15.76,6.16L31,26.13c-3.08-2.79-6.22-4.51-10.21-4.51-6.74,0-11.59,5.6-11.59,12.45v.11c0,6.85,4.74,12.56,11.59,12.56,4.56,0,7.36-1.83,10.5-4.68l5.59,5.65c-4.11,4.39-8.68,7.13-16.38,7.13A20.16,20.16,0,0,1,0,34.3Z"/><path class="cls-1" d="M43.9,14.2h8.79V30H68.9V14.2h8.79v40H68.9v-16H52.69v16H43.9Z"/><path class="cls-1" d="M87.28,14.2h30.14V22H96v8.11h18.84V38H96v8.39H117.7v7.82H87.28Z"/><path class="cls-1" d="M125.53,14.2h30.13V22h-21.4v8.11h18.83V38H134.26v8.39H156v7.82H125.53Z"/><path class="cls-1" d="M163.77,14.2h8.79V31.67l16.1-17.47h10.79l-16.33,17,17,23H189.57l-12.39-17-4.62,4.79V54.16h-8.79Z"/><path class="cls-1" d="M217.73,38.41,202.37,14.2h10.28l9.53,16,9.7-16h10l-15.35,24V54.16h-8.79Z"/><path class="cls-1" d="M.51,93.87,5.41,88c3.39,2.8,6.94,4.57,11.24,4.57,3.39,0,5.44-1.34,5.44-3.55v-.1c0-2.1-1.29-3.18-7.59-4.79C6.91,82.19,2,80.09,2,72.61v-.1C2,65.67,7.51,61.15,15.2,61.15a21.78,21.78,0,0,1,14,4.79l-4.31,6.24c-3.33-2.31-6.61-3.71-9.79-3.71s-4.84,1.45-4.84,3.28v.11c0,2.47,1.61,3.28,8.12,5,7.65,2,12,4.73,12,11.3v.11c0,7.48-5.7,11.67-13.83,11.67A24,24,0,0,1,.51,93.87Z"/><path class="cls-1" d="M35.86,80.63v-.11A19.15,19.15,0,0,1,55.5,61c7.1,0,11.35,2.37,14.85,5.82l-5.28,6.08c-2.9-2.64-5.86-4.25-9.63-4.25-6.35,0-10.92,5.27-10.92,11.72v.11C44.52,87,49,92.36,55.44,92.36c4.31,0,6.94-1.72,9.9-4.41l5.28,5.32C66.74,97.42,62.44,100,55.17,100A19,19,0,0,1,35.86,80.63Z"/><path class="cls-1" d="M77.61,61.69h8.28V99.35H77.61Z"/><path class="cls-1" d="M95.31,61.69h28.41v7.37H103.54V76.7H121.3v7.37H103.54V92H124v7.37H95.31Z"/><path class="cls-1" d="M131.35,61.69H139l17.65,23.19V61.69h8.18V99.35h-7L139.53,75.41V99.35h-8.18Z"/><path class="cls-1" d="M182.63,69.33H171.17V61.69h31.2v7.64H190.91v30h-8.28Z"/><path class="cls-1" d="M209.1,61.69h8.28V99.35H209.1Z"/><path class="cls-1" d="M224.21,93.87l4.9-5.87c3.39,2.8,6.94,4.57,11.24,4.57,3.39,0,5.44-1.34,5.44-3.55v-.1c0-2.1-1.29-3.18-7.59-4.79-7.58-1.94-12.48-4-12.48-11.52v-.1c0-6.84,5.49-11.36,13.18-11.36a21.78,21.78,0,0,1,14,4.79l-4.3,6.24c-3.34-2.31-6.62-3.71-9.8-3.71S234,69.92,234,71.75v.11c0,2.47,1.62,3.28,8.13,5,7.64,2,11.94,4.73,11.94,11.3v.11c0,7.48-5.7,11.67-13.83,11.67A24,24,0,0,1,224.21,93.87Z"/><path class="cls-1" d="M269.19,69.33H257.73V61.69h31.21v7.64H277.48v30h-8.29Z"/><path class="cls-2" d="M346.51,39.6a18.09,18.09,0,0,0-6.57-14A21.58,21.58,0,0,0,323.24,9.8a18.07,18.07,0,0,0-26.51-6.31A20.49,20.49,0,0,0,269.4,7.56a19,19,0,0,0-2.72-.2,18.82,18.82,0,0,0-2.17,37.52,20.35,20.35,0,0,0,11.13,10.84c4.61,1.87,11.93,3.42,22.15-4.53l.13-.1c7.55-6.48,12.68-8.12,18.3-5.85,4.39,1.77,7.31,5.17,8,9.34.84,4.93-.36,12-3.05,18.1a56.8,56.8,0,0,1-4.8,8.57c-3.81-17.24-17.85-26-18.54-26.42l-3.51,5.75a37.4,37.4,0,0,1,8.25,7.58,33.92,33.92,0,0,1,8,21.88v9.31l6-7.16a72,72,0,0,0,10.78-16.77,44.94,44.94,0,0,0,3.9-17.94A18.13,18.13,0,0,0,346.51,39.6ZM307.22,6.86a11.32,11.32,0,0,1,7.63,2.93c-8.33,1.73-13.05,8.63-16.58,15.42h0a11.35,11.35,0,0,1,9-18.36Zm-21.93-.12A13.75,13.75,0,0,1,292,8.47a18,18,0,0,0,2.16,22.26,12,12,0,0,1-8.85,3.55,13.77,13.77,0,0,1,0-27.54Zm-30.7,19.45A12.1,12.1,0,0,1,265.8,14.13a20.41,20.41,0,0,0-.17,12.2,21.19,21.19,0,0,0-1.34,2.7,20.51,20.51,0,0,0-1.47,8.61A12.11,12.11,0,0,1,254.59,26.19Zm39,19.73c-5.89,4.57-10.37,5.6-15.43,3.56A13.78,13.78,0,0,1,269.82,34,20.48,20.48,0,0,0,285.29,41c5,0,12.35-1.3,18.85-12.5l.07-.14c4.59-8.83,8.73-12.27,14.79-12.27a15,15,0,0,1,11.54,5.52,18.74,18.74,0,0,0-2.13-.13,18.06,18.06,0,0,0-18,16.07C303.94,38,298.38,41.83,293.59,45.92Zm36.63,4.9A19.57,19.57,0,0,0,318.74,39c-.55-.22-1.09-.41-1.63-.58a11.45,11.45,0,0,1,1.1-3.83,11.37,11.37,0,1,1,12,16.24Z"/><path class="cls-1" d="M283.54,94.77v0a5.15,5.15,0,0,1,10.3,0v0a5.15,5.15,0,0,1-10.3,0Zm9.7,0v0a4.55,4.55,0,1,0-9.1,0v0a4.48,4.48,0,0,0,4.53,4.55A4.53,4.53,0,0,0,293.24,94.74Zm-6.67-2.88H289a2.31,2.31,0,0,1,1.69.59,1.66,1.66,0,0,1,.46,1.2v0A1.71,1.71,0,0,1,290,95.37l1.33,2h-1.4l-1.17-1.76h-1v1.76h-1.21ZM289,94.53c.61,0,.93-.33.93-.78v0c0-.53-.37-.8-1-.8h-1.18v1.61Z"/></svg>