<svg id="Layer_1" data-name="Layer 1" xmlns="http://www.w3.org/2000/svg" viewBox="0 0 275.63 100"><defs><style>.cls-1{fill:#002b49;}.cls-2{fill:#ff6f00;}</style></defs><path class="cls-1" d="M226,75.06v0a4.61,4.61,0,0,1,4.61-4.6A4.56,4.56,0,0,1,235.19,75v0a4.6,4.6,0,0,1-9.19,0Zm8.66,0v0a4.07,4.07,0,1,0-8.13,0v0a4.07,4.07,0,1,0,8.13,0Zm-6-2.58h2.18a2,2,0,0,1,1.51.54,1.47,1.47,0,0,1,.4,1.06v0a1.52,1.52,0,0,1-1,1.51l1.19,1.75h-1.25l-1.05-1.57h-.85v1.57H228.7Zm2.16,2.39c.55,0,.84-.29.84-.7v0c0-.47-.33-.72-.86-.72h-1.06v1.44Z"/><path class="cls-1" d="M0,27.28v-.09A16.15,16.15,0,0,1,16.57,10.75c6,0,9.58,2,12.53,4.91l-4.45,5.13c-2.45-2.23-4.95-3.59-8.12-3.59-5.36,0-9.22,4.45-9.22,9.9v.09c0,5.45,3.77,10,9.22,10,3.63,0,5.85-1.46,8.35-3.73L29.33,38a16.26,16.26,0,0,1-13,5.67A16,16,0,0,1,0,27.28Z"/><path class="cls-1" d="M34.92,11.3h7V23.87H54.8V11.3h7V43.08h-7V30.32H41.91V43.08h-7Z"/><path class="cls-1" d="M69.42,11.3h24v6.22h-17V24h15v6.22h-15v6.67H93.62v6.22H69.42Z"/><path class="cls-1" d="M99.85,11.3h24v6.22h-17V24h15v6.22h-15v6.67H124v6.22H99.85Z"/><path class="cls-1" d="M130.27,11.3h7V25.19l12.8-13.89h8.58l-13,13.48,13.53,18.3h-8.4l-9.85-13.53-3.68,3.81v9.72h-7Z"/><path class="cls-1" d="M173.19,30.55,161,11.3h8.18l7.58,12.76,7.72-12.76h7.94L180.18,30.41V43.08h-7Z"/><path class="cls-1" d="M.41,74.66,4.3,70c2.7,2.22,5.52,3.64,9,3.64,2.69,0,4.32-1.07,4.32-2.83v-.08c0-1.67-1-2.53-6-3.81-6-1.54-9.93-3.21-9.93-9.16v-.09c0-5.43,4.37-9,10.49-9a17.34,17.34,0,0,1,11.13,3.81l-3.43,5c-2.65-1.84-5.26-3-7.78-3s-3.86,1.16-3.86,2.61v.09c0,2,1.29,2.61,6.47,3.94,6.07,1.58,9.5,3.76,9.5,9v.09c0,6-4.54,9.29-11,9.29A19.05,19.05,0,0,1,.41,74.66Z"/><path class="cls-1" d="M28.52,64.14v-.09A15.22,15.22,0,0,1,44.14,48.56c5.65,0,9,1.88,11.82,4.62L51.76,58c-2.31-2.1-4.66-3.39-7.66-3.39-5.05,0-8.69,4.2-8.69,9.33v.09c0,5.14,3.56,9.42,8.69,9.42,3.43,0,5.52-1.37,7.88-3.51l4.19,4.23a15.29,15.29,0,0,1-12.28,5.35A15.12,15.12,0,0,1,28.52,64.14Z"/><path class="cls-1" d="M61.73,49.07h6.59V79H61.73Z"/><path class="cls-1" d="M75.81,49.07h22.6v5.86h-16V61H96.48v5.86H82.36v6.3H98.62V79H75.81Z"/><path class="cls-1" d="M104.48,49.07h6.08l14,18.45V49.07h6.5V79h-5.6L111,60V79h-6.51Z"/><path class="cls-1" d="M145.27,55.15h-9.12V49.07H161v6.08h-9.11V79h-6.59Z"/><path class="cls-1" d="M166.32,49.07h6.59V79h-6.59Z"/><path class="cls-1" d="M178.35,74.66,182.24,70c2.7,2.22,5.52,3.64,8.95,3.64,2.69,0,4.32-1.07,4.32-2.83v-.08c0-1.67-1-2.53-6-3.81-6-1.54-9.93-3.21-9.93-9.16v-.09c0-5.43,4.37-9,10.49-9a17.34,17.34,0,0,1,11.13,3.81l-3.43,5c-2.65-1.84-5.26-3-7.79-3s-3.85,1.16-3.85,2.61v.09c0,2,1.29,2.61,6.46,3.94,6.08,1.58,9.51,3.76,9.51,9v.09c0,6-4.54,9.29-11,9.29A19.05,19.05,0,0,1,178.35,74.66Z"/><path class="cls-1" d="M214.12,55.15H205V49.07h24.82v6.08h-9.12V79h-6.59Z"/><path class="cls-2" d="M275.63,31.5a14.37,14.37,0,0,0-5.23-11.09A17.19,17.19,0,0,0,257.12,7.79a14.41,14.41,0,0,0-21.1-5A16.3,16.3,0,0,0,214.29,6a15.58,15.58,0,0,0-2.16-.16A15,15,0,0,0,210.4,35.7a16.15,16.15,0,0,0,8.85,8.62c3.67,1.48,9.49,2.72,17.62-3.6l.1-.08c6-5.15,10.09-6.46,14.56-4.66a9.87,9.87,0,0,1,6.38,7.44c.67,3.92-.28,9.57-2.43,14.39a43.57,43.57,0,0,1-3.82,6.82c-3-13.72-14.19-20.68-14.74-21l-2.8,4.57a29.64,29.64,0,0,1,6.57,6,26.94,26.94,0,0,1,6.37,17.4V79l4.74-5.7A57.11,57.11,0,0,0,260.38,60a35.89,35.89,0,0,0,3.1-14.27A14.42,14.42,0,0,0,275.63,31.5Zm-31.26-26a9,9,0,0,1,6.07,2.33c-6.63,1.37-10.38,6.86-13.18,12.26h0a9,9,0,0,1,7.12-14.6Zm-17.44-.1a10.93,10.93,0,0,1,5.32,1.38A14.35,14.35,0,0,0,234,24.44a9.5,9.5,0,0,1-7,2.83,11,11,0,1,1,0-21.91ZM202.51,20.83a9.63,9.63,0,0,1,8.92-9.59,16.3,16.3,0,0,0-.14,9.7,17.15,17.15,0,0,0-1.06,2.15,16.41,16.41,0,0,0-1.18,6.85A9.63,9.63,0,0,1,202.51,20.83Zm31,15.7c-4.68,3.63-8.24,4.45-12.27,2.82A10.94,10.94,0,0,1,214.62,27a16.3,16.3,0,0,0,12.31,5.63c4,0,9.82-1,15-9.94l.06-.11c3.65-7,6.94-9.77,11.76-9.77a11.91,11.91,0,0,1,9.18,4.39,15.65,15.65,0,0,0-1.69-.1,14.4,14.4,0,0,0-14.31,12.78C241.76,30.2,237.34,33.27,233.53,36.53Zm29.14,3.89A15.57,15.57,0,0,0,253.53,31c-.43-.17-.86-.32-1.29-.46a8.78,8.78,0,0,1,.88-3,9,9,0,1,1,9.55,12.91Z"/><path class="cls-1" d="M7.32,85.27H9.66L16,99.75H13.32l-1.46-3.47H5.06L3.58,99.75H1ZM10.93,94,8.45,88.29,6,94Z"/><path class="cls-1" d="M17.26,97.66l1.52-1.81a6.69,6.69,0,0,0,4.54,1.87c1.57,0,2.55-.74,2.55-1.81v0c0-1-.57-1.58-3.25-2.2-3.06-.74-4.78-1.64-4.78-4.29v0c0-2.47,2.05-4.18,4.91-4.18A8,8,0,0,1,28,87l-1.36,1.91a6.56,6.56,0,0,0-3.9-1.48c-1.48,0-2.35.76-2.35,1.71v0c0,1.11.66,1.6,3.44,2.26,3,.74,4.6,1.83,4.6,4.21v0c0,2.7-2.12,4.3-5.14,4.3A8.87,8.87,0,0,1,17.26,97.66Z"/><path class="cls-1" d="M30.21,97.66l1.52-1.81a6.65,6.65,0,0,0,4.54,1.87c1.56,0,2.55-.74,2.55-1.81v0c0-1-.58-1.58-3.25-2.2-3.06-.74-4.79-1.64-4.79-4.29v0c0-2.47,2.06-4.18,4.91-4.18A8,8,0,0,1,40.91,87l-1.35,1.91a6.59,6.59,0,0,0-3.91-1.48c-1.48,0-2.34.76-2.34,1.71v0c0,1.11.66,1.6,3.43,2.26,3,.74,4.6,1.83,4.6,4.21v0c0,2.7-2.11,4.3-5.13,4.3A8.85,8.85,0,0,1,30.21,97.66Z"/><path class="cls-1" d="M43.69,92.6v0a7.52,7.52,0,0,1,15,0v0A7.38,7.38,0,0,1,51.18,100,7.3,7.3,0,0,1,43.69,92.6Zm12.39,0v0a4.91,4.91,0,0,0-4.9-5.09,4.84,4.84,0,0,0-4.84,5v0a4.91,4.91,0,0,0,4.89,5.1A4.85,4.85,0,0,0,56.08,92.6Z"/><path class="cls-1" d="M61.15,92.6v0a7.27,7.27,0,0,1,7.4-7.44,7.54,7.54,0,0,1,5.65,2.24l-1.63,1.87a5.72,5.72,0,0,0-4-1.76,4.82,4.82,0,0,0-4.73,5v0a4.85,4.85,0,0,0,4.75,5.1,5.65,5.65,0,0,0,4.13-1.85l1.62,1.64A7.43,7.43,0,0,1,68.46,100,7.22,7.22,0,0,1,61.15,92.6Z"/><path class="cls-1" d="M77.11,85.37h2.53V99.75H77.11Z"/><path class="cls-1" d="M88.58,85.27h2.34l6.33,14.48H94.58l-1.46-3.47h-6.8l-1.48,3.47H82.25ZM92.2,94l-2.49-5.75L87.24,94Z"/><path class="cls-1" d="M101.4,87.71H96.82V85.37h11.69v2.34h-4.58v12H101.4Z"/><path class="cls-1" d="M111.28,85.37h2.53V99.75h-2.53Z"/><path class="cls-1" d="M117,92.6v0a7.52,7.52,0,0,1,15,0v0a7.52,7.52,0,0,1-15,0Zm12.39,0v0a4.91,4.91,0,0,0-4.89-5.09,4.85,4.85,0,0,0-4.85,5v0a4.91,4.91,0,0,0,4.89,5.1A4.84,4.84,0,0,0,129.4,92.6Z"/><path class="cls-1" d="M135.12,85.37h2.34l7.7,9.94V85.37h2.49V99.75h-2.12L137.6,89.52V99.75h-2.48Z"/></svg>