<svg id="Layer_1" data-name="Layer 1" xmlns="http://www.w3.org/2000/svg" viewBox="0 0 590.58 100"><defs><style>.cls-1{fill:#fff;}.cls-2{fill:#ff6f00;}</style></defs><path class="cls-1" d="M213.17,70.47v0a4.36,4.36,0,0,1,4.37-4.35,4.32,4.32,0,0,1,4.34,4.32v0a4.36,4.36,0,0,1-8.71,0Zm8.2,0v0a3.85,3.85,0,1,0-7.69,0v0a3.85,3.85,0,1,0,7.69,0ZM215.73,68h2.06a2,2,0,0,1,1.43.5,1.4,1.4,0,0,1,.39,1v0a1.44,1.44,0,0,1-1,1.43l1.13,1.65h-1.19l-1-1.49h-.8v1.49h-1Zm2.05,2.26c.51,0,.79-.28.79-.66v0c0-.44-.31-.67-.82-.67h-1v1.36Z"/><path class="cls-1" d="M6.76,81H8.91l5.82,13.32H12.28l-1.35-3.19H4.68L3.32,94.35H.94Zm3.32,8.07L7.8,83.81,5.53,89.1Z"/><path class="cls-1" d="M17,81.12h4.94c4.16,0,7,2.86,7,6.58v0c0,3.72-2.87,6.61-7,6.61H17Zm2.33,2.12v9h2.61a4.31,4.31,0,0,0,4.59-4.46v0a4.34,4.34,0,0,0-4.59-4.5Z"/><path class="cls-1" d="M29.8,81.12h2.57l4,10.17,4-10.17h2.51L37.36,94.45H35.28Z"/><path class="cls-1" d="M47.91,81h2.16l5.82,13.32H53.43l-1.34-3.19H45.83l-1.36,3.19H42.09Zm3.33,8.07L49,83.81,46.68,89.1Z"/><path class="cls-1" d="M58.16,81.12h2.15l7.09,9.15V81.12h2.29V94.35h-2l-7.29-9.41v9.41H58.16Z"/><path class="cls-1" d="M72.51,87.78v0a6.69,6.69,0,0,1,6.8-6.84A6.92,6.92,0,0,1,84.51,83L83,84.68a5.28,5.28,0,0,0-3.73-1.63A4.43,4.43,0,0,0,75,87.7v0a4.46,4.46,0,0,0,4.36,4.69,5.16,5.16,0,0,0,3.8-1.71l1.49,1.52a6.84,6.84,0,0,1-5.36,2.34A6.64,6.64,0,0,1,72.51,87.78Z"/><path class="cls-1" d="M87.06,81.12h9.81V83.2H89.39v3.44H96v2.1H89.39v3.53H97v2.08H87.06Z"/><path class="cls-1" d="M99.73,81.12h4.93c4.16,0,7,2.86,7,6.58v0c0,3.72-2.87,6.61-7,6.61H99.73Zm2.32,2.12v9h2.61a4.32,4.32,0,0,0,4.6-4.46v0a4.35,4.35,0,0,0-4.6-4.5Z"/><path class="cls-1" d="M120.18,81.12h5.22c3.1,0,5,1.76,5,4.43v0c0,3-2.38,4.52-5.29,4.52h-2.63v4.25h-2.33Zm5,6.88c1.76,0,2.86-1,2.86-2.36v0c0-1.55-1.12-2.36-2.86-2.36h-2.7V88Z"/><path class="cls-1" d="M132.81,81.12h5.9a5.31,5.31,0,0,1,3.82,1.33,4,4,0,0,1,1.09,2.85v0a4,4,0,0,1-3.13,4l3.57,5H141.3l-3.25-4.61h-2.91v4.61h-2.33Zm5.73,6.56c1.66,0,2.72-.87,2.72-2.21v0c0-1.42-1-2.19-2.74-2.19h-3.38v4.44Z"/><path class="cls-1" d="M145.89,87.78v0a6.92,6.92,0,0,1,13.84,0v0a6.92,6.92,0,0,1-13.84,0Zm11.4,0v0a4.52,4.52,0,0,0-4.5-4.69,4.46,4.46,0,0,0-4.46,4.65v0a4.52,4.52,0,0,0,4.5,4.69A4.45,4.45,0,0,0,157.29,87.78Z"/><path class="cls-1" d="M162,87.78v0a6.74,6.74,0,0,1,6.83-6.84,7.15,7.15,0,0,1,5.08,1.79l-1.47,1.76a5.29,5.29,0,0,0-3.71-1.4,4.46,4.46,0,0,0-4.29,4.65v0a4.42,4.42,0,0,0,4.5,4.72,5.34,5.34,0,0,0,3.19-1V89h-3.38V87h5.63v5.56a8.39,8.39,0,0,1-5.52,2.06A6.56,6.56,0,0,1,162,87.78Z"/><path class="cls-1" d="M177.37,81.12h5.9a5.28,5.28,0,0,1,3.81,1.33,4,4,0,0,1,1.1,2.85v0a4,4,0,0,1-3.14,4l3.58,5h-2.76l-3.26-4.61h-2.91v4.61h-2.32Zm5.73,6.56c1.66,0,2.72-.87,2.72-2.21v0c0-1.42-1-2.19-2.74-2.19h-3.39v4.44Z"/><path class="cls-1" d="M195.72,81h2.16l5.82,13.32h-2.46l-1.34-3.19h-6.25l-1.37,3.19H189.9Zm3.33,8.07-2.29-5.29L194.5,89.1Z"/><path class="cls-1" d="M206,81.12h2.48l4,6.26,4-6.26H219V94.35h-2.33V84.87l-4.18,6.23h-.07l-4.14-6.2v9.45H206Z"/><path class="cls-1" d="M221.49,92.43l1.4-1.67a6.12,6.12,0,0,0,4.18,1.72c1.43,0,2.34-.68,2.34-1.66v0c0-.94-.53-1.45-3-2-2.82-.68-4.41-1.51-4.41-4v0c0-2.27,1.89-3.84,4.52-3.84a7.31,7.31,0,0,1,4.8,1.67l-1.25,1.75A6.06,6.06,0,0,0,226.5,83c-1.36,0-2.15.7-2.15,1.57v0c0,1,.6,1.47,3.15,2.08,2.8.68,4.24,1.68,4.24,3.87v0c0,2.48-2,4-4.73,4A8.19,8.19,0,0,1,221.49,92.43Z"/><rect class="cls-1" x="268.24" y="17.09" width="1.08" height="82.46"/><path class="cls-1" d="M0,25.82v-.09A15.29,15.29,0,0,1,15.68,10.18c5.68,0,9.07,1.89,11.86,4.64l-4.21,4.85c-2.32-2.1-4.68-3.39-7.69-3.39-5.07,0-8.72,4.21-8.72,9.37v.08c0,5.16,3.56,9.46,8.72,9.46,3.44,0,5.54-1.38,7.91-3.53l4.21,4.26a15.38,15.38,0,0,1-12.33,5.37A15.18,15.18,0,0,1,0,25.82Z"/><path class="cls-1" d="M33.05,10.69h6.61V22.6H51.87V10.69h6.62V40.77H51.87V28.7H39.66V40.77H33.05Z"/><path class="cls-1" d="M65.71,10.69H88.4v5.89H72.28v6.1H86.46v5.89H72.28v6.32H88.61v5.88H65.71Z"/><path class="cls-1" d="M94.5,10.69h22.69v5.89H101.08v6.1h14.18v5.89H101.08v6.32H117.4v5.88H94.5Z"/><path class="cls-1" d="M123.29,10.69h6.62V23.84L142,10.69h8.12L137.86,23.46l12.81,17.31h-7.95L133.39,28l-3.48,3.61v9.19h-6.62Z"/><path class="cls-1" d="M163.91,28.91,152.36,10.69h7.73l7.18,12.08,7.3-12.08h7.52L170.53,28.78v12h-6.62Z"/><path class="cls-1" d="M.39,70.67l3.68-4.42a13,13,0,0,0,8.47,3.44c2.55,0,4.09-1,4.09-2.67v-.08c0-1.58-1-2.39-5.71-3.61-5.71-1.45-9.4-3-9.4-8.66v-.08c0-5.15,4.13-8.55,9.92-8.55A16.42,16.42,0,0,1,22,49.64l-3.25,4.7a13.3,13.3,0,0,0-7.37-2.79C9,51.55,7.72,52.64,7.72,54v.08c0,1.86,1.21,2.47,6.11,3.73,5.76,1.49,9,3.56,9,8.5v.08c0,5.63-4.3,8.79-10.41,8.79A18.06,18.06,0,0,1,.39,70.67Z"/><path class="cls-1" d="M27,60.7v-.08A14.4,14.4,0,0,1,41.78,46c5.35,0,8.55,1.78,11.18,4.37l-4,4.58c-2.19-2-4.41-3.2-7.25-3.2-4.78,0-8.22,4-8.22,8.83v.08c0,4.86,3.36,8.91,8.22,8.91,3.24,0,5.23-1.29,7.45-3.32l4,4a14.47,14.47,0,0,1-11.62,5.06A14.31,14.31,0,0,1,27,60.7Z"/><path class="cls-1" d="M58.43,46.44h6.23V74.8H58.43Z"/><path class="cls-1" d="M71.75,46.44H93.14V52H78v5.75H91.32v5.55H78v6H93.34V74.8H71.75Z"/><path class="cls-1" d="M98.89,46.44h5.75L117.93,63.9V46.44h6.15V74.8h-5.3l-13.73-18v18H98.89Z"/><path class="cls-1" d="M137.49,52.2h-8.63V46.44h23.5V52.2h-8.63V74.8h-6.24Z"/><path class="cls-1" d="M157.42,46.44h6.23V74.8h-6.23Z"/><path class="cls-1" d="M168.8,70.67l3.68-4.42A13,13,0,0,0,181,69.69c2.55,0,4.09-1,4.09-2.67v-.08c0-1.58-1-2.39-5.71-3.61-5.71-1.45-9.4-3-9.4-8.66v-.08c0-5.15,4.13-8.55,9.93-8.55a16.41,16.41,0,0,1,10.53,3.6l-3.24,4.7a13.3,13.3,0,0,0-7.37-2.79c-2.39,0-3.65,1.09-3.65,2.47v.08c0,1.86,1.22,2.47,6.12,3.73,5.75,1.49,9,3.56,9,8.5v.08c0,5.63-4.29,8.79-10.41,8.79A18.06,18.06,0,0,1,168.8,70.67Z"/><path class="cls-1" d="M202.66,52.2H194V46.44h23.5V52.2H208.9V74.8h-6.24Z"/><path class="cls-2" d="M260.87,29.81a13.62,13.62,0,0,0-5-10.5A16.2,16.2,0,0,0,243.35,7.38a13.61,13.61,0,0,0-20-4.76,15.43,15.43,0,0,0-20.57,3.07,14,14,0,0,0-2-.15,14.17,14.17,0,0,0-1.64,28.25A15.37,15.37,0,0,0,207.51,42c3.48,1.4,9,2.58,16.68-3.41l.09-.08c5.69-4.87,9.56-6.11,13.78-4.4a9.32,9.32,0,0,1,6,7c.64,3.71-.27,9.06-2.3,13.63a42.56,42.56,0,0,1-3.61,6.45c-2.87-13-13.44-19.58-13.95-19.89l-2.65,4.32a28.45,28.45,0,0,1,6.21,5.72,25.51,25.51,0,0,1,6,16.47v7l4.49-5.39a54.61,54.61,0,0,0,8.12-12.63,33.92,33.92,0,0,0,2.93-13.51A13.64,13.64,0,0,0,260.87,29.81ZM231.29,5.16A8.54,8.54,0,0,1,237,7.37c-6.27,1.3-9.82,6.5-12.48,11.61h0a8.55,8.55,0,0,1,6.74-13.83Zm-16.51-.09a10.31,10.31,0,0,1,5,1.31,13.62,13.62,0,0,0,1.63,16.76,9,9,0,0,1-6.66,2.67,10.37,10.37,0,0,1,0-20.74ZM191.67,19.71a9.11,9.11,0,0,1,8.44-9.07,15.33,15.33,0,0,0-.13,9.18,16.68,16.68,0,0,0-1,2,15.52,15.52,0,0,0-1.11,6.49A9.13,9.13,0,0,1,191.67,19.71ZM221,34.57c-4.44,3.44-7.81,4.22-11.62,2.68a10.38,10.38,0,0,1-6.28-11.69,15.42,15.42,0,0,0,11.65,5.32c3.75,0,9.3-1,14.19-9.41l.06-.1c3.45-6.65,6.57-9.24,11.12-9.24a11.25,11.25,0,0,1,8.69,4.15,13.91,13.91,0,0,0-1.6-.09A13.63,13.63,0,0,0,233.7,28.28C228.82,28.58,224.63,31.49,221,34.57Zm27.58,3.69A14.74,14.74,0,0,0,240,29.35c-.41-.16-.82-.31-1.22-.43a8.41,8.41,0,0,1,.83-2.89,8.56,8.56,0,1,1,9,12.23Z"/><path class="cls-1" d="M274.35,52.58l.14-1.63,2.16-.22c1.15-.14,1.54-.4,1.54-.8V27.6c0-.4-.26-.57-1.63-.75l-2.07-.22L274.35,25H287l-.13,1.63-2.17.22c-1.19.13-1.54.4-1.54.8V50c0,.44.31.61,1.59.75l2.12.22.13,1.63Z"/><path class="cls-1" d="M302.9,52.58,303,51l1-.13c1.28-.09,1.5-.4,1.5-.84V41.06c0-4.37-1.37-5.56-3.93-5.56a7.49,7.49,0,0,0-4.37,1.63V50c0,.44.27.71,1.68.8l1.32.13.14,1.63H290l.13-1.63,1.15-.13c1.06-.09,1.5-.31,1.5-.84V39.12c0-2.78-.35-3.18-1.9-3.62l-1-.22L290,34l7.24-2v3.22h.22c2.34-1.9,4.72-3.22,7.15-3.22a5.32,5.32,0,0,1,3.67,1.45,6.7,6.7,0,0,1,1.67,5V50c0,.39.22.66,1.81.84l1.06.13.13,1.63Z"/><path class="cls-1" d="M322.45,53.24c-3.17,0-5.51-1.9-5.42-6.35l.26-11.48-3.49-.26.05-1.46,6-5.21,1.77.27-.05,4.06h7.19l-.3,2.43h-6.89l-.26,10.41C321.22,49,322.76,50,325,50a8.48,8.48,0,0,0,3.71-1l.18,1.19A8.94,8.94,0,0,1,322.45,53.24Z"/><path class="cls-1" d="M339.66,53.24c-5.2,0-9-4.19-9-9.93,0-6.53,4.59-11.29,10.5-11.29,4.24,0,7.19,2.6,7.19,6.75a12.09,12.09,0,0,1-.26,2.42L335.21,41v.48c0,5,2.73,8.26,6.53,8.26a7.15,7.15,0,0,0,5.47-2.56l.93.53A8.84,8.84,0,0,1,339.66,53.24Zm.58-19.42c-2.3,0-4.5,2-4.95,5.74l8.39,0C343.86,35.94,342.44,33.82,340.24,33.82Z"/><path class="cls-1" d="M365,37.49a3,3,0,0,1-2.52-1.59,12,12,0,0,0-4.1,4.37V50c0,.44.26.71,1.67.8l1.59.13.13,1.63H351.22l.14-1.63,1.14-.13c1.06-.09,1.5-.31,1.5-.84V39.12c0-2.78-.35-3.18-1.89-3.62l-1-.22.05-1.28,7.24-2v5.6h.22c2.2-3.66,3.75-5.6,6-5.6a2.65,2.65,0,0,1,2.86,2.82A2.39,2.39,0,0,1,365,37.49Z"/><path class="cls-1" d="M381.72,52.58l.13-1.63,1-.13c1.28-.09,1.5-.4,1.5-.84V41.06c0-4.37-1.37-5.56-3.93-5.56A7.49,7.49,0,0,0,376,37.13V50c0,.44.27.71,1.68.8L379,51l.14,1.63H368.83L369,51l1.15-.13c1.06-.09,1.5-.31,1.5-.84V39.12c0-2.78-.35-3.18-1.9-3.62l-1-.22,0-1.28L376,32v3.22h.22c2.34-1.9,4.73-3.22,7.15-3.22a5.3,5.3,0,0,1,3.67,1.45,6.7,6.7,0,0,1,1.67,5V50c0,.39.22.66,1.81.84l1.06.13.13,1.63Z"/><path class="cls-1" d="M408.24,53.33c-1.72,0-3.09-1.06-3.22-3.49h-.23c-1.58,1.9-3.3,3.4-5.6,3.4a5.21,5.21,0,0,1-5.38-5.16c0-3.66,3.57-5.78,11.21-7.64v-.39c0-4.33-1.64-5.7-4.33-5.7-1.46,0-3.13.58-3.13.93s1.06,1,1.06,2.34a2.34,2.34,0,0,1-2.47,2.21,2.29,2.29,0,0,1-2.48-2.21c0-2.38,5-5.6,9.09-5.6,5,0,6.93,2.07,6.67,8.91l-.31,7.37c-.09,1.24.26,1.81,1,1.81a4.07,4.07,0,0,0,2.12-1.06l.75,1.06C411.64,51.92,409.91,53.33,408.24,53.33ZM404.93,42c-5.52,1.41-6.8,3.13-6.8,5a3,3,0,0,0,3.05,3.09,5.42,5.42,0,0,0,3.57-1.77Z"/><path class="cls-1" d="M422,53.24c-3.18,0-5.52-1.9-5.43-6.35l.27-11.48-3.49-.26,0-1.46,6-5.21,1.76.27,0,4.06h7.19L428,35.24h-6.88l-.27,10.41C420.72,49,422.27,50,424.52,50a8.48,8.48,0,0,0,3.71-1l.17,1.19A8.93,8.93,0,0,1,422,53.24Z"/><path class="cls-1" d="M430.43,52.58l.13-1.63,1.11-.13c1.06-.09,1.5-.31,1.5-.84V39.12c0-2.78-.31-3.18-1.9-3.62l-.93-.22.05-1.28,7.19-2V50c0,.44.27.71,1.68.8l1.1.13.13,1.63Zm4.55-24a2.76,2.76,0,0,1-2.78-3,2.78,2.78,0,1,1,5.56,0A2.76,2.76,0,0,1,435,28.62Z"/><path class="cls-1" d="M453,53.24c-6.13,0-9.88-4.68-9.88-10.5A10.65,10.65,0,0,1,453.86,32c6.05,0,9.89,4.54,9.89,10.15A10.79,10.79,0,0,1,453,53.24Zm3.66-17.78a4.55,4.55,0,0,0-3.39-1.5c-3,0-5.3,2.82-5.3,7.54,0,3.58.62,6.71,2.21,8.39a4.81,4.81,0,0,0,3.44,1.45c2.91,0,5.25-2.86,5.25-7.54C458.85,40.27,458.19,37.05,456.64,35.46Z"/><path class="cls-1" d="M479.33,52.58l.13-1.63,1-.13c1.28-.09,1.5-.4,1.5-.84V41.06c0-4.37-1.37-5.56-3.93-5.56a7.52,7.52,0,0,0-4.37,1.63V50c0,.44.27.71,1.68.8l1.32.13.14,1.63H466.44l.13-1.63,1.15-.13c1.06-.09,1.5-.31,1.5-.84V39.12c0-2.78-.35-3.18-1.9-3.62l-1-.22,0-1.28,7.23-2v3.22h.22c2.34-1.9,4.73-3.22,7.15-3.22a5.3,5.3,0,0,1,3.67,1.45,6.7,6.7,0,0,1,1.67,5V50c0,.39.22.66,1.81.84l1.06.13.14,1.63Z"/><path class="cls-1" d="M505.85,53.33c-1.72,0-3.09-1.06-3.22-3.49h-.22c-1.59,1.9-3.31,3.4-5.61,3.4a5.21,5.21,0,0,1-5.38-5.16c0-3.66,3.57-5.78,11.21-7.64v-.39c0-4.33-1.64-5.7-4.33-5.7-1.45,0-3.13.58-3.13.93s1.06,1,1.06,2.34a2.34,2.34,0,0,1-2.47,2.21,2.29,2.29,0,0,1-2.48-2.21c0-2.38,5-5.6,9.1-5.6,5,0,6.92,2.07,6.66,8.91l-.31,7.37c-.09,1.24.27,1.81,1,1.81a4.08,4.08,0,0,0,2.11-1.06l.75,1.06C509.25,51.92,507.53,53.33,505.85,53.33ZM502.54,42c-5.52,1.41-6.8,3.13-6.8,5a3,3,0,0,0,3.05,3.09,5.42,5.42,0,0,0,3.57-1.77Z"/><path class="cls-1" d="M511.85,52.58,512,51l1.15-.13c1.06-.09,1.5-.31,1.5-.84V27.6a1.25,1.25,0,0,0-.62-1.28l-2.6-1.15.13-1.19,7.5-2.16V50c0,.44.27.71,1.68.8l1.1.13.13,1.63Z"/><path class="cls-1" d="M286,77.49c-1.1,0-2.25-.09-3.31-.17v8.56c0,.44.31.62,1.59.75l2.38.22.13,1.63H274.26l.14-1.63,1.72-.22c1.1-.13,1.54-.4,1.54-.8V63.5c0-.4-.26-.57-1.63-.75l-1.63-.22-.14-1.63h11.88c7.32,0,11.07,3.26,11.07,7.5C297.21,74.36,292,77.49,286,77.49Zm-.26-14.78h-3.05V75.37a13.6,13.6,0,0,0,3.09.31c3.53,0,6.05-2.47,6.05-6.44S289.49,62.71,285.7,62.71Z"/><path class="cls-1" d="M312.17,88.48l.13-1.63,1-.13c1.28-.09,1.5-.4,1.5-.84V77c0-4.37-1.37-5.56-3.93-5.56A7.73,7.73,0,0,0,306.44,73V85.92c0,.44.26.71,1.67.8l1.37.13.13,1.63H299.29l.13-1.63,1.15-.13c1.05-.09,1.5-.31,1.5-.84V63.5a1.31,1.31,0,0,0-.62-1.28l-2.65-1.14.13-1.2,7.51-2.16V71.14h.22c2.33-1.9,4.76-3.22,7.14-3.22a5.31,5.31,0,0,1,3.71,1.45,6.87,6.87,0,0,1,1.68,5V85.88c0,.39.22.66,1.81.84l1,.13.14,1.63Z"/><path class="cls-1" d="M335.07,88.48H324.31l.13-1.63,1.72-.22c1.1-.13,1.54-.4,1.54-.8V63.5c0-.4-.26-.57-1.63-.75l-1.63-.22-.13-1.63,10.85-.13c10.06-.14,16.51,5.51,16.51,13.24S346,88.48,335.07,88.48Zm-1-25.82h-1.37V86.05l3.18.67c6.62,0,10.37-5.12,10.37-11.61C346.24,67.69,342.14,62.66,334.06,62.66Z"/><path class="cls-1" d="M390.68,88.48,388.12,88a22.86,22.86,0,0,1-7,1.14c-8.82,0-15.53-5-15.53-14.12s6.84-14.74,15.67-14.74a21.39,21.39,0,0,1,6.35,1l3.8-.79v9.4h-2.56l-1.5-6a11.17,11.17,0,0,0-6.05-1.59c-6.27,0-10.15,5.07-10.15,12.13,0,7.68,3.75,12.85,10.5,12.85A11.36,11.36,0,0,0,386.84,86l2.07-6.31h2.69Z"/><path class="cls-1" d="M405.72,89.14c-6.13,0-9.88-4.67-9.88-10.5a10.66,10.66,0,0,1,10.77-10.72c6,0,9.88,4.54,9.88,10.15A10.79,10.79,0,0,1,405.72,89.14Zm3.67-17.78a4.57,4.57,0,0,0-3.4-1.5c-3,0-5.3,2.82-5.3,7.54,0,3.58.62,6.71,2.21,8.39a4.82,4.82,0,0,0,3.44,1.46c2.91,0,5.25-2.87,5.25-7.55C411.59,76.17,410.93,73,409.39,71.36Z"/><path class="cls-1" d="M444,88.48l.13-1.63,1-.13c1.28-.09,1.5-.4,1.5-.84V77c0-4.37-1.68-5.56-3.93-5.56a6.65,6.65,0,0,0-4.06,1.77,11.36,11.36,0,0,1,0,1.23V85.88c0,.39.22.66,1.81.84l1,.13.14,1.63h-10l.18-1.63,1-.13c1.28-.09,1.5-.4,1.5-.84V77c0-4.37-1.68-5.56-3.93-5.56a7.1,7.1,0,0,0-4,1.63V85.92c0,.44.26.71,1.67.8l1.24.13.13,1.63H419.18l.13-1.63,1.15-.13c1.06-.09,1.5-.31,1.5-.84V75c0-2.78-.35-3.18-1.9-3.62l-1-.22.05-1.28,7.24-2v3.22h.13c2.29-1.94,4.54-3.22,6.84-3.22a5.34,5.34,0,0,1,3.71,1.45,5.73,5.73,0,0,1,1.23,2h.18c2.38-2.2,4.85-3.48,7.23-3.48a5.31,5.31,0,0,1,3.71,1.45,6.87,6.87,0,0,1,1.68,5V85.88c0,.39.22.66,1.81.84l1,.13.14,1.63Z"/><path class="cls-1" d="M480.74,88.48l.13-1.63,1-.13c1.28-.09,1.5-.4,1.5-.84V77c0-4.37-1.68-5.56-3.93-5.56a6.67,6.67,0,0,0-4.06,1.77,9.1,9.1,0,0,1,.05,1.23V85.88c0,.39.22.66,1.81.84l1,.13.13,1.63h-10l.18-1.63,1-.13c1.28-.09,1.5-.4,1.5-.84V77c0-4.37-1.67-5.56-3.92-5.56a7.13,7.13,0,0,0-4,1.63V85.92c0,.44.26.71,1.68.8l1.23.13.13,1.63H455.9l.13-1.63,1.15-.13c1.05-.09,1.5-.31,1.5-.84V75c0-2.78-.36-3.18-1.9-3.62l-1-.22,0-1.28,7.24-2v3.22h.13c2.3-1.94,4.55-3.22,6.84-3.22a5.31,5.31,0,0,1,3.71,1.45,5.59,5.59,0,0,1,1.23,2h.18c2.38-2.2,4.86-3.48,7.24-3.48a5.32,5.32,0,0,1,3.71,1.45,6.91,6.91,0,0,1,1.67,5V85.88c0,.39.22.66,1.81.84l1,.13.13,1.63Z"/><path class="cls-1" d="M514.9,88.3l-7.46.84V85.92h-.22c-2.39,1.9-4.77,3.22-7.2,3.22a5.27,5.27,0,0,1-3.66-1.45,6.7,6.7,0,0,1-1.68-5l.09-11.48c0-.7-.31-.62-1.9-.84l-1-.13-.13-1.63h7.59l-.26,11.56c-.05,4.33,1.36,5.52,3.92,5.52a8.06,8.06,0,0,0,4.42-1.59V71.14c0-.44-.27-.66-1.68-.8l-1.5-.13-.18-1.63h7.73V85c0,.66.17,1.15.61,1.28l2.61.79Z"/><path class="cls-1" d="M529.5,88.48l.13-1.63,1-.13c1.27-.09,1.5-.4,1.5-.84V77c0-4.37-1.37-5.56-3.93-5.56A7.49,7.49,0,0,0,523.81,73V85.92c0,.44.26.71,1.68.8l1.32.13.13,1.63H516.61l.14-1.63,1.14-.13c1.06-.09,1.5-.31,1.5-.84V75c0-2.78-.35-3.18-1.89-3.62l-1-.22,0-1.28,7.24-2v3.22H524c2.34-1.9,4.72-3.22,7.15-3.22a5.27,5.27,0,0,1,3.66,1.45,6.7,6.7,0,0,1,1.68,5V85.88c0,.39.22.66,1.81.84l1.06.13.13,1.63Z"/><path class="cls-1" d="M541.42,88.48l.13-1.63,1.1-.13c1.06-.09,1.5-.31,1.5-.84V75c0-2.78-.31-3.18-1.9-3.62l-.92-.22,0-1.28,7.19-2v18c0,.44.27.71,1.68.8l1.11.13.13,1.63Zm4.54-24a2.94,2.94,0,1,1,2.78-3A2.76,2.76,0,0,1,546,64.52Z"/><path class="cls-1" d="M561.58,89.14c-3.18,0-5.51-1.89-5.43-6.35l.27-11.48-3.49-.26.05-1.46,6-5.2,1.76.26,0,4.06h7.19l-.31,2.43H560.7l-.26,10.41c-.09,3.31,1.45,4.37,3.7,4.37a8.48,8.48,0,0,0,3.71-1L568,86.1A8.94,8.94,0,0,1,561.58,89.14Z"/><path class="cls-1" d="M590.44,70.21l-1.23.27c-1.19.17-1.68.83-2.52,3l-5.21,13.73-2.38,7.1c-1.28,3.84-2.69,5.74-5.29,5.74-1.9,0-3.18-1.06-3.18-2.6A2.25,2.25,0,0,1,573,94.93a3,3,0,0,1,2.73,1.63c.66-.36,1.11-1.15,1.81-3l1.5-4.28v-.18L571.16,72.2A2.3,2.3,0,0,0,569,70.61l-1-.36-.18-1.67h10.33l-.13,1.63-1.2.31c-.88.09-1.32.57-.83,1.63L581,83.49l3.62-10.23c.62-1.81.44-2.48-1-2.7l-1.33-.35-.13-1.63h8.39Z"/></svg>