<svg id="Layer_1" data-name="Layer 1" xmlns="http://www.w3.org/2000/svg" viewBox="0 0 612.17 100"><defs><style>.cls-1{fill:#fff;}.cls-2{fill:#ff6f00;}</style></defs><path class="cls-1" d="M216.15,71.8v0a4.41,4.41,0,0,1,8.81,0v0a4.41,4.41,0,0,1-4.42,4.41A4.37,4.37,0,0,1,216.15,71.8Zm8.3,0v0a3.9,3.9,0,1,0-7.79,0v0a3.9,3.9,0,1,0,7.79,0Zm-5.71-2.47h2.08a2,2,0,0,1,1.45.51,1.4,1.4,0,0,1,.39,1v0a1.46,1.46,0,0,1-1,1.45L222.8,74h-1.21l-1-1.51h-.81V74h-1Zm2.07,2.29c.53,0,.81-.28.81-.67v0c0-.45-.32-.69-.83-.69h-1v1.38Z"/><path class="cls-1" d="M600,86.44v0A4.42,4.42,0,0,1,604.39,82a4.37,4.37,0,0,1,4.39,4.38v0a4.41,4.41,0,0,1-8.81,0Zm8.3,0v0a3.9,3.9,0,1,0-7.79,0v0a3.9,3.9,0,1,0,7.79,0ZM602.56,84h2.08a2,2,0,0,1,1.45.51,1.38,1.38,0,0,1,.39,1v0a1.44,1.44,0,0,1-1,1.44l1.15,1.68h-1.21l-1-1.5h-.81v1.5h-1Zm2.07,2.29c.53,0,.81-.28.81-.67v0c0-.45-.32-.68-.83-.68h-1v1.38Z"/><path class="cls-1" d="M6.84,82.07H9l5.89,13.5H12.43l-1.35-3.24H4.74L3.36,95.57H1Zm3.37,8.18L7.9,84.89,5.6,90.25Z"/><path class="cls-1" d="M17.22,82.17h5c4.21,0,7.12,2.89,7.12,6.66v0c0,3.77-2.91,6.7-7.12,6.7h-5Zm2.36,2.14v9.11h2.64a4.36,4.36,0,0,0,4.65-4.51v0a4.4,4.4,0,0,0-4.65-4.56Z"/><path class="cls-1" d="M30.19,82.17h2.6l4,10.3,4-10.3H43.4L37.84,95.66h-2.1Z"/><path class="cls-1" d="M48.53,82.07h2.18l5.9,13.5H54.12l-1.36-3.24H46.42l-1.37,3.24H42.63Zm3.37,8.18-2.32-5.36-2.29,5.36Z"/><path class="cls-1" d="M58.91,82.17h2.18l7.18,9.26V82.17h2.32v13.4h-2L61.23,86v9.53H58.91Z"/><path class="cls-1" d="M73.44,88.91v0a6.77,6.77,0,0,1,6.89-6.93A7,7,0,0,1,85.6,84l-1.51,1.75a5.36,5.36,0,0,0-3.78-1.65,4.49,4.49,0,0,0-4.4,4.71v0a4.52,4.52,0,0,0,4.42,4.75,5.25,5.25,0,0,0,3.85-1.73l1.51,1.53a6.89,6.89,0,0,1-5.43,2.38A6.73,6.73,0,0,1,73.44,88.91Z"/><path class="cls-1" d="M88.19,82.17h9.93v2.1H90.54v3.49h6.72v2.12H90.54v3.58h7.68v2.11h-10Z"/><path class="cls-1" d="M101,82.17h5c4.21,0,7.12,2.89,7.12,6.66v0c0,3.77-2.91,6.7-7.12,6.7h-5Zm2.36,2.14v9.11H106a4.36,4.36,0,0,0,4.65-4.51v0A4.4,4.4,0,0,0,106,84.31Z"/><path class="cls-1" d="M121.73,82.17H127c3.14,0,5.09,1.78,5.09,4.48v0c0,3-2.41,4.57-5.36,4.57h-2.66v4.31h-2.36Zm5.09,7c1.78,0,2.9-1,2.9-2.4v0c0-1.57-1.13-2.39-2.9-2.39h-2.73v4.83Z"/><path class="cls-1" d="M134.52,82.17h6a5.4,5.4,0,0,1,3.86,1.34,4,4,0,0,1,1.11,2.89v0a4,4,0,0,1-3.17,4l3.61,5.08h-2.79l-3.29-4.67h-3v4.67h-2.36Zm5.8,6.64c1.69,0,2.76-.88,2.76-2.24v0c0-1.43-1-2.22-2.78-2.22h-3.42v4.5Z"/><path class="cls-1" d="M147.77,88.91v0a7,7,0,0,1,14,0v0a7,7,0,0,1-14,0Zm11.55,0v0a4.58,4.58,0,0,0-4.56-4.75,4.52,4.52,0,0,0-4.52,4.71v0a4.58,4.58,0,0,0,4.56,4.75A4.52,4.52,0,0,0,159.32,88.91Z"/><path class="cls-1" d="M164.05,88.91v0A6.83,6.83,0,0,1,171,81.94a7.24,7.24,0,0,1,5.15,1.82l-1.49,1.78a5.35,5.35,0,0,0-3.76-1.42,4.51,4.51,0,0,0-4.34,4.71v0a4.47,4.47,0,0,0,4.55,4.78,5.48,5.48,0,0,0,3.24-1V90.15h-3.43V88.08h5.71v5.63A8.55,8.55,0,0,1,171,95.8,6.65,6.65,0,0,1,164.05,88.91Z"/><path class="cls-1" d="M179.65,82.17h6a5.4,5.4,0,0,1,3.86,1.34,4,4,0,0,1,1.11,2.89v0a4,4,0,0,1-3.17,4L191,95.57h-2.79L185,90.9h-3v4.67h-2.36Zm5.8,6.64c1.69,0,2.76-.88,2.76-2.24v0c0-1.43-1-2.22-2.77-2.22H182v4.5Z"/><path class="cls-1" d="M198.25,82.07h2.18l5.89,13.5h-2.48l-1.36-3.24h-6.34l-1.38,3.24h-2.41Zm3.36,8.18-2.31-5.36L197,90.25Z"/><path class="cls-1" d="M208.62,82.17h2.51l4.08,6.33,4.08-6.33h2.51v13.4h-2.36V86l-4.23,6.32h-.08L210.94,86v9.57h-2.32Z"/><path class="cls-1" d="M224.34,93.62l1.42-1.69A6.21,6.21,0,0,0,230,93.67c1.46,0,2.38-.69,2.38-1.68v0c0-1-.54-1.47-3-2-2.85-.69-4.46-1.53-4.46-4v0c0-2.29,1.92-3.88,4.58-3.88a7.43,7.43,0,0,1,4.86,1.68l-1.26,1.78a6.12,6.12,0,0,0-3.64-1.38c-1.38,0-2.18.71-2.18,1.59v0c0,1,.61,1.49,3.19,2.11,2.84.69,4.29,1.7,4.29,3.92v0c0,2.51-2,4-4.79,4A8.3,8.3,0,0,1,224.34,93.62Z"/><rect class="cls-1" x="271.7" y="12.01" width="1.09" height="83.52"/><path class="cls-1" d="M0,26.15v-.09A15.48,15.48,0,0,1,15.89,10.31c5.74,0,9.18,1.91,12,4.7l-4.27,4.92c-2.35-2.13-4.74-3.44-7.79-3.44C10.71,16.49,7,20.75,7,26v.08c0,5.23,3.61,9.58,8.83,9.58,3.48,0,5.62-1.39,8-3.57l4.27,4.31a15.6,15.6,0,0,1-12.5,5.44A15.38,15.38,0,0,1,0,26.15Z"/><path class="cls-1" d="M33.47,10.83h6.71V22.89H52.54V10.83h6.7V41.3h-6.7V29.07H40.18V41.3H33.47Z"/><path class="cls-1" d="M66.55,10.83h23v6H73.21V23H87.58v6H73.21v6.4H89.75v6H66.55Z"/><path class="cls-1" d="M95.72,10.83h23v6H102.38V23h14.36v6H102.38v6.4h16.54v6H95.72Z"/><path class="cls-1" d="M124.88,10.83h6.71V24.15l12.27-13.32h8.23L139.64,23.76l13,17.54h-8.05l-9.45-13L131.59,32V41.3h-6.71Z"/><path class="cls-1" d="M166,29.29,154.32,10.83h7.83l7.27,12.23,7.4-12.23h7.62L172.73,29.15V41.3H166Z"/><path class="cls-1" d="M.39,71.58,4.12,67.1a13.17,13.17,0,0,0,8.58,3.49c2.58,0,4.14-1,4.14-2.71V67.8c0-1.6-1-2.42-5.78-3.65-5.79-1.48-9.52-3.08-9.52-8.78v-.08c0-5.21,4.18-8.66,10.05-8.66a16.61,16.61,0,0,1,10.67,3.65L19,55c-2.55-1.76-5.05-2.83-7.47-2.83s-3.69,1.11-3.69,2.5v.09c0,1.88,1.23,2.5,6.19,3.77,5.83,1.52,9.11,3.61,9.11,8.62v.08c0,5.7-4.35,8.9-10.54,8.9A18.32,18.32,0,0,1,.39,71.58Z"/><path class="cls-1" d="M27.34,61.48V61.4a14.6,14.6,0,0,1,15-14.85c5.41,0,8.66,1.8,11.32,4.43l-4,4.64c-2.21-2-4.47-3.24-7.34-3.24-4.84,0-8.33,4-8.33,8.94v.08c0,4.92,3.4,9,8.33,9,3.28,0,5.29-1.32,7.55-3.37l4,4.07a14.72,14.72,0,0,1-11.78,5.12A14.5,14.5,0,0,1,27.34,61.48Z"/><path class="cls-1" d="M59.18,47H65.5V75.76H59.18Z"/><path class="cls-1" d="M72.68,47H94.34v5.62H79v5.83H92.49v5.62H79v6H94.54v5.62H72.68Z"/><path class="cls-1" d="M100.16,47H106l13.46,17.68V47h6.23V75.76h-5.37L106.4,57.5V75.76h-6.24Z"/><path class="cls-1" d="M139.26,52.87h-8.74V47h23.8v5.83h-8.74V75.76h-6.32Z"/><path class="cls-1" d="M159.44,47h6.32V75.76h-6.32Z"/><path class="cls-1" d="M171,71.58l3.74-4.48a13.13,13.13,0,0,0,8.57,3.49c2.59,0,4.14-1,4.14-2.71V67.8c0-1.6-1-2.42-5.78-3.65-5.79-1.48-9.52-3.08-9.52-8.78v-.08c0-5.21,4.19-8.66,10-8.66a16.61,16.61,0,0,1,10.67,3.65L189.56,55c-2.55-1.76-5.05-2.83-7.47-2.83s-3.69,1.11-3.69,2.5v.09c0,1.88,1.23,2.5,6.19,3.77,5.83,1.52,9.11,3.61,9.11,8.62v.08c0,5.7-4.35,8.9-10.54,8.9A18.32,18.32,0,0,1,171,71.58Z"/><path class="cls-1" d="M205.27,52.87h-8.74V47h23.8v5.83h-8.74V75.76h-6.32Z"/><path class="cls-2" d="M264.23,30.2a13.79,13.79,0,0,0-5-10.64A16.46,16.46,0,0,0,246.48,7.47a13.77,13.77,0,0,0-20.21-4.81,15.63,15.63,0,0,0-20.84,3.1,14.35,14.35,0,1,0-3.73,28.46,15.52,15.52,0,0,0,8.48,8.27c3.53,1.42,9.11,2.61,16.9-3.46l.09-.07c5.77-4.94,9.68-6.19,14-4.47a9.48,9.48,0,0,1,6.12,7.13c.64,3.76-.28,9.18-2.33,13.8A43.26,43.26,0,0,1,241.26,62c-2.91-13.15-13.61-19.83-14.13-20.15l-2.69,4.38A28.5,28.5,0,0,1,230.73,52a25.79,25.79,0,0,1,6.12,16.68v7.1l4.54-5.46a55,55,0,0,0,8.22-12.79,34.17,34.17,0,0,0,3-13.68A13.83,13.83,0,0,0,264.23,30.2Zm-30-25a8.61,8.61,0,0,1,5.82,2.23c-6.35,1.33-9.94,6.58-12.63,11.76h0a8.66,8.66,0,0,1,6.82-14Zm-16.71-.09a10.5,10.5,0,0,1,5.1,1.32,13.76,13.76,0,0,0,1.64,17,9.08,9.08,0,0,1-6.74,2.71,10.5,10.5,0,1,1,0-21ZM194.14,20a9.22,9.22,0,0,1,8.54-9.19,15.72,15.72,0,0,0-.13,9.3,15.12,15.12,0,0,0-1,2.06,15.52,15.52,0,0,0-1.13,6.56A9.23,9.23,0,0,1,194.14,20ZM223.88,35c-4.5,3.48-7.91,4.27-11.77,2.71a10.49,10.49,0,0,1-6.36-11.84,15.6,15.6,0,0,0,11.8,5.39c3.79,0,9.41-1,14.37-9.53l.06-.11c3.49-6.73,6.65-9.36,11.27-9.36a11.42,11.42,0,0,1,8.8,4.21,14.38,14.38,0,0,0-1.62-.1,13.7,13.7,0,0,0-12.38,7.71,13.49,13.49,0,0,0-1.34,4.55C231.77,29,227.53,31.89,223.88,35Zm27.93,3.73a14.94,14.94,0,0,0-8.76-9c-.42-.17-.83-.31-1.24-.44a8.75,8.75,0,0,1,.84-2.92,8.67,8.67,0,1,1,9.16,12.38Z"/><path class="cls-1" d="M305.94,50.5l.13-1.65,2.42-.32c.85-.13,1.12-1.7.89-8.63l-.49-14.48h-.36L300.17,49.6h-3l-7.91-23.28h-.53l-.63,13.41c-.36,8-.31,8.67.58,8.8l2.5.32.14,1.65h-9.75l.14-1.65,2.41-.32c.9-.13,1.39-.62,1.83-8.8l.59-11.54c.13-2.05-.54-3.17-1.84-3.48l-2.5-.45-.13-1.7H293.2l6.88,20.3h.32l6.79-20.3H318.1l-.14,1.7-2.95.22a1.22,1.22,0,0,0-1,1.34l.44,14.08c.18,7.34.58,8.5,1.48,8.63l2.37.32.13,1.65Z"/><path class="cls-1" d="M335.93,51.26c-1.74,0-3.13-1.07-3.26-3.53h-.23c-1.61,1.92-3.35,3.44-5.67,3.44a5.29,5.29,0,0,1-5.46-5.23c0-3.71,3.62-5.86,11.36-7.73V37.8c0-4.38-1.66-5.76-4.38-5.76-1.48,0-3.18.58-3.18.94s1.08,1,1.08,2.37a2.37,2.37,0,0,1-2.51,2.23,2.31,2.31,0,0,1-2.5-2.23c0-2.42,5.1-5.68,9.21-5.68,5.05,0,7,2.1,6.75,9l-.32,7.46c-.08,1.25.27,1.84,1,1.84A4.19,4.19,0,0,0,340,46.92l.76,1.08C339.37,49.83,337.63,51.26,335.93,51.26Zm-3.35-11.49c-5.59,1.43-6.89,3.17-6.89,5A3,3,0,0,0,328.78,48a5.47,5.47,0,0,0,3.62-1.79Z"/><path class="cls-1" d="M355.06,50.5l.13-1.65,1-.14c1.29-.09,1.52-.4,1.52-.85v-9c0-4.42-1.39-5.63-4-5.63a7.63,7.63,0,0,0-4.43,1.65V47.91c0,.44.27.71,1.7.8l1.34.14.14,1.65H342l.13-1.65,1.16-.14c1.08-.09,1.52-.31,1.52-.85v-11c0-2.82-.35-3.22-1.92-3.67l-1-.22,0-1.3,7.33-2v3.26h.23c2.37-1.92,4.78-3.26,7.24-3.26a5.35,5.35,0,0,1,3.71,1.47c1.21,1.21,1.7,2.86,1.7,5.1V47.86c0,.4.22.67,1.83.85l1.07.14.14,1.65Z"/><path class="cls-1" d="M381.92,51.26c-1.74,0-3.13-1.07-3.26-3.53h-.22c-1.61,1.92-3.36,3.44-5.68,3.44a5.28,5.28,0,0,1-5.45-5.23c0-3.71,3.62-5.86,11.35-7.73V37.8c0-4.38-1.65-5.76-4.38-5.76-1.48,0-3.17.58-3.17.94s1.07,1,1.07,2.37a2.37,2.37,0,0,1-2.5,2.23,2.31,2.31,0,0,1-2.51-2.23c0-2.42,5.1-5.68,9.21-5.68,5.05,0,7,2.1,6.75,9l-.31,7.46c-.09,1.25.27,1.84,1,1.84A4.13,4.13,0,0,0,386,46.92l.76,1.08C385.37,49.83,383.62,51.26,381.92,51.26Zm-3.35-11.49c-5.59,1.43-6.88,3.17-6.88,5A3,3,0,0,0,374.77,48a5.45,5.45,0,0,0,3.62-1.79Z"/><path class="cls-1" d="M403.87,33.29v.22a5.5,5.5,0,0,1,1,3.22c0,4.25-3.49,7.47-8.36,7.47a12.08,12.08,0,0,1-2.64-.32c-.58.27-1.61,1.12-1.61,1.93,0,1.2,1.12,2,2.86,2s3.89-.14,5.41-.14a6.25,6.25,0,0,1,6.57,6.13c0,4.69-4.82,8.31-11.89,8.31-4.87,0-8.09-2-8.09-5.23,0-2.73,1.92-4.16,4.34-5.09v-.18A3.86,3.86,0,0,1,388.4,48c0-1.83,1.66-3.62,3.85-4.42,0-.23.13-.23.13-.23a6.37,6.37,0,0,1-4-6.21c0-4.11,3.22-7.51,8.36-7.51a12.46,12.46,0,0,1,5.5,1.29h6.3l0,3.13ZM399.4,52c-1.48-.14-3.13,0-6.08,0A4.17,4.17,0,0,0,391,55.59c0,2.73,2.5,4.61,6.3,4.61,3.53,0,6-2,6-4.52C403.33,53.58,402.31,52.24,399.4,52ZM399,32.35a3.3,3.3,0,0,0-2.32-1c-2.28,0-3.85,1.92-3.85,5.18a7.14,7.14,0,0,0,1.7,5.1,3.11,3.11,0,0,0,2.06.89,3.63,3.63,0,0,0,2.55-.89c.89-.85,1.34-2.37,1.34-4.56A6.59,6.59,0,0,0,399,32.35Z"/><path class="cls-1" d="M418.93,51.17c-5.27,0-9.16-4.25-9.16-10.06,0-6.61,4.65-11.44,10.64-11.44,4.29,0,7.28,2.64,7.28,6.84a11.8,11.8,0,0,1-.27,2.46l-13-.18v.49c0,5,2.77,8.36,6.61,8.36a7.26,7.26,0,0,0,5.55-2.59l.93.53A8.94,8.94,0,0,1,418.93,51.17Zm.58-19.67c-2.32,0-4.56,2-5,5.81l8.49,0C423.18,33.65,421.75,31.5,419.51,31.5Z"/><path class="cls-1" d="M455.81,50.5l.13-1.65,1-.14c1.3-.09,1.52-.4,1.52-.85v-9c0-4.42-1.7-5.63-4-5.63A6.72,6.72,0,0,0,450.4,35a11.75,11.75,0,0,1,0,1.25V47.86c0,.4.23.67,1.84.85l1,.14.13,1.65h-10.1l.18-1.65,1-.14c1.3-.09,1.52-.4,1.52-.85v-9c0-4.42-1.7-5.63-4-5.63a7.2,7.2,0,0,0-4.06,1.65V47.91c0,.44.26.71,1.7.8l1.25.14L441,50.5H430.64l.13-1.65,1.17-.14c1.07-.09,1.52-.31,1.52-.85v-11c0-2.82-.36-3.22-1.93-3.67l-1-.22,0-1.3,7.34-2v3.26h.13c2.32-2,4.6-3.26,6.93-3.26a5.38,5.38,0,0,1,3.75,1.47A5.61,5.61,0,0,1,450,33.2h.17c2.42-2.24,4.92-3.53,7.33-3.53a5.38,5.38,0,0,1,3.76,1.47,7,7,0,0,1,1.7,5.1V47.86c0,.4.22.67,1.83.85l1,.14L466,50.5Z"/><path class="cls-1" d="M477.21,51.17c-5.27,0-9.16-4.25-9.16-10.06,0-6.61,4.65-11.44,10.64-11.44,4.29,0,7.29,2.64,7.29,6.84a11.8,11.8,0,0,1-.27,2.46l-13-.18v.49c0,5,2.77,8.36,6.61,8.36a7.26,7.26,0,0,0,5.55-2.59l.94.53A9,9,0,0,1,477.21,51.17Zm.59-19.67c-2.33,0-4.56,2-5,5.81l8.49,0C481.46,33.65,480,31.5,477.8,31.5Z"/><path class="cls-1" d="M502,50.5l.13-1.65,1-.14c1.3-.09,1.52-.4,1.52-.85v-9c0-4.42-1.38-5.63-4-5.63a7.6,7.6,0,0,0-4.42,1.65V47.91c0,.44.27.71,1.7.8l1.34.14.13,1.65H488.92l.14-1.65,1.16-.14c1.07-.09,1.52-.31,1.52-.85v-11c0-2.82-.36-3.22-1.92-3.67l-1-.22.05-1.3,7.33-2v3.26h.22c2.37-1.92,4.79-3.26,7.24-3.26a5.35,5.35,0,0,1,3.71,1.47c1.21,1.21,1.7,2.86,1.7,5.1V47.86c0,.4.23.67,1.84.85l1.07.14.13,1.65Z"/><path class="cls-1" d="M521.78,51.17c-3.22,0-5.59-1.92-5.5-6.44l.27-11.62L513,32.84l0-1.47,6.08-5.28,1.79.27,0,4.11h7.29l-.32,2.46h-7l-.27,10.55c-.09,3.35,1.48,4.43,3.76,4.43a8.54,8.54,0,0,0,3.75-1l.18,1.2A9,9,0,0,1,521.78,51.17Z"/><path class="cls-1" d="M308,88.38l-2.59-.49a23.06,23.06,0,0,1-7.06,1.16c-8.94,0-15.74-5-15.74-14.31s6.93-14.93,15.87-14.93a21.52,21.52,0,0,1,6.44,1L308.8,60v9.52h-2.59l-1.52-6.08a11.44,11.44,0,0,0-6.13-1.6c-6.34,0-10.28,5.14-10.28,12.29,0,7.78,3.8,13,10.64,13a11.34,11.34,0,0,0,5.23-1.26l2.1-6.39H309Z"/><path class="cls-1" d="M323.28,89.05c-6.21,0-10-4.74-10-10.64a10.79,10.79,0,0,1,10.9-10.86c6.13,0,10,4.6,10,10.28A10.94,10.94,0,0,1,323.28,89.05ZM327,71a4.61,4.61,0,0,0-3.44-1.52c-3,0-5.37,2.86-5.37,7.65,0,3.62.63,6.79,2.24,8.49a4.89,4.89,0,0,0,3.49,1.48c2.95,0,5.32-2.91,5.32-7.65C329.23,75.91,328.56,72.64,327,71Z"/><path class="cls-1" d="M350,88.38l.14-1.66,1-.13c1.3-.09,1.52-.4,1.52-.85v-9c0-4.42-1.38-5.63-4-5.63a7.57,7.57,0,0,0-4.42,1.65V85.79c0,.44.27.71,1.7.8l1.34.13.13,1.66H336.91l.14-1.66,1.16-.13c1.07-.09,1.52-.31,1.52-.85v-11c0-2.81-.36-3.21-1.92-3.66l-1-.23.05-1.29,7.33-2v3.26h.22c2.37-1.92,4.78-3.26,7.24-3.26A5.35,5.35,0,0,1,355.37,69c1.21,1.21,1.7,2.86,1.7,5.1V85.74c0,.4.23.67,1.83.85l1.08.13.13,1.66Z"/><path class="cls-1" d="M369.41,89.05a19.11,19.11,0,0,1-6.48-1l-.23-5.9h2.64l1.07,4a6.49,6.49,0,0,0,3.44,1.12c2,0,4-1.3,4-3.36s-2.42-2.86-5-3.8c-3.13-1.2-6.08-2.5-6.08-6.43,0-3.22,2.72-6.13,7.55-6.13a13.57,13.57,0,0,1,4.65.76l1.65-.58.27,6.53h-2.5l-1.07-3.85a6,6,0,0,0-3.27-1c-2,0-3.44,1.16-3.44,2.82,0,2,1.7,2.68,4.74,3.84s6.26,2.55,6.26,6.44C377.68,86,374.73,89.05,369.41,89.05Z"/><path class="cls-1" d="M403.24,88.2l-7.55.85V85.79h-.22c-2.42,1.92-4.83,3.26-7.29,3.26a5.32,5.32,0,0,1-3.71-1.48c-1.21-1.2-1.7-2.86-1.7-5.09l.09-11.63c0-.71-.31-.62-1.92-.84l-1-.14-.13-1.65h7.69l-.27,11.71c0,4.38,1.39,5.59,4,5.59a8.14,8.14,0,0,0,4.47-1.61V70.81c0-.45-.27-.67-1.7-.8l-1.52-.14-.18-1.65h7.82V84.89c0,.67.18,1.16.63,1.3l2.64.8Z"/><path class="cls-1" d="M405,88.38l.14-1.66,1.16-.13c1.07-.09,1.52-.31,1.52-.85V63.08c0-.67-.18-1.08-.63-1.3l-2.63-1.16.13-1.21,7.6-2.19V85.79c0,.44.27.71,1.7.8l1.12.13.13,1.66Z"/><path class="cls-1" d="M425.41,89.05c-3.22,0-5.59-1.92-5.5-6.44L420.18,71l-3.53-.27,0-1.47L422.77,64l1.79.27,0,4.11h7.28l-.31,2.46h-7l-.27,10.55c-.09,3.35,1.47,4.43,3.75,4.43a8.54,8.54,0,0,0,3.76-1l.18,1.2A9,9,0,0,1,425.41,89.05Z"/><path class="cls-1" d="M434,88.38l.14-1.66,1.11-.13c1.08-.09,1.52-.31,1.52-.85v-11c0-2.81-.31-3.21-1.92-3.66l-.94-.23.05-1.29,7.28-2V85.79c0,.44.27.71,1.7.8l1.12.13.13,1.66ZM438.6,64.1a3,3,0,1,1,2.81-3A2.79,2.79,0,0,1,438.6,64.1Z"/><path class="cls-1" d="M459.65,88.38l.13-1.66,1-.13c1.29-.09,1.52-.4,1.52-.85v-9c0-4.42-1.39-5.63-4-5.63a7.63,7.63,0,0,0-4.43,1.65V85.79c0,.44.27.71,1.7.8l1.34.13.14,1.66H446.6l.13-1.66,1.16-.13c1.08-.09,1.52-.31,1.52-.85v-11c0-2.81-.36-3.21-1.92-3.66l-1-.23,0-1.29,7.33-2v3.26h.23c2.37-1.92,4.78-3.26,7.24-3.26A5.39,5.39,0,0,1,465.06,69a6.81,6.81,0,0,1,1.7,5.1V85.74c0,.4.22.67,1.83.85l1.07.13.14,1.66Z"/><path class="cls-1" d="M487.5,71.17v.22a5.57,5.57,0,0,1,1,3.22c0,4.25-3.48,7.46-8.36,7.46a12.08,12.08,0,0,1-2.63-.31c-.58.27-1.61,1.12-1.61,1.92,0,1.21,1.12,2,2.86,2s3.89-.14,5.41-.14a6.25,6.25,0,0,1,6.57,6.13c0,4.69-4.83,8.31-11.89,8.31-4.87,0-8.09-2.06-8.09-5.23,0-2.73,1.92-4.16,4.33-5.1V89.5A3.86,3.86,0,0,1,472,85.92c0-1.83,1.65-3.62,3.84-4.43,0-.22.14-.22.14-.22a6.37,6.37,0,0,1-4-6.21c0-4.12,3.22-7.51,8.36-7.51a12.49,12.49,0,0,1,5.5,1.29h6.3L492.14,72ZM483,89.9c-1.47-.14-3.12,0-6.07,0a4.17,4.17,0,0,0-2.28,3.57c0,2.73,2.5,4.61,6.3,4.61,3.53,0,6-2,6-4.52C487,91.46,485.93,90.12,483,89.9Zm-.35-19.67a3.3,3.3,0,0,0-2.33-1c-2.28,0-3.84,1.92-3.84,5.18a7.11,7.11,0,0,0,1.7,5.1,3.09,3.09,0,0,0,2.05.89,3.59,3.59,0,0,0,2.55-.89c.9-.85,1.34-2.37,1.34-4.56A6.63,6.63,0,0,0,482.67,70.23Z"/><path class="cls-1" d="M523.74,69.2l-.93-4c-.81-2.68-1.52-2.86-9.26-2.86H512.3V73.67h1.52c2.95,0,3.85-.13,4.25-1.21l1.07-3h2l-1,10.24H518.2l-.4-2.86c-.13-1-.58-1.25-4.11-1.25H512.3V85.74c0,.45.31.63,1.61.76l2.59.22.14,1.66H503.81l.13-1.66,1.75-.22c1.11-.13,1.56-.4,1.56-.8V63.08c0-.41-.27-.58-1.65-.76l-1.66-.23-.13-1.65h22.57V69.2Z"/><path class="cls-1" d="M529.46,88.38l.14-1.66,1.11-.13c1.08-.09,1.52-.31,1.52-.85v-11c0-2.81-.31-3.21-1.92-3.66l-.94-.23,0-1.29,7.28-2V85.79c0,.44.27.71,1.7.8l1.12.13.13,1.66Zm4.61-24.28a3,3,0,1,1,2.81-3A2.79,2.79,0,0,1,534.07,64.1Z"/><path class="cls-1" d="M556.06,73.09a3,3,0,0,1-2.55-1.61,12.21,12.21,0,0,0-4.16,4.43v9.88c0,.44.27.71,1.7.8l1.61.13.14,1.66H542.07l.13-1.66,1.16-.13c1.08-.09,1.52-.31,1.52-.85v-11c0-2.81-.35-3.21-1.92-3.66l-1-.23,0-1.29,7.33-2v5.67h.23c2.23-3.71,3.8-5.67,6-5.67a2.69,2.69,0,0,1,2.91,2.86A2.43,2.43,0,0,1,556.06,73.09Z"/><path class="cls-1" d="M585.07,88.38l.13-1.66,1-.13c1.3-.09,1.52-.4,1.52-.85v-9c0-4.42-1.7-5.63-4-5.63a6.75,6.75,0,0,0-4.11,1.79,11.65,11.65,0,0,1,0,1.25V85.74c0,.4.23.67,1.84.85l1,.13.13,1.66h-10.1l.18-1.66,1-.13c1.3-.09,1.52-.4,1.52-.85v-9c0-4.42-1.7-5.63-4-5.63a7.2,7.2,0,0,0-4.06,1.65V85.79c0,.44.26.71,1.7.8l1.25.13.13,1.66H559.9l.13-1.66,1.17-.13c1.07-.09,1.52-.31,1.52-.85v-11c0-2.81-.36-3.21-1.93-3.66l-1-.23.05-1.29,7.33-2v3.26h.13c2.33-2,4.6-3.26,6.93-3.26A5.38,5.38,0,0,1,578,69a5.61,5.61,0,0,1,1.26,2.06h.17c2.42-2.24,4.92-3.53,7.34-3.53A5.38,5.38,0,0,1,590.52,69a7,7,0,0,1,1.7,5.1V85.74c0,.4.22.67,1.83.85l1,.13.13,1.66Z"/></svg>