<svg id="Layer_1" data-name="Layer 1" xmlns="http://www.w3.org/2000/svg" viewBox="0 0 612.17 100"><defs><style>.cls-1{fill:#002b49;}.cls-2{fill:#ff6f00;}</style></defs><path class="cls-1" d="M6.88,82.53h2.2L15,96.1H12.5l-1.36-3.25H4.76L3.38,96.1H1Zm3.39,8.22L7.94,85.36,5.63,90.75Z"/><path class="cls-1" d="M17.32,82.62h5c4.24,0,7.16,2.91,7.16,6.7v0c0,3.79-2.92,6.74-7.16,6.74h-5Zm2.37,2.16v9.16h2.65A4.39,4.39,0,0,0,27,89.4v0a4.42,4.42,0,0,0-4.68-4.58Z"/><path class="cls-1" d="M30.35,82.62H33L37,93l4-10.36h2.56L38.05,96.2H35.94Z"/><path class="cls-1" d="M48.8,82.53H51L56.92,96.1h-2.5l-1.37-3.25H46.68L45.3,96.1H42.87Zm3.39,8.22-2.33-5.39-2.31,5.39Z"/><path class="cls-1" d="M59.24,82.62h2.19l7.22,9.32V82.62H71V96.1H69l-7.43-9.59V96.1H59.24Z"/><path class="cls-1" d="M73.85,89.4v0a6.82,6.82,0,0,1,6.93-7,7,7,0,0,1,5.29,2.1l-1.52,1.75a5.36,5.36,0,0,0-3.79-1.65,4.52,4.52,0,0,0-4.43,4.73v0a4.55,4.55,0,0,0,4.45,4.78,5.27,5.27,0,0,0,3.87-1.74l1.52,1.54a7,7,0,0,1-5.47,2.39A6.77,6.77,0,0,1,73.85,89.4Z"/><path class="cls-1" d="M88.67,82.62h10v2.12H91v3.5H97.8v2.14H91V94h7.72V96.1H88.67Z"/><path class="cls-1" d="M101.58,82.62h5c4.23,0,7.16,2.91,7.16,6.7v0c0,3.79-2.93,6.74-7.16,6.74h-5Zm2.36,2.16v9.16h2.66a4.39,4.39,0,0,0,4.68-4.54v0a4.42,4.42,0,0,0-4.68-4.58Z"/><path class="cls-1" d="M122.41,82.62h5.31c3.16,0,5.12,1.79,5.12,4.51v0c0,3-2.42,4.6-5.39,4.6h-2.67V96.1h-2.37Zm5.12,7c1.79,0,2.91-1,2.91-2.41v0c0-1.58-1.14-2.41-2.91-2.41h-2.75v4.85Z"/><path class="cls-1" d="M135.27,82.62h6A5.43,5.43,0,0,1,145.17,84a4.07,4.07,0,0,1,1.11,2.91v0A4.05,4.05,0,0,1,143.09,91l3.63,5.1h-2.81l-3.31-4.7h-3v4.7h-2.37Zm5.83,6.68c1.7,0,2.77-.88,2.77-2.25v0c0-1.44-1-2.23-2.79-2.23h-3.44V89.3Z"/><path class="cls-1" d="M148.59,89.4v0a6.91,6.91,0,0,1,7.07-7,6.84,6.84,0,0,1,7,6.93v0a7,7,0,0,1-14.09,0Zm11.61,0v0a4.59,4.59,0,0,0-4.58-4.77,4.53,4.53,0,0,0-4.54,4.73v0a4.6,4.6,0,0,0,4.58,4.78A4.54,4.54,0,0,0,160.2,89.4Z"/><path class="cls-1" d="M165,89.4v0a6.87,6.87,0,0,1,6.95-7,7.3,7.3,0,0,1,5.18,1.83L175.59,86a5.38,5.38,0,0,0-3.78-1.42,4.54,4.54,0,0,0-4.37,4.73v0A4.5,4.5,0,0,0,172,94.17a5.48,5.48,0,0,0,3.26-1v-2.5h-3.45V88.57h5.74v5.66a8.59,8.59,0,0,1-5.62,2.1A6.68,6.68,0,0,1,165,89.4Z"/><path class="cls-1" d="M180.65,82.62h6A5.43,5.43,0,0,1,190.55,84a4.07,4.07,0,0,1,1.11,2.91v0A4.05,4.05,0,0,1,188.47,91l3.64,5.1H189.3L186,91.4h-3v4.7h-2.37Zm5.83,6.68c1.7,0,2.78-.88,2.78-2.25v0c0-1.44-1-2.23-2.79-2.23H183V89.3Z"/><path class="cls-1" d="M199.35,82.53h2.19l5.93,13.57H205l-1.37-3.25h-6.37l-1.39,3.25h-2.42Zm3.38,8.22-2.32-5.39-2.31,5.39Z"/><path class="cls-1" d="M209.78,82.62h2.52L216.41,89l4.1-6.38H223V96.1h-2.37V86.44l-4.25,6.35h-.08l-4.22-6.32V96.1h-2.33Z"/><path class="cls-1" d="M225.59,94.14l1.43-1.7a6.2,6.2,0,0,0,4.25,1.75c1.46,0,2.39-.69,2.39-1.69v0c0-1-.54-1.48-3-2.06-2.87-.69-4.49-1.54-4.49-4v0c0-2.31,1.93-3.91,4.6-3.91a7.47,7.47,0,0,1,4.89,1.7l-1.27,1.79a6.1,6.1,0,0,0-3.66-1.39c-1.38,0-2.19.71-2.19,1.6v0c0,1,.61,1.5,3.21,2.11,2.85.7,4.31,1.72,4.31,4v0c0,2.52-2,4-4.81,4A8.31,8.31,0,0,1,225.59,94.14Z"/><rect class="cls-1" x="273.21" y="12.08" width="1.1" height="83.99"/><path class="cls-1" d="M0,26.3v-.09A15.56,15.56,0,0,1,16,10.37c5.78,0,9.24,1.92,12.08,4.72L23.76,20c-2.36-2.15-4.77-3.46-7.83-3.46-5.16,0-8.88,4.29-8.88,9.54v.09c0,5.25,3.63,9.63,8.88,9.63,3.5,0,5.65-1.4,8.05-3.59l4.29,4.33a15.65,15.65,0,0,1-12.56,5.47A15.47,15.47,0,0,1,0,26.3Z"/><path class="cls-1" d="M33.66,10.89H40.4V23H52.83V10.89h6.74V41.53H52.83V29.23H40.4v12.3H33.66Z"/><path class="cls-1" d="M66.92,10.89H90v6H73.62V23.1H88.06v6H73.62v6.43H90.25v6H66.92Z"/><path class="cls-1" d="M96.25,10.89h23.11v6H103V23.1h14.44v6H103v6.43h16.63v6H96.25Z"/><path class="cls-1" d="M125.58,10.89h6.74V24.28l12.34-13.39h8.27l-12.52,13,13,17.64h-8.09l-9.5-13-3.54,3.67v9.37h-6.74Z"/><path class="cls-1" d="M167,29.45,155.17,10.89h7.88l7.31,12.3,7.44-12.3h7.66L173.69,29.32V41.53H167Z"/><path class="cls-1" d="M.39,72l3.76-4.49A13.26,13.26,0,0,0,12.77,71c2.6,0,4.17-1,4.17-2.72v-.08c0-1.61-1-2.44-5.82-3.67C5.3,63,1.55,61.41,1.55,55.68V55.6c0-5.24,4.21-8.71,10.11-8.71a16.72,16.72,0,0,1,10.72,3.67l-3.3,4.79C16.52,53.57,14,52.5,11.57,52.5S7.86,53.62,7.86,55v.08c0,1.9,1.24,2.52,6.23,3.8,5.86,1.52,9.16,3.63,9.16,8.66v.08c0,5.74-4.37,9-10.6,9A18.37,18.37,0,0,1,.39,72Z"/><path class="cls-1" d="M27.5,61.83v-.09a14.67,14.67,0,0,1,15-14.93c5.45,0,8.71,1.81,11.39,4.45l-4,4.67c-2.23-2-4.5-3.26-7.39-3.26-4.87,0-8.37,4-8.37,9v.08c0,4.95,3.42,9.08,8.37,9.08,3.3,0,5.32-1.32,7.59-3.38l4,4.08a14.75,14.75,0,0,1-11.84,5.16A14.58,14.58,0,0,1,27.5,61.83Z"/><path class="cls-1" d="M59.51,47.3h6.35V76.18H59.51Z"/><path class="cls-1" d="M73.08,47.3H94.86V53H79.39v5.86H93v5.66H79.39v6.06H95.07v5.65h-22Z"/><path class="cls-1" d="M100.72,47.3h5.86l13.53,17.78V47.3h6.27V76.18H121L107,57.82V76.18h-6.27Z"/><path class="cls-1" d="M140,53.16h-8.78V47.3h23.92v5.86h-8.78v23H140Z"/><path class="cls-1" d="M160.33,47.3h6.35V76.18h-6.35Z"/><path class="cls-1" d="M171.92,72l3.76-4.49A13.26,13.26,0,0,0,184.3,71c2.6,0,4.17-1,4.17-2.72v-.08c0-1.61-1-2.44-5.82-3.67-5.82-1.49-9.57-3.1-9.57-8.83V55.6c0-5.24,4.2-8.71,10.1-8.71a16.73,16.73,0,0,1,10.73,3.67l-3.3,4.79c-2.56-1.78-5.07-2.85-7.51-2.85s-3.71,1.12-3.71,2.52v.08c0,1.9,1.24,2.52,6.23,3.8,5.86,1.52,9.16,3.63,9.16,8.66v.08c0,5.74-4.38,9-10.61,9A18.36,18.36,0,0,1,171.92,72Z"/><path class="cls-1" d="M206.41,53.16h-8.79V47.3h23.93v5.86h-8.79v23h-6.35Z"/><path class="cls-2" d="M265.7,30.36a13.86,13.86,0,0,0-5-10.69A16.56,16.56,0,0,0,247.85,7.51a13.86,13.86,0,0,0-20.33-4.84,15.71,15.71,0,0,0-21,3.13,14.38,14.38,0,0,0-16.52,14.28,14.44,14.44,0,0,0,12.77,14.33,15.63,15.63,0,0,0,8.53,8.32c3.54,1.42,9.15,2.62,17-3.48l.09-.08c5.8-5,9.73-6.22,14-4.48a9.53,9.53,0,0,1,6.15,7.16c.64,3.78-.28,9.23-2.34,13.88a43.3,43.3,0,0,1-3.68,6.57C239.68,49.08,228.91,42.36,228.39,42l-2.7,4.41A28.87,28.87,0,0,1,232,52.27,26,26,0,0,1,238.16,69v7.14l4.57-5.49A55.07,55.07,0,0,0,251,57.83a34.53,34.53,0,0,0,3-13.76A13.9,13.9,0,0,0,265.7,30.36ZM235.57,5.26a8.73,8.73,0,0,1,5.85,2.24c-6.39,1.33-10,6.62-12.71,11.83h0a8.71,8.71,0,0,1,6.87-14.08Zm-16.82-.09a10.49,10.49,0,0,1,5.13,1.33,13.85,13.85,0,0,0,1.66,17.06,9.14,9.14,0,0,1-6.79,2.73,10.56,10.56,0,0,1,0-21.12ZM195.21,20.08a9.27,9.27,0,0,1,8.6-9.24,15.67,15.67,0,0,0-.13,9.35,15.35,15.35,0,0,0-1,2.07,15.86,15.86,0,0,0-1.13,6.6A9.29,9.29,0,0,1,195.21,20.08Zm29.91,15.13c-4.52,3.51-8,4.29-11.83,2.73A10.58,10.58,0,0,1,206.89,26a15.68,15.68,0,0,0,11.86,5.42c3.82,0,9.47-1,14.46-9.58l0-.11c3.52-6.77,6.7-9.41,11.34-9.41a11.49,11.49,0,0,1,8.85,4.23,14.7,14.7,0,0,0-1.63-.1,13.79,13.79,0,0,0-12.45,7.75A13.44,13.44,0,0,0,238,28.8C233.05,29.11,228.79,32.07,225.12,35.21ZM253.21,39a15,15,0,0,0-8.81-9.07c-.42-.17-.83-.32-1.25-.45a8.73,8.73,0,0,1,8.67-7.8A8.72,8.72,0,0,1,253.21,39Z"/><path class="cls-1" d="M307.64,50.22l.13-1.66,2.43-.31c.86-.14,1.13-1.71.9-8.68L310.61,25h-.36l-8.41,24.32h-3.06l-7.95-23.42h-.54l-.63,13.48c-.36,8-.31,8.72.58,8.86l2.52.31.14,1.66h-9.8l.13-1.66,2.43-.31c.9-.14,1.39-.63,1.84-8.86l.59-11.6c.13-2.06-.54-3.19-1.85-3.5l-2.51-.45-.14-1.71h11.24l6.92,20.41h.32l6.83-20.41h11l-.14,1.71-3,.22a1.23,1.23,0,0,0-1,1.35l.45,14.16c.18,7.37.58,8.54,1.48,8.68l2.39.31.13,1.66Z"/><path class="cls-1" d="M337.8,51c-1.76,0-3.15-1.08-3.28-3.55h-.23c-1.62,1.93-3.37,3.46-5.71,3.46a5.31,5.31,0,0,1-5.48-5.26c0-3.73,3.64-5.89,11.42-7.78v-.4c0-4.41-1.67-5.8-4.41-5.8-1.48,0-3.19.58-3.19.94S328,33.64,328,35a2.38,2.38,0,0,1-2.52,2.24A2.32,2.32,0,0,1,323,35c0-2.43,5.13-5.71,9.26-5.71,5.08,0,7.06,2.11,6.79,9.08l-.31,7.5c-.09,1.26.27,1.85,1,1.85a4.21,4.21,0,0,0,2.16-1.08l.76,1.08C341.26,49.55,339.5,51,337.8,51Zm-3.37-11.55c-5.62,1.43-6.93,3.19-6.93,5.08a3,3,0,0,0,3.1,3.14,5.53,5.53,0,0,0,3.65-1.8Z"/><path class="cls-1" d="M357,50.22l.14-1.66,1-.13c1.3-.09,1.52-.41,1.52-.86V38.49c0-4.45-1.39-5.66-4-5.66a7.63,7.63,0,0,0-4.45,1.66V47.62c0,.45.27.72,1.71.81l1.35.13.14,1.66H343.91l.13-1.66,1.17-.13c1.08-.09,1.53-.32,1.53-.86V36.51c0-2.83-.36-3.23-1.93-3.68l-1-.23,0-1.3,7.37-2v3.28h.23c2.38-1.93,4.81-3.28,7.28-3.28a5.38,5.38,0,0,1,3.73,1.48c1.22,1.21,1.71,2.88,1.71,5.13V47.57c0,.41.22.68,1.84.86l1.08.13.14,1.66Z"/><path class="cls-1" d="M384,51c-1.75,0-3.14-1.08-3.28-3.55h-.22c-1.62,1.93-3.37,3.46-5.71,3.46a5.31,5.31,0,0,1-5.48-5.26c0-3.73,3.64-5.89,11.41-7.78v-.4c.05-4.41-1.66-5.8-4.4-5.8-1.48,0-3.19.58-3.19.94s1.08,1,1.08,2.39a2.38,2.38,0,0,1-2.52,2.24A2.32,2.32,0,0,1,369.21,35c0-2.43,5.13-5.71,9.26-5.71,5.08,0,7.06,2.11,6.79,9.08l-.32,7.5c-.09,1.26.27,1.85,1,1.85a4.21,4.21,0,0,0,2.16-1.08l.76,1.08C387.51,49.55,385.75,51,384,51Zm-3.37-11.55c-5.61,1.43-6.92,3.19-6.92,5.08a3,3,0,0,0,3.1,3.14,5.49,5.49,0,0,0,3.64-1.8Z"/><path class="cls-1" d="M406.11,32.92v.22a5.55,5.55,0,0,1,1,3.24c0,4.27-3.51,7.51-8.41,7.51a12.17,12.17,0,0,1-2.65-.32c-.59.27-1.62,1.13-1.62,1.93,0,1.22,1.12,2,2.88,2s3.91-.14,5.44-.14a6.27,6.27,0,0,1,6.6,6.16c0,4.72-4.85,8.36-11.95,8.36-4.9,0-8.14-2.07-8.14-5.26,0-2.74,1.93-4.18,4.36-5.12v-.18a3.88,3.88,0,0,1-3.1-3.6c0-1.84,1.66-3.64,3.87-4.45,0-.22.13-.22.13-.22a6.42,6.42,0,0,1-4-6.25c0-4.14,3.24-7.55,8.41-7.55a12.55,12.55,0,0,1,5.52,1.3h6.34l0,3.15Zm-4.49,18.83c-1.49-.13-3.15,0-6.12,0a4.24,4.24,0,0,0-2.29,3.6c0,2.74,2.52,4.63,6.34,4.63,3.55,0,6-2,6-4.54C405.57,53.33,404.54,52,401.62,51.75ZM401.26,32a3.39,3.39,0,0,0-2.34-1c-2.29,0-3.86,1.93-3.86,5.21a7.13,7.13,0,0,0,1.7,5.12,3.12,3.12,0,0,0,2.07.9,3.6,3.6,0,0,0,2.56-.9c.9-.85,1.35-2.38,1.35-4.58A6.67,6.67,0,0,0,401.26,32Z"/><path class="cls-1" d="M421.26,50.9C416,50.9,412,46.63,412,40.78c0-6.65,4.68-11.5,10.7-11.5,4.32,0,7.33,2.65,7.33,6.88a12,12,0,0,1-.27,2.47l-13.08-.18v.49c0,5,2.79,8.41,6.65,8.41a7.24,7.24,0,0,0,5.57-2.61l.95.54A9,9,0,0,1,421.26,50.9Zm.58-19.78c-2.33,0-4.58,2-5,5.84l8.54,0C425.53,33.28,424.09,31.12,421.84,31.12Z"/><path class="cls-1" d="M458.34,50.22l.13-1.66,1-.13c1.3-.09,1.53-.41,1.53-.86V38.49c0-4.45-1.71-5.66-4-5.66a6.76,6.76,0,0,0-4.13,1.8,11.85,11.85,0,0,1,0,1.26V47.57c0,.41.23.68,1.85.86l1,.13.13,1.66H445.75l.18-1.66,1-.13c1.3-.09,1.53-.41,1.53-.86V38.49c0-4.45-1.71-5.66-4-5.66a7.23,7.23,0,0,0-4.09,1.66V47.62c0,.45.27.72,1.71.81l1.26.13.13,1.66H433l.14-1.66,1.17-.13c1.07-.09,1.52-.32,1.52-.86V36.51c0-2.83-.36-3.23-1.93-3.68l-1-.23.05-1.3,7.37-2v3.28h.13c2.34-2,4.63-3.28,7-3.28a5.41,5.41,0,0,1,3.78,1.48,5.58,5.58,0,0,1,1.25,2.07h.18c2.43-2.25,4.95-3.55,7.38-3.55a5.41,5.41,0,0,1,3.77,1.48,7,7,0,0,1,1.71,5.13V47.57c0,.41.23.68,1.84.86l1,.13.13,1.66Z"/><path class="cls-1" d="M479.86,50.9c-5.3,0-9.21-4.27-9.21-10.12,0-6.65,4.67-11.5,10.7-11.5,4.31,0,7.32,2.65,7.32,6.88a12.65,12.65,0,0,1-.26,2.47l-13.09-.18v.49c.05,5,2.79,8.41,6.66,8.41a7.26,7.26,0,0,0,5.57-2.61l.94.54A9,9,0,0,1,479.86,50.9Zm.59-19.78c-2.34,0-4.59,2-5,5.84l8.55,0C484.13,33.28,482.7,31.12,480.45,31.12Z"/><path class="cls-1" d="M504.76,50.22l.14-1.66,1-.13c1.3-.09,1.53-.41,1.53-.86V38.49c0-4.45-1.4-5.66-4-5.66A7.57,7.57,0,0,0,499,34.49V47.62c0,.45.26.72,1.7.81l1.35.13.14,1.66H491.64l.13-1.66,1.17-.13c1.08-.09,1.53-.32,1.53-.86V36.51c0-2.83-.36-3.23-1.93-3.68l-1-.23,0-1.3,7.38-2v3.28h.22c2.38-1.93,4.81-3.28,7.28-3.28a5.38,5.38,0,0,1,3.73,1.48c1.22,1.21,1.71,2.88,1.71,5.13V47.57c0,.41.22.68,1.84.86l1.08.13.14,1.66Z"/><path class="cls-1" d="M524.67,50.9c-3.23,0-5.62-1.93-5.53-6.47l.27-11.69-3.55-.27,0-1.48L522,25.68l1.8.27-.05,4.14h7.33l-.31,2.47h-7l-.26,10.61c-.09,3.37,1.48,4.45,3.77,4.45a8.54,8.54,0,0,0,3.78-1l.18,1.22A9.13,9.13,0,0,1,524.67,50.9Z"/><path class="cls-1" d="M309.43,88.31l-2.6-.49A23.27,23.27,0,0,1,299.72,89c-9,0-15.82-5.08-15.82-14.39s7-15,16-15a21.7,21.7,0,0,1,6.47,1l3.87-.81v9.57h-2.61l-1.53-6.11a11.44,11.44,0,0,0-6.16-1.62c-6.38,0-10.33,5.17-10.33,12.36,0,7.83,3.82,13.08,10.69,13.08a11.59,11.59,0,0,0,5.26-1.25l2.11-6.43h2.75Z"/><path class="cls-1" d="M324.76,89c-6.25,0-10.07-4.77-10.07-10.7a10.86,10.86,0,0,1,11-10.92c6.15,0,10.06,4.63,10.06,10.34A11,11,0,0,1,324.76,89Zm3.73-18.12A4.66,4.66,0,0,0,325,69.34c-3.06,0-5.4,2.88-5.4,7.69,0,3.64.63,6.83,2.25,8.54a4.93,4.93,0,0,0,3.51,1.48c3,0,5.35-2.92,5.35-7.68C330.74,75.77,330.06,72.49,328.49,70.87Z"/><path class="cls-1" d="M351.59,88.31l.13-1.66,1-.14c1.31-.09,1.53-.4,1.53-.85V76.58c0-4.45-1.39-5.66-4-5.66a7.6,7.6,0,0,0-4.45,1.66V85.71c0,.45.27.71,1.71.8l1.35.14.13,1.66H338.46l.14-1.66,1.17-.14c1.08-.09,1.53-.31,1.53-.85V74.6c0-2.83-.36-3.23-1.94-3.68l-1-.23.05-1.3,7.37-2v3.28H346c2.38-1.93,4.81-3.28,7.28-3.28A5.38,5.38,0,0,1,357,68.85,6.82,6.82,0,0,1,358.74,74V85.66c0,.41.22.67,1.84.85l1.08.14.13,1.66Z"/><path class="cls-1" d="M371.14,89a19.14,19.14,0,0,1-6.52-1L364.4,82h2.65l1.08,4a6.44,6.44,0,0,0,3.46,1.12c2,0,4-1.3,4-3.37s-2.42-2.87-5-3.82c-3.15-1.21-6.12-2.51-6.12-6.47,0-3.24,2.74-6.16,7.6-6.16a13.43,13.43,0,0,1,4.67.77l1.67-.59.27,6.56h-2.52l-1.08-3.86a6,6,0,0,0-3.28-1c-2,0-3.46,1.17-3.46,2.83,0,2,1.71,2.7,4.76,3.87s6.3,2.56,6.3,6.47C379.46,85.93,376.49,89,371.14,89Z"/><path class="cls-1" d="M405.16,88.13l-7.59.86V85.71h-.23C394.92,87.64,392.49,89,390,89a5.36,5.36,0,0,1-3.73-1.49c-1.22-1.21-1.71-2.87-1.71-5.12l.09-11.69c0-.72-.32-.63-1.94-.85l-1-.14L381.61,68h7.73l-.27,11.78c0,4.4,1.4,5.62,4,5.62a8.24,8.24,0,0,0,4.5-1.62V70.65c0-.45-.27-.68-1.71-.81l-1.53-.14L394.15,68H402V84.81c0,.67.18,1.17.63,1.3l2.65.81Z"/><path class="cls-1" d="M406.92,88.31l.13-1.66,1.17-.14c1.08-.09,1.53-.31,1.53-.85V62.87c0-.67-.18-1.08-.63-1.3l-2.65-1.17.13-1.21L414.24,57V85.71c0,.45.27.71,1.71.8l1.12.14.14,1.66Z"/><path class="cls-1" d="M427.46,89c-3.24,0-5.62-1.94-5.53-6.48l.27-11.68-3.55-.27,0-1.49,6.11-5.3,1.8.27,0,4.14h7.32l-.31,2.47h-7l-.27,10.61c-.09,3.37,1.48,4.45,3.77,4.45a8.54,8.54,0,0,0,3.78-1l.18,1.22A9.13,9.13,0,0,1,427.46,89Z"/><path class="cls-1" d="M436.08,88.31l.14-1.66,1.12-.14c1.08-.09,1.53-.31,1.53-.85V74.6c0-2.83-.31-3.23-1.93-3.68l-.95-.23.05-1.3,7.33-2V85.71c0,.45.27.71,1.7.8l1.13.14.13,1.66Zm4.63-24.4a3,3,0,1,1,2.84-3A2.82,2.82,0,0,1,440.71,63.91Z"/><path class="cls-1" d="M461.88,88.31l.14-1.66,1-.14c1.3-.09,1.53-.4,1.53-.85V76.58c0-4.45-1.4-5.66-4-5.66a7.63,7.63,0,0,0-4.45,1.66V85.71c0,.45.27.71,1.71.8l1.35.14.14,1.66H448.76l.13-1.66,1.17-.14c1.08-.09,1.53-.31,1.53-.85V74.6c0-2.83-.36-3.23-1.93-3.68l-1-.23,0-1.3,7.37-2v3.28h.23c2.38-1.93,4.81-3.28,7.28-3.28a5.38,5.38,0,0,1,3.73,1.48C468.54,70.06,469,71.73,469,74V85.66c0,.41.22.67,1.84.85l1.08.14.14,1.66Z"/><path class="cls-1" d="M489.88,71v.22a5.55,5.55,0,0,1,1,3.24c0,4.27-3.51,7.51-8.41,7.51a12.17,12.17,0,0,1-2.65-.32c-.58.27-1.62,1.12-1.62,1.93,0,1.22,1.13,2,2.88,2s3.91-.14,5.44-.14a6.27,6.27,0,0,1,6.6,6.16c0,4.72-4.85,8.36-12,8.36-4.9,0-8.14-2.07-8.14-5.26,0-2.74,1.94-4.18,4.36-5.12v-.18a3.88,3.88,0,0,1-3.1-3.6c0-1.84,1.66-3.64,3.87-4.45,0-.22.13-.22.13-.22a6.42,6.42,0,0,1-4-6.25c0-4.14,3.24-7.55,8.41-7.55a12.63,12.63,0,0,1,5.53,1.3h6.33l0,3.15Zm-4.49,18.83c-1.48-.13-3.15,0-6.11,0a4.22,4.22,0,0,0-2.3,3.6c0,2.74,2.52,4.63,6.34,4.63,3.55,0,6-2,6-4.54C489.34,91.41,488.31,90.07,485.39,89.84ZM485,70.06a3.34,3.34,0,0,0-2.34-1c-2.29,0-3.86,1.94-3.86,5.22a7.19,7.19,0,0,0,1.7,5.12,3.12,3.12,0,0,0,2.07.9,3.6,3.6,0,0,0,2.56-.9c.9-.85,1.35-2.38,1.35-4.58A6.67,6.67,0,0,0,485,70.06Z"/><path class="cls-1" d="M526.33,69l-.94-4c-.81-2.69-1.53-2.87-9.3-2.87h-1.26V73.52h1.53c3,0,3.86-.13,4.27-1.21l1.07-3.06h2l-1,10.3h-1.93l-.4-2.88c-.14-1-.59-1.26-4.14-1.26h-1.39V85.66c0,.45.31.63,1.62.76l2.6.23.14,1.66h-12.9l.13-1.66,1.76-.23c1.12-.13,1.57-.4,1.57-.8V62.87c0-.4-.27-.58-1.66-.76l-1.67-.23-.13-1.66H529V69Z"/><path class="cls-1" d="M532.08,88.31l.14-1.66,1.12-.14c1.08-.09,1.53-.31,1.53-.85V74.6c0-2.83-.31-3.23-1.93-3.68l-1-.23,0-1.3,7.33-2V85.71c0,.45.27.71,1.7.8l1.13.14.13,1.66Zm4.63-24.4a3,3,0,1,1,2.84-3A2.82,2.82,0,0,1,536.71,63.91Z"/><path class="cls-1" d="M558.83,72.94a3,3,0,0,1-2.56-1.62,12.16,12.16,0,0,0-4.18,4.45v9.94c0,.45.27.71,1.7.8l1.62.14.14,1.66H544.76l.13-1.66,1.17-.14c1.08-.09,1.53-.31,1.53-.85V74.6c0-2.83-.36-3.23-1.93-3.68l-1-.23,0-1.3,7.38-2v5.71h.22c2.25-3.74,3.82-5.71,6.07-5.71a2.7,2.7,0,0,1,2.92,2.87A2.44,2.44,0,0,1,558.83,72.94Z"/><path class="cls-1" d="M588,88.31l.13-1.66,1-.14c1.3-.09,1.52-.4,1.52-.85V76.58c0-4.45-1.7-5.66-4-5.66a6.76,6.76,0,0,0-4.13,1.8,11.75,11.75,0,0,1,0,1.25V85.66c0,.41.23.67,1.85.85l1,.14.13,1.66H575.41l.18-1.66,1-.14c1.3-.09,1.53-.4,1.53-.85V76.58c0-4.45-1.71-5.66-4-5.66A7.2,7.2,0,0,0,570,72.58V85.71c0,.45.27.71,1.71.8l1.25.14.14,1.66H562.69l.14-1.66,1.16-.14c1.08-.09,1.53-.31,1.53-.85V74.6c0-2.83-.36-3.23-1.93-3.68l-1-.23,0-1.3,7.37-2v3.28h.13c2.34-2,4.63-3.28,7-3.28a5.41,5.41,0,0,1,3.78,1.48,5.63,5.63,0,0,1,1.25,2.07h.18c2.43-2.25,4.95-3.55,7.38-3.55a5.41,5.41,0,0,1,3.77,1.48A7,7,0,0,1,595.19,74V85.66c0,.41.22.67,1.84.85l1,.14.13,1.66Z"/><path class="cls-1" d="M217.35,72.19v0a4.44,4.44,0,0,1,4.44-4.43,4.39,4.39,0,0,1,4.42,4.41v0a4.44,4.44,0,0,1-4.44,4.43A4.39,4.39,0,0,1,217.35,72.19Zm8.35,0v0a3.92,3.92,0,1,0-7.84,0v0a3.92,3.92,0,1,0,7.84,0ZM220,69.68h2.09a2,2,0,0,1,1.46.52,1.4,1.4,0,0,1,.39,1v0a1.47,1.47,0,0,1-1,1.46L224,74.4h-1.21l-1-1.52H221V74.4h-1ZM222,72c.53,0,.81-.29.81-.68v0c0-.45-.32-.69-.84-.69h-1V72Z"/><path class="cls-1" d="M603.3,86.92v0a4.44,4.44,0,0,1,4.45-4.43,4.4,4.4,0,0,1,4.42,4.4v0a4.44,4.44,0,0,1-8.87,0Zm8.35,0v0a3.92,3.92,0,1,0-7.83,0v0a3.86,3.86,0,0,0,3.9,3.92A3.9,3.9,0,0,0,611.65,86.9Zm-5.74-2.49H608a2,2,0,0,1,1.46.52,1.38,1.38,0,0,1,.39,1v0a1.46,1.46,0,0,1-1,1.46L610,89.13h-1.22l-1-1.52H607v1.52h-1Zm2.08,2.3c.53,0,.81-.28.81-.67v0c0-.46-.32-.69-.83-.69h-1v1.38Z"/></svg>