<svg id="Layer_1" data-name="Layer 1" xmlns="http://www.w3.org/2000/svg" viewBox="0 0 599.66 100"><defs><style>.cls-1{fill:#002b49;}.cls-2{fill:#ff6f00;}</style></defs><path class="cls-1" d="M6.84,82.07H9l5.89,13.5H12.43l-1.35-3.24H4.74L3.36,95.57H1Zm3.37,8.18L7.9,84.89,5.6,90.25Z"/><path class="cls-1" d="M17.22,82.17h5c4.21,0,7.12,2.89,7.12,6.66v0c0,3.77-2.91,6.7-7.12,6.7h-5Zm2.36,2.14v9.11h2.64a4.36,4.36,0,0,0,4.65-4.51v0a4.4,4.4,0,0,0-4.65-4.56Z"/><path class="cls-1" d="M30.19,82.17h2.6l4,10.3,4-10.3H43.4L37.84,95.66h-2.1Z"/><path class="cls-1" d="M48.53,82.07h2.18l5.9,13.5H54.12l-1.36-3.24H46.42l-1.37,3.24H42.63Zm3.37,8.18-2.32-5.36-2.29,5.36Z"/><path class="cls-1" d="M58.91,82.17h2.18l7.18,9.26V82.17h2.32v13.4h-2L61.23,86v9.53H58.91Z"/><path class="cls-1" d="M73.44,88.91v0a6.77,6.77,0,0,1,6.89-6.93A7,7,0,0,1,85.6,84l-1.51,1.75a5.36,5.36,0,0,0-3.78-1.65,4.49,4.49,0,0,0-4.4,4.71v0a4.52,4.52,0,0,0,4.42,4.75,5.25,5.25,0,0,0,3.85-1.73l1.51,1.53a6.89,6.89,0,0,1-5.43,2.38A6.73,6.73,0,0,1,73.44,88.91Z"/><path class="cls-1" d="M88.19,82.17h9.93v2.1H90.54v3.49h6.72v2.12H90.54v3.58h7.68v2.11h-10Z"/><path class="cls-1" d="M101,82.17h5c4.21,0,7.12,2.89,7.12,6.66v0c0,3.77-2.91,6.7-7.12,6.7h-5Zm2.36,2.14v9.11H106a4.36,4.36,0,0,0,4.65-4.51v0A4.4,4.4,0,0,0,106,84.31Z"/><path class="cls-1" d="M121.73,82.17H127c3.14,0,5.09,1.78,5.09,4.48v0c0,3-2.41,4.57-5.36,4.57h-2.66v4.31h-2.36Zm5.09,7c1.78,0,2.9-1,2.9-2.4v0c0-1.57-1.13-2.39-2.9-2.39h-2.73v4.83Z"/><path class="cls-1" d="M134.52,82.17h6a5.4,5.4,0,0,1,3.86,1.34,4,4,0,0,1,1.11,2.89v0a4,4,0,0,1-3.17,4.06l3.61,5.07h-2.79l-3.29-4.67h-3v4.67h-2.36Zm5.8,6.64c1.69,0,2.76-.88,2.76-2.24v0c0-1.43-1-2.22-2.78-2.22h-3.42v4.5Z"/><path class="cls-1" d="M147.77,88.91v0a7,7,0,0,1,14,0v0a7,7,0,0,1-14,0Zm11.55,0v0a4.58,4.58,0,0,0-4.56-4.75,4.52,4.52,0,0,0-4.52,4.71v0a4.58,4.58,0,0,0,4.56,4.75A4.52,4.52,0,0,0,159.32,88.91Z"/><path class="cls-1" d="M164.05,88.91v0A6.83,6.83,0,0,1,171,81.94a7.22,7.22,0,0,1,5.15,1.82l-1.49,1.78a5.35,5.35,0,0,0-3.76-1.42,4.51,4.51,0,0,0-4.34,4.71v0a4.47,4.47,0,0,0,4.55,4.78,5.48,5.48,0,0,0,3.24-1V90.15h-3.43V88.08h5.71v5.63A8.55,8.55,0,0,1,171,95.8,6.65,6.65,0,0,1,164.05,88.91Z"/><path class="cls-1" d="M179.65,82.17h6a5.4,5.4,0,0,1,3.86,1.34,4,4,0,0,1,1.11,2.89v0a4,4,0,0,1-3.17,4.06L191,95.57h-2.79L185,90.9h-3v4.67h-2.36Zm5.8,6.64c1.69,0,2.76-.88,2.76-2.24v0c0-1.43-1-2.22-2.77-2.22H182v4.5Z"/><path class="cls-1" d="M198.25,82.07h2.18l5.89,13.5h-2.48l-1.36-3.24h-6.34l-1.38,3.24h-2.41Zm3.37,8.18-2.32-5.36L197,90.25Z"/><path class="cls-1" d="M208.62,82.17h2.51l4.08,6.33,4.08-6.33h2.51v13.4h-2.36V86l-4.23,6.32h-.08L210.94,86v9.57h-2.32Z"/><path class="cls-1" d="M224.35,93.62l1.41-1.69A6.21,6.21,0,0,0,230,93.67c1.46,0,2.38-.69,2.38-1.68v0c0-1-.54-1.47-3-2-2.85-.69-4.46-1.53-4.46-4v0c0-2.29,1.92-3.88,4.58-3.88a7.43,7.43,0,0,1,4.86,1.68l-1.26,1.78a6.12,6.12,0,0,0-3.64-1.38c-1.38,0-2.18.71-2.18,1.59v0c0,1,.61,1.49,3.19,2.11,2.84.69,4.29,1.7,4.29,3.92v0c0,2.51-2,4-4.78,4A8.26,8.26,0,0,1,224.35,93.62Z"/><rect class="cls-1" x="271.7" y="12.01" width="1.09" height="83.52"/><path class="cls-1" d="M0,26.15v-.09A15.48,15.48,0,0,1,15.89,10.31c5.74,0,9.18,1.91,12,4.7l-4.27,4.92c-2.35-2.13-4.74-3.44-7.79-3.44C10.71,16.49,7,20.75,7,26v.08c0,5.23,3.61,9.58,8.83,9.58,3.48,0,5.62-1.39,8-3.57l4.27,4.31a15.6,15.6,0,0,1-12.5,5.44A15.38,15.38,0,0,1,0,26.15Z"/><path class="cls-1" d="M33.47,10.83h6.71V22.89H52.54V10.83h6.7V41.3h-6.7V29.07H40.18V41.3H33.47Z"/><path class="cls-1" d="M66.55,10.83h23v6H73.21V23H87.58v6H73.21v6.4H89.75v6H66.55Z"/><path class="cls-1" d="M95.72,10.83h23v6H102.38V23h14.36v6H102.38v6.4h16.54v6H95.72Z"/><path class="cls-1" d="M124.88,10.83h6.71V24.15l12.27-13.32h8.23L139.64,23.76l13,17.54h-8.05l-9.45-13L131.59,32V41.3h-6.71Z"/><path class="cls-1" d="M166,29.29,154.32,10.83h7.83l7.27,12.23,7.4-12.23h7.62L172.73,29.15V41.3H166Z"/><path class="cls-1" d="M.39,71.58,4.12,67.1a13.17,13.17,0,0,0,8.58,3.49c2.58,0,4.14-1,4.14-2.71V67.8c0-1.6-1-2.42-5.78-3.65-5.79-1.48-9.52-3.08-9.52-8.78v-.08c0-5.21,4.18-8.66,10.05-8.66a16.61,16.61,0,0,1,10.67,3.65L19,55c-2.55-1.76-5.05-2.83-7.47-2.83s-3.69,1.11-3.69,2.5v.09c0,1.88,1.23,2.5,6.19,3.77,5.83,1.52,9.11,3.61,9.11,8.62v.08c0,5.7-4.35,8.9-10.54,8.9A18.32,18.32,0,0,1,.39,71.58Z"/><path class="cls-1" d="M27.34,61.48V61.4a14.6,14.6,0,0,1,15-14.85c5.41,0,8.66,1.8,11.32,4.43l-4,4.64c-2.21-2-4.47-3.24-7.34-3.24-4.84,0-8.33,4-8.33,8.94v.08c0,4.93,3.4,9,8.33,9,3.28,0,5.29-1.31,7.55-3.37l4,4.07a14.72,14.72,0,0,1-11.78,5.12A14.5,14.5,0,0,1,27.34,61.48Z"/><path class="cls-1" d="M59.18,47H65.5V75.76H59.18Z"/><path class="cls-1" d="M72.68,47H94.34v5.62H79v5.83H92.49v5.62H79v6H94.54v5.62H72.68Z"/><path class="cls-1" d="M100.16,47H106l13.46,17.69V47h6.23V75.76h-5.37L106.4,57.5V75.76h-6.24Z"/><path class="cls-1" d="M139.26,52.87h-8.74V47h23.8v5.83h-8.74V75.76h-6.32Z"/><path class="cls-1" d="M159.44,47h6.32V75.76h-6.32Z"/><path class="cls-1" d="M171,71.58l3.74-4.48a13.13,13.13,0,0,0,8.57,3.49c2.59,0,4.14-1,4.14-2.71V67.8c0-1.6-1-2.42-5.78-3.65-5.79-1.48-9.52-3.08-9.52-8.78v-.08c0-5.21,4.19-8.66,10-8.66a16.61,16.61,0,0,1,10.67,3.65L189.56,55c-2.55-1.76-5.05-2.83-7.47-2.83s-3.69,1.11-3.69,2.5v.09c0,1.88,1.23,2.5,6.19,3.77,5.83,1.52,9.11,3.61,9.11,8.62v.08c0,5.7-4.35,8.9-10.54,8.9A18.32,18.32,0,0,1,171,71.58Z"/><path class="cls-1" d="M205.27,52.87h-8.74V47h23.8v5.83h-8.74V75.76h-6.32Z"/><path class="cls-2" d="M264.23,30.2a13.79,13.79,0,0,0-5-10.64A16.46,16.46,0,0,0,246.48,7.47a13.77,13.77,0,0,0-20.21-4.81,15.63,15.63,0,0,0-20.84,3.1,14.35,14.35,0,1,0-3.73,28.46,15.5,15.5,0,0,0,8.49,8.27c3.52,1.42,9.1,2.61,16.89-3.46l.09-.07c5.77-4.94,9.68-6.19,14-4.47a9.48,9.48,0,0,1,6.12,7.13c.64,3.76-.28,9.18-2.33,13.8A43.26,43.26,0,0,1,241.26,62c-2.91-13.15-13.61-19.83-14.13-20.15l-2.69,4.38A28.5,28.5,0,0,1,230.73,52a25.79,25.79,0,0,1,6.12,16.68v7.1l4.54-5.46a55,55,0,0,0,8.22-12.79,34.17,34.17,0,0,0,3-13.68A13.82,13.82,0,0,0,264.23,30.2Zm-30-25a8.61,8.61,0,0,1,5.82,2.23c-6.35,1.33-9.94,6.58-12.63,11.76h0a8.66,8.66,0,0,1,6.82-14Zm-16.71-.09a10.5,10.5,0,0,1,5.1,1.32,13.74,13.74,0,0,0,1.65,17,9.12,9.12,0,0,1-6.75,2.71,10.5,10.5,0,1,1,0-21ZM194.14,20a9.22,9.22,0,0,1,8.54-9.19,15.6,15.6,0,0,0-.77,4.86,15.88,15.88,0,0,0,.64,4.44,15.12,15.12,0,0,0-1,2.06,15.52,15.52,0,0,0-1.13,6.56A9.23,9.23,0,0,1,194.14,20ZM223.88,35c-4.5,3.48-7.91,4.27-11.77,2.71a10.49,10.49,0,0,1-6.36-11.84,15.6,15.6,0,0,0,11.8,5.39c3.79,0,9.41-1,14.37-9.53l.06-.11c3.49-6.73,6.65-9.36,11.27-9.36a11.42,11.42,0,0,1,8.8,4.21,14.38,14.38,0,0,0-1.62-.1,13.7,13.7,0,0,0-12.38,7.71,13.49,13.49,0,0,0-1.34,4.55C231.77,29,227.53,31.89,223.88,35Zm27.93,3.73a14.94,14.94,0,0,0-8.76-9c-.42-.17-.83-.31-1.24-.44a8.75,8.75,0,0,1,.84-2.92,8.67,8.67,0,1,1,9.16,12.38Z"/><path class="cls-1" d="M294.23,39.37c-1.12,0-2.28-.09-3.35-.18v8.67c0,.45.31.63,1.61.76l2.41.23L295,50.5H282.38l.14-1.65,1.74-.23c1.12-.13,1.57-.4,1.57-.8V25.2c0-.4-.27-.58-1.66-.76l-1.65-.23-.14-1.65h12c7.42,0,11.22,3.31,11.22,7.6C305.63,36.19,300.35,39.37,294.23,39.37Zm-.27-15h-3.08V37.22a13.32,13.32,0,0,0,3.13.32c3.57,0,6.12-2.51,6.12-6.53S297.81,24.39,294,24.39Z"/><path class="cls-1" d="M320.78,50.5l.13-1.65,1-.14c1.29-.09,1.52-.4,1.52-.85v-9c0-4.42-1.39-5.63-4-5.63A7.86,7.86,0,0,0,315,34.85V47.91c0,.44.27.71,1.7.8l1.38.14.14,1.65H307.73l.13-1.65,1.16-.14c1.07-.09,1.52-.31,1.52-.85V25.2a1.34,1.34,0,0,0-.62-1.3l-2.69-1.16.14-1.21,7.6-2.19V32.93h.22c2.37-1.92,4.83-3.26,7.24-3.26a5.42,5.42,0,0,1,3.76,1.47,7,7,0,0,1,1.7,5.1V47.86c0,.4.22.67,1.83.85l1,.14.13,1.65Z"/><path class="cls-1" d="M344,50.5H333.07l.13-1.65,1.75-.23c1.11-.13,1.56-.4,1.56-.8V25.2c0-.4-.27-.58-1.65-.76l-1.66-.23-.13-1.65,11-.13c10.19-.14,16.71,5.58,16.71,13.41S355,50.5,344,50.5Zm-1-26.15h-1.39V48l3.22.67c6.71,0,10.51-5.18,10.51-11.76C355.29,29.44,351.13,24.35,343,24.35Z"/><path class="cls-1" d="M404.81,24.21l-2.1.45c-1.52.27-1.92.76-1.92,8.9v17.3h-3.18L380.76,27.75h-.27V39.5c0,8.14.32,8.63,1.84,8.9l2.27.45.14,1.65H374.37l.13-1.65,2.1-.45c1.52-.27,1.93-.76,1.93-8.9V28.28c0-2.05-.63-3-1.79-3.57l-2.1-.5-.14-1.65h8.67l15.34,21.19h.27V33.56c0-8.14-.27-8.63-1.84-8.9l-2.28-.45-.13-1.65h10.41Z"/><path class="cls-1" d="M415.85,51.17c-5.28,0-9.17-4.25-9.17-10.06,0-6.61,4.65-11.44,10.64-11.44,4.29,0,7.29,2.64,7.29,6.84a11.8,11.8,0,0,1-.27,2.46l-13-.18v.49c.05,5,2.77,8.36,6.62,8.36a7.24,7.24,0,0,0,5.54-2.59l.94.53A9,9,0,0,1,415.85,51.17Zm.58-19.67c-2.33,0-4.56,2-5,5.81l8.5,0C420.09,33.65,418.66,31.5,416.43,31.5Z"/><path class="cls-1" d="M443.43,33.29v.22a5.57,5.57,0,0,1,1,3.22c0,4.25-3.48,7.47-8.36,7.47a12.06,12.06,0,0,1-2.63-.32c-.58.27-1.61,1.12-1.61,1.93,0,1.2,1.12,2,2.86,2s3.89-.14,5.41-.14a6.25,6.25,0,0,1,6.57,6.13c0,4.69-4.83,8.31-11.89,8.31-4.87,0-8.09-2-8.09-5.23,0-2.73,1.92-4.16,4.33-5.09v-.18A3.86,3.86,0,0,1,428,48c0-1.83,1.65-3.62,3.84-4.43,0-.22.14-.22.14-.22a6.37,6.37,0,0,1-4-6.21c0-4.11,3.22-7.51,8.36-7.51a12.49,12.49,0,0,1,5.5,1.29h6.3l-.05,3.13ZM439,52c-1.47-.14-3.12,0-6.07,0a4.17,4.17,0,0,0-2.28,3.57c0,2.73,2.5,4.61,6.3,4.61,3.53,0,6-2,6-4.52C442.89,53.58,441.86,52.24,439,52Zm-.35-19.67a3.3,3.3,0,0,0-2.33-1c-2.28,0-3.84,1.92-3.84,5.18a7.1,7.1,0,0,0,1.7,5.1,3.09,3.09,0,0,0,2.05.89,3.59,3.59,0,0,0,2.55-.89c.9-.85,1.34-2.37,1.34-4.56A6.63,6.63,0,0,0,438.6,32.35Z"/><path class="cls-1" d="M459.34,51.17c-6.22,0-10-4.74-10-10.64a10.8,10.8,0,0,1,10.91-10.86c6.12,0,10,4.6,10,10.28A10.93,10.93,0,0,1,459.34,51.17Zm3.71-18a4.61,4.61,0,0,0-3.45-1.52c-3,0-5.36,2.86-5.36,7.64,0,3.62.63,6.79,2.23,8.49A4.89,4.89,0,0,0,460,49.25c3,0,5.32-2.91,5.32-7.65C465.28,38,464.61,34.76,463.05,33.16Z"/><path class="cls-1" d="M480.79,51.17c-3.22,0-5.59-1.92-5.5-6.44l.27-11.62L472,32.84l0-1.47,6.08-5.28,1.79.27,0,4.11h7.28l-.31,2.46h-7l-.27,10.55c-.09,3.35,1.47,4.43,3.75,4.43a8.58,8.58,0,0,0,3.76-1l.18,1.2A9.05,9.05,0,0,1,480.79,51.17Z"/><path class="cls-1" d="M489.37,50.5l.13-1.65,1.12-.14c1.08-.09,1.52-.31,1.52-.85v-11c0-2.82-.31-3.22-1.92-3.67l-.94-.22.05-1.3,7.28-2V47.91c0,.44.27.71,1.7.8l1.12.14.13,1.65ZM494,26.23a2.8,2.8,0,0,1-2.81-3,2.82,2.82,0,1,1,5.63,0A2.8,2.8,0,0,1,494,26.23Z"/><path class="cls-1" d="M516.86,51.26c-1.74,0-3.13-1.07-3.26-3.53h-.23c-1.61,1.92-3.35,3.44-5.67,3.44a5.29,5.29,0,0,1-5.46-5.23c0-3.71,3.62-5.86,11.36-7.73V37.8c0-4.38-1.66-5.76-4.38-5.76-1.48,0-3.18.58-3.18.94s1.08,1,1.08,2.37a2.37,2.37,0,0,1-2.51,2.23,2.31,2.31,0,0,1-2.5-2.23c0-2.42,5.09-5.68,9.21-5.68,5.05,0,7,2.1,6.75,9l-.32,7.46c-.08,1.25.27,1.84,1,1.84a4.19,4.19,0,0,0,2.15-1.08l.76,1.08C520.3,49.83,518.56,51.26,516.86,51.26Zm-3.35-11.49c-5.59,1.43-6.89,3.17-6.89,5A3,3,0,0,0,509.71,48a5.47,5.47,0,0,0,3.62-1.79Z"/><path class="cls-1" d="M530.76,51.17c-3.22,0-5.59-1.92-5.5-6.44l.27-11.62L522,32.84l0-1.47,6.08-5.28,1.79.27,0,4.11h7.28l-.31,2.46h-7l-.27,10.55c-.09,3.35,1.47,4.43,3.75,4.43a8.54,8.54,0,0,0,3.76-1l.18,1.2A9.05,9.05,0,0,1,530.76,51.17Z"/><path class="cls-1" d="M539.34,50.5l.13-1.65,1.12-.14c1.08-.09,1.52-.31,1.52-.85v-11c0-2.82-.31-3.22-1.92-3.67l-.94-.22,0-1.3,7.28-2V47.91c0,.44.27.71,1.7.8l1.12.14.13,1.65Zm4.6-24.27a2.8,2.8,0,0,1-2.81-3,2.82,2.82,0,1,1,5.63,0A2.8,2.8,0,0,1,543.94,26.23Z"/><path class="cls-1" d="M562.18,51.17c-6.21,0-10-4.74-10-10.64a10.8,10.8,0,0,1,10.91-10.86c6.12,0,10,4.6,10,10.28A10.94,10.94,0,0,1,562.18,51.17Zm3.71-18a4.57,4.57,0,0,0-3.44-1.52c-3,0-5.36,2.86-5.36,7.64,0,3.62.62,6.79,2.23,8.49a4.89,4.89,0,0,0,3.49,1.48c3,0,5.32-2.91,5.32-7.65C568.13,38,567.46,34.76,565.89,33.16Z"/><path class="cls-1" d="M588.87,50.5l.13-1.65,1-.14c1.3-.09,1.52-.4,1.52-.85v-9c0-4.42-1.38-5.63-4-5.63a7.6,7.6,0,0,0-4.42,1.65V47.91c0,.44.27.71,1.7.8l1.34.14.13,1.65H575.81l.14-1.65,1.16-.14c1.07-.09,1.52-.31,1.52-.85v-11c0-2.82-.36-3.22-1.92-3.67l-1-.22,0-1.3,7.33-2v3.26h.22c2.37-1.92,4.79-3.26,7.24-3.26a5.35,5.35,0,0,1,3.71,1.47c1.21,1.21,1.7,2.86,1.7,5.1V47.86c0,.4.23.67,1.84.85l1.07.14L599,50.5Z"/><path class="cls-1" d="M304.06,88.38H282.38l.14-1.66,1.74-.26c1.12-.09,1.57-.36,1.57-.81V63.08c0-.41-.27-.58-1.66-.72l-1.65-.27-.14-1.65h12.21l-.14,1.65-2,.27c-1.21.09-1.56.4-1.56.81V86.5H292c7.51,0,8.27-.31,9.12-2.86l1.16-4.29H305Z"/><path class="cls-1" d="M317.11,89.05C311.84,89.05,308,84.8,308,79c0-6.62,4.65-11.44,10.64-11.44,4.29,0,7.28,2.63,7.28,6.84a12.38,12.38,0,0,1-.26,2.45l-13-.17v.49c0,5,2.77,8.36,6.61,8.36a7.24,7.24,0,0,0,5.55-2.6l.94.54A9,9,0,0,1,317.11,89.05Zm.58-19.67c-2.32,0-4.56,2-5,5.81l8.49,0C321.36,71.53,319.93,69.38,317.69,69.38Z"/><path class="cls-1" d="M343.71,89.14c-1.75,0-3.13-1.08-3.27-3.53h-.22c-1.61,1.92-3.35,3.44-5.68,3.44a5.28,5.28,0,0,1-5.45-5.23c0-3.71,3.62-5.86,11.35-7.74v-.4c.05-4.38-1.65-5.76-4.38-5.76-1.47,0-3.17.58-3.17.93s1.07,1,1.07,2.37a2.37,2.37,0,0,1-2.5,2.24,2.31,2.31,0,0,1-2.5-2.24c0-2.41,5.09-5.67,9.2-5.67,5.06,0,7,2.1,6.75,9L344.6,84c-.09,1.25.27,1.83,1,1.83a4.16,4.16,0,0,0,2.15-1.07l.76,1.07C347.15,87.71,345.41,89.14,343.71,89.14Zm-3.36-11.49c-5.58,1.43-6.88,3.17-6.88,5a3,3,0,0,0,3.09,3.13A5.54,5.54,0,0,0,340.18,84Z"/><path class="cls-1" d="M365.65,71.17v.22a5.5,5.5,0,0,1,1,3.22c0,4.25-3.49,7.47-8.36,7.47a12.23,12.23,0,0,1-2.64-.32c-.58.27-1.6,1.12-1.6,1.92,0,1.21,1.11,2,2.86,2s3.89-.14,5.41-.14a6.25,6.25,0,0,1,6.57,6.13c0,4.69-4.83,8.31-11.89,8.31-4.88,0-8.09-2.06-8.09-5.23,0-2.73,1.92-4.16,4.33-5.1V89.5a3.86,3.86,0,0,1-3.08-3.58c0-1.83,1.65-3.62,3.84-4.43,0-.22.14-.22.14-.22a6.37,6.37,0,0,1-4-6.21c0-4.12,3.22-7.51,8.36-7.51A12.45,12.45,0,0,1,364,68.84h6.31L370.3,72ZM361.18,89.9c-1.47-.14-3.13,0-6.08,0a4.19,4.19,0,0,0-2.28,3.57c0,2.73,2.51,4.61,6.31,4.61,3.53,0,6-2,6-4.52C365.12,91.46,364.09,90.12,361.18,89.9Zm-.35-19.67a3.3,3.3,0,0,0-2.33-1c-2.28,0-3.84,1.92-3.84,5.18a7.11,7.11,0,0,0,1.7,5.1,3.09,3.09,0,0,0,2.05.89,3.63,3.63,0,0,0,2.55-.89c.89-.85,1.34-2.37,1.34-4.56A6.63,6.63,0,0,0,360.83,70.23Z"/><path class="cls-1" d="M393.9,88.2l-7.55.85V85.79h-.23c-2.41,1.92-4.82,3.26-7.28,3.26a5.32,5.32,0,0,1-3.71-1.48c-1.21-1.2-1.7-2.86-1.7-5.09l.09-11.63c0-.71-.31-.62-1.92-.84l-1-.14-.13-1.65h7.69l-.27,11.71c0,4.38,1.38,5.59,4,5.59a8.14,8.14,0,0,0,4.47-1.61V70.81c0-.45-.27-.67-1.7-.8l-1.52-.14L383,68.22h7.82V84.89c0,.67.18,1.16.63,1.3L394,87Z"/><path class="cls-1" d="M405,89.05c-5.27,0-9.16-4.25-9.16-10.06,0-6.62,4.65-11.44,10.63-11.44,4.3,0,7.29,2.63,7.29,6.84a11.7,11.7,0,0,1-.27,2.45l-13-.17v.49c0,5,2.77,8.36,6.61,8.36a7.22,7.22,0,0,0,5.54-2.6l.94.54A9,9,0,0,1,405,89.05Zm.58-19.67c-2.32,0-4.56,2-5,5.81l8.5,0C409.28,71.53,407.85,69.38,405.61,69.38Z"/><path class="cls-1" d="M215.92,71.34v0a4.41,4.41,0,0,1,8.81,0v0a4.41,4.41,0,0,1-8.81,0Zm8.3,0v0a3.84,3.84,0,0,0-3.88-3.9,3.88,3.88,0,0,0-3.91,3.92v0a3.9,3.9,0,1,0,7.79,0Zm-5.71-2.47h2.09a1.94,1.94,0,0,1,1.44.51,1.4,1.4,0,0,1,.39,1v0a1.46,1.46,0,0,1-1,1.45l1.15,1.68h-1.21l-1-1.51h-.81v1.51h-1Zm2.07,2.29c.53,0,.81-.28.81-.67v0c0-.45-.32-.69-.83-.69h-1v1.38Z"/></svg>