<svg id="Layer_1" data-name="Layer 1" xmlns="http://www.w3.org/2000/svg" viewBox="0 0 459.14 100"><defs><style>.cls-1{fill:#002b49;}.cls-2{fill:#ff5f00;}</style></defs><path class="cls-1" d="M6.79,81.39H9L14.8,94.78H12.33L11,91.57H4.7L3.33,94.78H.94Zm3.34,8.11-2.3-5.32L5.55,89.5Z"/><path class="cls-1" d="M17.08,81.49h5c4.17,0,7.06,2.86,7.06,6.6v0c0,3.74-2.89,6.65-7.06,6.65h-5Zm2.34,2.12v9H22a4.33,4.33,0,0,0,4.61-4.48v0A4.36,4.36,0,0,0,22,83.61Z"/><path class="cls-1" d="M29.94,81.49h2.58l4,10.21,4-10.21H43L37.53,94.87H35.44Z"/><path class="cls-1" d="M48.13,81.39h2.16l5.85,13.39H53.67l-1.35-3.21H46l-1.37,3.21H42.28Zm3.34,8.11-2.3-5.32L46.89,89.5Z"/><path class="cls-1" d="M58.42,81.49h2.16l7.13,9.19V81.49H70V94.78h-2l-7.33-9.46v9.46h-2.3Z"/><path class="cls-1" d="M72.83,88.17v0a6.72,6.72,0,0,1,6.84-6.87,6.92,6.92,0,0,1,5.22,2.07l-1.5,1.73a5.3,5.3,0,0,0-3.74-1.64,4.45,4.45,0,0,0-4.37,4.67v0a4.48,4.48,0,0,0,4.39,4.71,5.14,5.14,0,0,0,3.81-1.71L85,92.65A6.85,6.85,0,0,1,79.59,95,6.68,6.68,0,0,1,72.83,88.17Z"/><path class="cls-1" d="M87.46,81.49h9.85v2.09H89.79V87h6.66v2.11H89.79v3.55H97.4v2.09H87.46Z"/><path class="cls-1" d="M100.18,81.49h4.95c4.18,0,7.07,2.86,7.07,6.6v0c0,3.74-2.89,6.65-7.07,6.65h-4.95Zm2.33,2.12v9h2.62a4.34,4.34,0,0,0,4.62-4.48v0a4.37,4.37,0,0,0-4.62-4.52Z"/><path class="cls-1" d="M120.72,81.49H126c3.12,0,5,1.76,5,4.44v0c0,3-2.39,4.54-5.31,4.54h-2.64v4.27h-2.34Zm5,6.91c1.77,0,2.87-1,2.87-2.37v0c0-1.56-1.12-2.38-2.87-2.38h-2.71V88.4Z"/><path class="cls-1" d="M133.41,81.49h5.92a5.36,5.36,0,0,1,3.84,1.33,4,4,0,0,1,1.1,2.86v0a4,4,0,0,1-3.15,4l3.59,5h-2.78l-3.26-4.63h-2.93v4.63h-2.33Zm5.75,6.59c1.67,0,2.74-.88,2.74-2.23v0c0-1.43-1-2.21-2.76-2.21h-3.4v4.47Z"/><path class="cls-1" d="M146.55,88.17v0a7,7,0,0,1,13.9,0v0a7,7,0,0,1-13.9,0Zm11.45,0v0a4.54,4.54,0,0,0-4.52-4.71A4.47,4.47,0,0,0,149,88.09v0a4.54,4.54,0,0,0,4.52,4.71A4.47,4.47,0,0,0,158,88.17Z"/><path class="cls-1" d="M162.69,88.17v0a6.77,6.77,0,0,1,6.85-6.87,7.22,7.22,0,0,1,5.11,1.8l-1.48,1.77a5.24,5.24,0,0,0-3.72-1.41,4.48,4.48,0,0,0-4.31,4.67v0a4.44,4.44,0,0,0,4.52,4.75,5.43,5.43,0,0,0,3.21-1V89.4h-3.4V87.35h5.66v5.59A8.48,8.48,0,0,1,169.58,95,6.6,6.6,0,0,1,162.69,88.17Z"/><path class="cls-1" d="M178.17,81.49h5.92a5.36,5.36,0,0,1,3.84,1.33,4,4,0,0,1,1.1,2.86v0a4,4,0,0,1-3.15,4l3.58,5h-2.77l-3.26-4.63H180.5v4.63h-2.33Zm5.75,6.59c1.67,0,2.73-.88,2.73-2.23v0c0-1.43-1-2.21-2.75-2.21h-3.4v4.47Z"/><path class="cls-1" d="M196.6,81.39h2.17l5.85,13.39h-2.47l-1.35-3.21h-6.28l-1.37,3.21h-2.39ZM200,89.5l-2.3-5.32-2.28,5.32Z"/><path class="cls-1" d="M206.9,81.49h2.48l4.05,6.28,4-6.28H220V94.78h-2.34V85.25l-4.19,6.26h-.08l-4.16-6.23v9.5H206.9Z"/><path class="cls-1" d="M222.49,92.84l1.4-1.67a6.17,6.17,0,0,0,4.2,1.73c1.44,0,2.35-.69,2.35-1.67v0c0-1-.53-1.46-3-2-2.83-.69-4.42-1.52-4.42-4v0c0-2.28,1.9-3.85,4.54-3.85A7.39,7.39,0,0,1,232.38,83l-1.25,1.76a6.07,6.07,0,0,0-3.61-1.36c-1.37,0-2.17.7-2.17,1.57v0c0,1,.61,1.48,3.18,2.09,2.8.68,4.25,1.69,4.25,3.89v0c0,2.49-2,4-4.75,4A8.15,8.15,0,0,1,222.49,92.84Z"/><rect class="cls-1" x="269.45" y="17.17" width="1.09" height="82.83"/><path class="cls-1" d="M0,25.94v-.09A15.36,15.36,0,0,1,15.75,10.22c5.7,0,9.11,1.9,11.92,4.67l-4.23,4.87c-2.33-2.11-4.71-3.41-7.73-3.41C10.62,16.35,7,20.58,7,25.76v.09c0,5.18,3.58,9.49,8.76,9.49,3.45,0,5.57-1.38,7.94-3.53l4.23,4.27a15.44,15.44,0,0,1-12.39,5.39A15.24,15.24,0,0,1,0,25.94Z"/><path class="cls-1" d="M33.2,10.74h6.64v12H52.1v-12h6.65V41H52.1V28.83H39.84V41H33.2Z"/><path class="cls-1" d="M66,10.74H88.79v5.91H72.61v6.13H86.85V28.7H72.61V35H89V41H66Z"/><path class="cls-1" d="M94.93,10.74h22.79v5.91H101.53v6.13h14.24V28.7H101.53V35h16.4V41h-23Z"/><path class="cls-1" d="M123.85,10.74h6.65V24l12.17-13.21h8.16L138.48,23.56,151.34,41h-8L134,28.09l-3.49,3.63V41h-6.65Z"/><path class="cls-1" d="M164.65,29,153,10.74h7.77L168,22.87l7.34-12.13h7.55L171.3,28.91V41h-6.65Z"/><path class="cls-1" d="M.39,71l3.7-4.43A13.09,13.09,0,0,0,12.59,70c2.57,0,4.11-1,4.11-2.69v-.08c0-1.59-1-2.4-5.73-3.62-5.74-1.47-9.44-3-9.44-8.71v-.08c0-5.17,4.15-8.58,10-8.58a16.45,16.45,0,0,1,10.58,3.62l-3.25,4.72a13.37,13.37,0,0,0-7.41-2.81c-2.4,0-3.66,1.1-3.66,2.48v.08c0,1.87,1.22,2.48,6.15,3.75,5.77,1.5,9,3.58,9,8.54v.08c0,5.66-4.31,8.83-10.46,8.83A18.07,18.07,0,0,1,.39,71Z"/><path class="cls-1" d="M27.12,61v-.08A14.48,14.48,0,0,1,42,46.16c5.37,0,8.58,1.79,11.23,4.4l-4,4.6c-2.2-2-4.43-3.22-7.28-3.22-4.8,0-8.26,4-8.26,8.87v.08c0,4.89,3.38,9,8.26,9,3.25,0,5.25-1.3,7.49-3.33l4,4a14.56,14.56,0,0,1-11.68,5.08A14.37,14.37,0,0,1,27.12,61Z"/><path class="cls-1" d="M58.69,46.65H65V75.13H58.69Z"/><path class="cls-1" d="M72.07,46.65H93.56v5.58H78.3V58H91.73v5.58H78.3v6H93.76v5.57H72.07Z"/><path class="cls-1" d="M99.33,46.65h5.78l13.35,17.54V46.65h6.18V75.13h-5.33L105.52,57v18.1H99.33Z"/><path class="cls-1" d="M138.11,52.43h-8.67V46.65H153v5.78h-8.67v22.7h-6.26Z"/><path class="cls-1" d="M158.12,46.65h6.27V75.13h-6.27Z"/><path class="cls-1" d="M169.56,71l3.7-4.43a13.09,13.09,0,0,0,8.5,3.46c2.57,0,4.11-1,4.11-2.69v-.08c0-1.59-1-2.4-5.73-3.62-5.74-1.47-9.44-3-9.44-8.71v-.08c0-5.17,4.15-8.58,10-8.58a16.45,16.45,0,0,1,10.58,3.62L188,54.59a13.37,13.37,0,0,0-7.41-2.81c-2.4,0-3.66,1.1-3.66,2.48v.08c0,1.87,1.22,2.48,6.15,3.75,5.77,1.5,9,3.58,9,8.54v.08c0,5.66-4.31,8.83-10.46,8.83A18.07,18.07,0,0,1,169.56,71Z"/><path class="cls-1" d="M203.57,52.43H194.9V46.65h23.6v5.78h-8.66v22.7h-6.27Z"/><path class="cls-2" d="M262,30a13.65,13.65,0,0,0-5-10.55,16.31,16.31,0,0,0-12.63-12,13.66,13.66,0,0,0-20.05-4.77,15.48,15.48,0,0,0-20.66,3.08A14.23,14.23,0,1,0,200,33.94a15.38,15.38,0,0,0,8.42,8.2c3.49,1.41,9,2.59,16.75-3.43l.09-.07c5.72-4.9,9.6-6.14,13.84-4.43a9.37,9.37,0,0,1,6.07,7.07c.64,3.72-.27,9.1-2.31,13.68a42.5,42.5,0,0,1-3.63,6.48c-2.88-13-13.5-19.66-14-20l-2.66,4.35a28.64,28.64,0,0,1,6.23,5.74,25.57,25.57,0,0,1,6.06,16.54v7l4.51-5.41A54.8,54.8,0,0,0,247.55,57a34.17,34.17,0,0,0,2.94-13.56A13.71,13.71,0,0,0,262,30ZM232.33,5.19A8.57,8.57,0,0,1,238.1,7.4c-6.3,1.31-9.87,6.53-12.54,11.66h0a8.58,8.58,0,0,1,6.77-13.88Zm-16.59-.1a10.32,10.32,0,0,1,5.06,1.32,13.67,13.67,0,0,0,1.64,16.83,9,9,0,0,1-6.7,2.68,10.42,10.42,0,0,1,0-20.83ZM192.53,19.8A9.15,9.15,0,0,1,201,10.69a15.4,15.4,0,0,0-.77,4.82,15.2,15.2,0,0,0,.64,4.4,14.87,14.87,0,0,0-1,2,15.46,15.46,0,0,0-1.12,6.51A9.16,9.16,0,0,1,192.53,19.8ZM222,34.73c-4.45,3.45-7.84,4.23-11.67,2.68a10.38,10.38,0,0,1-6.3-11.74A15.46,15.46,0,0,0,215.74,31c3.77,0,9.34-1,14.26-9.45l.06-.11c3.46-6.68,6.6-9.28,11.17-9.28A11.29,11.29,0,0,1,250,16.36a12.06,12.06,0,0,0-1.6-.1,13.62,13.62,0,0,0-12.29,7.64,13.77,13.77,0,0,0-1.32,4.51C229.85,28.71,225.64,31.63,222,34.73Zm27.7,3.7A14.83,14.83,0,0,0,241,29.48c-.42-.16-.82-.3-1.23-.43a8.46,8.46,0,0,1,.83-2.9,8.6,8.6,0,1,1,9.08,12.28Z"/><path class="cls-1" d="M287.06,50.24c-1.11,0-2.26-.09-3.32-.18v8.6c0,.44.31.62,1.59.76l2.39.22.14,1.64H275.31l.14-1.64,1.72-.22c1.11-.14,1.56-.4,1.56-.8V36.19c0-.4-.27-.58-1.64-.76l-1.64-.22-.14-1.64h11.93c7.36,0,11.12,3.28,11.12,7.54C298.36,47.09,293.13,50.24,287.06,50.24Zm-.27-14.85h-3.05V48.11a13.69,13.69,0,0,0,3.1.31c3.55,0,6.07-2.48,6.07-6.47S290.61,35.39,286.79,35.39Z"/><path class="cls-1" d="M313.39,61.28l.13-1.64,1-.14c1.28-.08,1.51-.4,1.51-.84V49.71c0-4.39-1.38-5.59-3.95-5.59a7.76,7.76,0,0,0-4.43,1.64v13c0,.44.26.71,1.68.79l1.38.14.13,1.64H300.45l.13-1.64,1.15-.14c1.06-.08,1.51-.31,1.51-.84V36.19a1.32,1.32,0,0,0-.62-1.29L300,33.75l.13-1.2,7.54-2.17V43.85h.22c2.35-1.9,4.79-3.23,7.18-3.23a5.34,5.34,0,0,1,3.72,1.46,6.89,6.89,0,0,1,1.69,5.06V58.66c0,.4.22.67,1.82.84l1,.14.13,1.64Z"/><path class="cls-1" d="M336.39,61.28H325.58l.13-1.64,1.73-.22c1.11-.14,1.55-.4,1.55-.8V36.19c0-.4-.26-.58-1.64-.76l-1.64-.22-.13-1.64,10.9-.13c10.11-.14,16.58,5.54,16.58,13.3S347.34,61.28,336.39,61.28Zm-1-25.94H334v23.5l3.19.66c6.65,0,10.42-5.14,10.42-11.66C347.61,40.4,343.49,35.34,335.38,35.34Z"/><path class="cls-1" d="M382.14,61.28l-2.57-.49a22.67,22.67,0,0,1-7,1.15c-8.87,0-15.61-5-15.61-14.18S363.83,33,372.7,33a21.91,21.91,0,0,1,6.38,1l3.81-.79v9.44h-2.57l-1.5-6a11.28,11.28,0,0,0-6.08-1.6c-6.29,0-10.19,5.1-10.19,12.2,0,7.71,3.77,12.9,10.55,12.9a11.29,11.29,0,0,0,5.18-1.25l2.09-6.33h2.7Z"/><path class="cls-1" d="M410.42,61.28H387.55l.13-1.64,1.73-.22c1.11-.14,1.55-.4,1.55-.8V36.19c0-.4-.27-.58-1.64-.76l-1.64-.22-.13-1.64h23v8.69h-2.57l-1-4c-.75-2.62-1.46-2.84-9.13-2.84H396V46.29h1.15c3,0,3.81-.13,4.21-1.19l1-3h2l-1,10.1h-1.95l-.4-2.79c-.14-1-.53-1.28-4.08-1.28h-1V59.42h1.68c8.07,0,8.91-.32,9.8-2.84l1-3.68h2.79Z"/><path class="cls-1" d="M429.88,62c-8.56,0-14.67-5.81-14.67-14.28A14.68,14.68,0,0,1,430.06,33c8.51,0,14.58,5.81,14.58,14.28A14.61,14.61,0,0,1,429.88,62Zm0-27.13c-5,0-9,4.34-9,12.32,0,8.2,4.26,12.94,9.27,12.94s9-4.3,9-12.32S434.84,34.86,429.84,34.86Z"/><path class="cls-1" d="M447.46,55.43v0A4.38,4.38,0,0,1,451.85,51a4.33,4.33,0,0,1,4.35,4.34v0a4.37,4.37,0,0,1-8.74,0Zm8.24,0v0a3.87,3.87,0,1,0-7.73,0v0a3.87,3.87,0,1,0,7.73,0ZM450,53h2.07a2,2,0,0,1,1.44.51,1.39,1.39,0,0,1,.38,1v0a1.45,1.45,0,0,1-1,1.44l1.13,1.67h-1.19l-1-1.5h-.81v1.5h-1Zm2.06,2.27c.52,0,.79-.28.79-.67v0c0-.45-.31-.68-.82-.68h-1v1.37Z"/><path class="cls-1" d="M213.49,70.62v0a4.37,4.37,0,0,1,8.74,0v0A4.38,4.38,0,0,1,217.85,75,4.34,4.34,0,0,1,213.49,70.62Zm8.23,0v0a3.8,3.8,0,0,0-3.85-3.86A3.85,3.85,0,0,0,214,70.6v0a3.87,3.87,0,1,0,7.73,0Zm-5.66-2.45h2.06a2,2,0,0,1,1.44.5,1.44,1.44,0,0,1,.39,1v0a1.44,1.44,0,0,1-1,1.44l1.14,1.66h-1.2l-1-1.49h-.81v1.49h-1Zm2.05,2.27c.52,0,.8-.28.8-.67v0c0-.45-.32-.68-.82-.68h-1v1.37Z"/></svg>