<svg id="Layer_1" data-name="Layer 1" xmlns="http://www.w3.org/2000/svg" viewBox="0 0 522.89 100"><defs><style>.cls-1{fill:#002b49;}.cls-2{fill:#ff6f00;}</style></defs><path class="cls-1" d="M215.82,71.8v0a4.42,4.42,0,0,1,4.42-4.41,4.37,4.37,0,0,1,4.39,4.38v0a4.41,4.41,0,0,1-8.81,0Zm8.3,0v0a3.89,3.89,0,1,0-7.78,0v0a3.84,3.84,0,0,0,3.88,3.9A3.88,3.88,0,0,0,224.12,71.78Zm-5.7-2.47h2.08a2,2,0,0,1,1.45.51,1.41,1.41,0,0,1,.38,1v0a1.45,1.45,0,0,1-1,1.45L222.47,74h-1.21l-1-1.51h-.82V74h-1Zm2.07,2.28c.52,0,.8-.28.8-.66v0c0-.45-.32-.68-.83-.68h-1v1.37Z"/><path class="cls-1" d="M6.84,82H9l5.9,13.49H12.43l-1.36-3.24H4.74L3.36,95.53H1Zm3.37,8.17L7.89,84.85,5.6,90.21Z"/><path class="cls-1" d="M17.22,82.13h5c4.21,0,7.12,2.89,7.12,6.66v0c0,3.77-2.91,6.7-7.12,6.7h-5Zm2.35,2.14v9.11h2.64a4.36,4.36,0,0,0,4.65-4.51v0a4.4,4.4,0,0,0-4.65-4.56Z"/><path class="cls-1" d="M30.17,82.13h2.61l4,10.3,4-10.3h2.55L37.83,95.62H35.72Z"/><path class="cls-1" d="M48.51,82h2.18l5.89,13.49H54.1l-1.36-3.24H46.4L45,95.53H42.61Zm3.37,8.17-2.32-5.36-2.3,5.36Z"/><path class="cls-1" d="M58.88,82.13h2.18l7.18,9.26V82.13h2.31v13.4h-2L61.2,86v9.53H58.88Z"/><path class="cls-1" d="M73.41,88.87v0A6.77,6.77,0,0,1,80.3,81.9,7,7,0,0,1,85.56,84l-1.51,1.74a5.34,5.34,0,0,0-3.77-1.65,4.49,4.49,0,0,0-4.4,4.71v0a4.51,4.51,0,0,0,4.42,4.74,5.22,5.22,0,0,0,3.84-1.72l1.52,1.53a6.91,6.91,0,0,1-5.44,2.38A6.73,6.73,0,0,1,73.41,88.87Z"/><path class="cls-1" d="M88.15,82.13h9.93v2.11H90.5v3.48h6.72v2.12H90.5v3.58h7.67v2.11h-10Z"/><path class="cls-1" d="M101,82.13h5c4.21,0,7.12,2.89,7.12,6.66v0c0,3.77-2.91,6.7-7.12,6.7h-5Zm2.35,2.14v9.11H106a4.36,4.36,0,0,0,4.65-4.51v0A4.4,4.4,0,0,0,106,84.27Z"/><path class="cls-1" d="M121.68,82.13H127c3.14,0,5.09,1.78,5.09,4.48v0c0,3-2.41,4.57-5.36,4.57H124v4.31h-2.35Zm5.09,7c1.78,0,2.89-1,2.89-2.4v0c0-1.57-1.13-2.4-2.89-2.4H124V89.1Z"/><path class="cls-1" d="M134.46,82.13h6a5.41,5.41,0,0,1,3.87,1.34,4,4,0,0,1,1.11,2.89v0a4,4,0,0,1-3.18,4l3.62,5.08h-2.79l-3.3-4.67h-2.94v4.67h-2.36Zm5.8,6.64c1.69,0,2.76-.88,2.76-2.24v0c0-1.43-1-2.22-2.78-2.22h-3.42v4.5Z"/><path class="cls-1" d="M147.71,88.87v0a7,7,0,0,1,14,0v0a7,7,0,0,1-14,0Zm11.54,0v0a4.58,4.58,0,0,0-4.56-4.75,4.51,4.51,0,0,0-4.51,4.71v0a4.57,4.57,0,0,0,4.55,4.74A4.51,4.51,0,0,0,159.25,88.87Z"/><path class="cls-1" d="M164,88.87v0a6.83,6.83,0,0,1,6.9-6.93A7.22,7.22,0,0,1,176,83.72l-1.49,1.78a5.32,5.32,0,0,0-3.75-1.42,4.52,4.52,0,0,0-4.35,4.71v0A4.48,4.48,0,0,0,171,93.61a5.47,5.47,0,0,0,3.23-1V90.11h-3.42V88h5.7v5.63a8.53,8.53,0,0,1-5.59,2.09A6.64,6.64,0,0,1,164,88.87Z"/><path class="cls-1" d="M179.57,82.13h6a5.41,5.41,0,0,1,3.87,1.34,4,4,0,0,1,1.11,2.89v0a4,4,0,0,1-3.18,4L191,95.53h-2.79l-3.3-4.67h-2.94v4.67h-2.36Zm5.8,6.64c1.69,0,2.76-.88,2.76-2.24v0c0-1.43-1-2.22-2.78-2.22h-3.42v4.5Z"/><path class="cls-1" d="M198.16,82h2.18l5.89,13.49h-2.48l-1.36-3.24h-6.34l-1.37,3.24h-2.42Zm3.37,8.17-2.32-5.36-2.3,5.36Z"/><path class="cls-1" d="M208.53,82.13H211l4.07,6.33,4.08-6.33h2.51v13.4h-2.36V85.92l-4.23,6.32H215L210.85,86v9.57h-2.32Z"/><path class="cls-1" d="M224.25,93.57l1.41-1.68a6.19,6.19,0,0,0,4.23,1.74c1.45,0,2.37-.69,2.37-1.68v0c0-1-.53-1.47-3-2-2.85-.69-4.46-1.53-4.46-4v0c0-2.29,1.92-3.88,4.57-3.88a7.44,7.44,0,0,1,4.87,1.68L233,85.4A6.05,6.05,0,0,0,229.32,84c-1.38,0-2.18.7-2.18,1.58v0c0,1,.61,1.49,3.19,2.11,2.83.69,4.29,1.7,4.29,3.92v0c0,2.51-2,4-4.79,4A8.22,8.22,0,0,1,224.25,93.57Z"/><rect class="cls-1" x="271.58" y="12" width="1.09" height="83.48"/><path class="cls-1" d="M0,26.14v-.09A15.49,15.49,0,0,1,15.88,10.3c5.74,0,9.18,1.92,12,4.7l-4.27,4.92c-2.35-2.13-4.74-3.44-7.78-3.44C10.7,16.48,7,20.75,7,26v.08c0,5.22,3.61,9.57,8.84,9.57,3.48,0,5.61-1.39,8-3.56l4.26,4.3A15.56,15.56,0,0,1,15.62,41.8,15.38,15.38,0,0,1,0,26.14Z"/><path class="cls-1" d="M33.46,10.83h6.7v12H52.51v-12h6.7V41.28h-6.7V29.05H40.16V41.28h-6.7Z"/><path class="cls-1" d="M66.52,10.83h23v6H73.18V23H87.54v6H73.18v6.4H89.71v6H66.52Z"/><path class="cls-1" d="M95.68,10.83h23v6H102.33V23h14.36v6H102.33v6.4h16.53v6H95.68Z"/><path class="cls-1" d="M124.83,10.83h6.7V24.14L143.8,10.83H152L139.58,23.75l13,17.53h-8l-9.44-13L131.53,32v9.31h-6.7Z"/><path class="cls-1" d="M166,29.27l-11.7-18.44h7.83l7.27,12.22,7.39-12.22h7.61l-11.7,18.31V41.28H166Z"/><path class="cls-1" d="M.39,71.55l3.73-4.48a13.15,13.15,0,0,0,8.57,3.49c2.59,0,4.14-1,4.14-2.71v-.08c0-1.6-1-2.42-5.78-3.65-5.78-1.47-9.51-3.07-9.51-8.77v-.09c0-5.2,4.18-8.65,10.05-8.65a16.6,16.6,0,0,1,10.66,3.65L19,55a13.46,13.46,0,0,0-7.47-2.83c-2.42,0-3.69,1.11-3.69,2.5v.08c0,1.89,1.23,2.5,6.19,3.77,5.83,1.52,9.11,3.61,9.11,8.62v.08c0,5.7-4.35,8.9-10.54,8.9A18.28,18.28,0,0,1,.39,71.55Z"/><path class="cls-1" d="M27.33,61.46v-.09a14.59,14.59,0,0,1,15-14.84c5.41,0,8.65,1.8,11.32,4.43l-4,4.63c-2.21-2-4.47-3.24-7.34-3.24-4.84,0-8.33,4-8.33,8.94v.08c0,4.93,3.41,9,8.33,9,3.28,0,5.29-1.32,7.55-3.37l4,4.06a14.66,14.66,0,0,1-11.77,5.13A14.49,14.49,0,0,1,27.33,61.46Z"/><path class="cls-1" d="M59.15,47h6.32V75.73H59.15Z"/><path class="cls-1" d="M72.64,47H94.3v5.62H78.92v5.82H92.45v5.62H78.92v6H94.5v5.62H72.64Z"/><path class="cls-1" d="M100.12,47h5.82L119.39,64.7V47h6.24V75.73h-5.38l-13.9-18.25V75.73h-6.23Z"/><path class="cls-1" d="M139.2,52.84h-8.74V47h23.79v5.82h-8.74V75.73H139.2Z"/><path class="cls-1" d="M159.37,47h6.32V75.73h-6.32Z"/><path class="cls-1" d="M170.9,71.55l3.73-4.48a13.13,13.13,0,0,0,8.57,3.49c2.58,0,4.14-1,4.14-2.71v-.08c0-1.6-1-2.42-5.78-3.65-5.78-1.47-9.52-3.07-9.52-8.77v-.09c0-5.2,4.19-8.65,10.05-8.65a16.58,16.58,0,0,1,10.66,3.65L189.47,55A13.4,13.4,0,0,0,182,52.19c-2.42,0-3.69,1.11-3.69,2.5v.08c0,1.89,1.23,2.5,6.19,3.77,5.83,1.52,9.11,3.61,9.11,8.62v.08c0,5.7-4.35,8.9-10.54,8.9A18.28,18.28,0,0,1,170.9,71.55Z"/><path class="cls-1" d="M205.18,52.84h-8.74V47h23.79v5.82h-8.74V75.73h-6.31Z"/><path class="cls-2" d="M264.11,30.18a13.79,13.79,0,0,0-5-10.63A16.45,16.45,0,0,0,246.38,7.47a13.77,13.77,0,0,0-20.21-4.81,15.62,15.62,0,0,0-20.83,3.1,14.35,14.35,0,1,0-3.73,28.45,15.5,15.5,0,0,0,8.48,8.26c3.52,1.42,9.1,2.61,16.89-3.45l.09-.08c5.76-4.94,9.67-6.19,14-4.46a9.47,9.47,0,0,1,6.12,7.12c.64,3.76-.28,9.17-2.33,13.8a43.67,43.67,0,0,1-3.66,6.53c-2.9-13.14-13.6-19.82-14.13-20.14l-2.68,4.38A28.29,28.29,0,0,1,230.63,52a25.82,25.82,0,0,1,6.11,16.68v7.1l4.54-5.46a54.77,54.77,0,0,0,8.22-12.79,34.29,34.29,0,0,0,3-13.67A13.81,13.81,0,0,0,264.11,30.18Zm-30-24.95A8.65,8.65,0,0,1,240,7.46C233.63,8.78,230,14,227.35,19.21h0a8.65,8.65,0,0,1,6.82-14Zm-16.71-.1a10.51,10.51,0,0,1,5.1,1.33,13.73,13.73,0,0,0,1.65,17,9.14,9.14,0,0,1-6.75,2.71,10.5,10.5,0,0,1,0-21ZM194.05,20a9.23,9.23,0,0,1,8.55-9.19,15.32,15.32,0,0,0-.78,4.86,15.88,15.88,0,0,0,.64,4.44,15.12,15.12,0,0,0-1,2.06,15.49,15.49,0,0,0-1.13,6.56A9.23,9.23,0,0,1,194.05,20Zm29.73,15c-4.49,3.48-7.91,4.27-11.77,2.71a10.49,10.49,0,0,1-6.35-11.83,15.62,15.62,0,0,0,11.79,5.38c3.79,0,9.41-1,14.37-9.52l.05-.11c3.5-6.73,6.66-9.35,11.27-9.35a11.41,11.41,0,0,1,8.8,4.2,14.39,14.39,0,0,0-1.62-.09,13.72,13.72,0,0,0-12.38,7.7,13.48,13.48,0,0,0-1.33,4.54C231.66,28.93,227.43,31.88,223.78,35Zm27.92,3.73a14.92,14.92,0,0,0-8.76-9c-.41-.17-.83-.31-1.24-.44a8.75,8.75,0,0,1,.84-2.92,8.66,8.66,0,1,1,9.16,12.37Z"/><path class="cls-1" d="M293.16,50.48h-10.9l.13-1.66,1.74-.22c1.12-.13,1.57-.4,1.57-.8V25.19c0-.4-.27-.58-1.65-.76l-1.66-.23-.13-1.65,11-.13C303.44,22.28,310,28,310,35.82S304.2,50.48,293.16,50.48Zm-1-26.14h-1.38V48l3.21.67c6.71,0,10.5-5.18,10.5-11.75C304.46,29.43,300.31,24.34,292.13,24.34Z"/><path class="cls-1" d="M328.05,51.24c-1.74,0-3.12-1.08-3.26-3.53h-.22c-1.61,1.92-3.35,3.44-5.68,3.44a5.28,5.28,0,0,1-5.45-5.23c0-3.71,3.62-5.85,11.35-7.73v-.4c0-4.38-1.65-5.77-4.38-5.77-1.47,0-3.17.58-3.17.94s1.07,1,1.07,2.37a2.37,2.37,0,0,1-2.5,2.23,2.31,2.31,0,0,1-2.5-2.23c0-2.41,5.09-5.67,9.2-5.67,5.05,0,7,2.09,6.75,9L329,46.14c-.09,1.25.26,1.83,1,1.83a4.09,4.09,0,0,0,2.15-1.07l.76,1.07C331.49,49.81,329.75,51.24,328.05,51.24ZM324.7,39.75c-5.58,1.43-6.88,3.18-6.88,5a3,3,0,0,0,3.08,3.13,5.49,5.49,0,0,0,3.62-1.79Z"/><path class="cls-1" d="M342,51.15c-3.22,0-5.59-1.92-5.5-6.44l.27-11.61-3.53-.27,0-1.48,6.08-5.27,1.79.27-.05,4.11h7.29L348,32.92h-7l-.26,10.54c-.09,3.35,1.47,4.43,3.75,4.43a8.54,8.54,0,0,0,3.75-1l.18,1.2A9,9,0,0,1,342,51.15Z"/><path class="cls-1" d="M365.31,51.24c-1.74,0-3.12-1.08-3.26-3.53h-.22c-1.61,1.92-3.35,3.44-5.68,3.44a5.28,5.28,0,0,1-5.45-5.23c0-3.71,3.62-5.85,11.35-7.73v-.4c.05-4.38-1.65-5.77-4.38-5.77-1.47,0-3.17.58-3.17.94s1.07,1,1.07,2.37a2.37,2.37,0,0,1-2.5,2.23,2.31,2.31,0,0,1-2.5-2.23c0-2.41,5.09-5.67,9.2-5.67,5.05,0,7,2.09,6.75,9l-.31,7.46c-.09,1.25.26,1.83,1,1.83a4.09,4.09,0,0,0,2.15-1.07l.76,1.07C368.75,49.81,367,51.24,365.31,51.24ZM362,39.75c-5.58,1.43-6.88,3.18-6.88,5a3,3,0,0,0,3.08,3.13,5.49,5.49,0,0,0,3.62-1.79Z"/><path class="cls-1" d="M391.45,51.15a25.61,25.61,0,0,1-8.36-1.3l-.53-8.27h2.36l2,6.35A13,13,0,0,0,392,49.05c3.84,0,5.67-2.37,5.67-4.74,0-3.66-3-4.78-6.79-6.12-4.42-1.56-8.08-3.31-8.08-8.27,0-4,3.12-7.9,9.82-8a27.86,27.86,0,0,1,5.77.58l2.32-.63V31h-2.32L396.81,25a12.2,12.2,0,0,0-4.65-.9c-3.35,0-5.05,1.93-5.05,4.07,0,3.35,2.95,4.42,6.48,5.72,4.78,1.7,8.58,3.49,8.58,8.67C402.17,47,398.24,51.1,391.45,51.15Z"/><path class="cls-1" d="M414.81,51.15c-5.31,0-9.2-4.25-9.2-10.06,0-6.65,4.87-11.43,10.86-11.43,4.29,0,6.65,2.09,6.65,4.46a2.42,2.42,0,0,1-2.72,2.55c-1.88,0-3-2.14-2.55-4.42v-.09a3.86,3.86,0,0,0-2.14-.58c-3,0-5.41,2.63-5.41,7.41,0,5,2.73,8.63,6.57,8.63A7.24,7.24,0,0,0,422.41,45l.94.53A8.94,8.94,0,0,1,414.81,51.15Z"/><path class="cls-1" d="M425.76,50.48l.13-1.66,1.12-.13c1.07-.09,1.52-.31,1.52-.85v-11c0-2.82-.31-3.22-1.92-3.66l-.94-.23,0-1.29,7.29-2V47.89c0,.44.27.71,1.7.8l1.11.13.14,1.66Zm4.6-24.27a2.78,2.78,0,0,1-2.81-3,2.82,2.82,0,1,1,5.63,0A2.79,2.79,0,0,1,430.36,26.21Z"/><path class="cls-1" d="M447.74,51.15c-5.27,0-9.16-4.25-9.16-10.06,0-6.61,4.65-11.43,10.63-11.43,4.29,0,7.29,2.63,7.29,6.83a11.72,11.72,0,0,1-.27,2.46l-13-.18v.49c0,5,2.77,8.36,6.61,8.36A7.24,7.24,0,0,0,455.38,45l.94.53A9,9,0,0,1,447.74,51.15Zm.58-19.66c-2.32,0-4.56,2-5,5.81l8.49,0C452,33.63,450.56,31.49,448.32,31.49Z"/><path class="cls-1" d="M472.49,50.48l.13-1.66,1-.13c1.29-.09,1.52-.4,1.52-.85v-9c0-4.42-1.39-5.62-4-5.62a7.5,7.5,0,0,0-4.42,1.65v13c0,.44.27.71,1.7.8l1.34.13.13,1.66H459.44l.14-1.66,1.16-.13c1.07-.09,1.52-.31,1.52-.85v-11c0-2.82-.36-3.22-1.92-3.66l-1-.23,0-1.29,7.33-2v3.26H467c2.37-1.92,4.78-3.26,7.24-3.26a5.39,5.39,0,0,1,3.71,1.47,6.8,6.8,0,0,1,1.7,5.09V47.84c0,.4.22.67,1.83.85l1.07.13.13,1.66Z"/><path class="cls-1" d="M493.89,51.15c-5.32,0-9.2-4.25-9.2-10.06,0-6.65,4.87-11.43,10.85-11.43,4.29,0,6.66,2.09,6.66,4.46a2.42,2.42,0,0,1-2.72,2.55c-1.88,0-3-2.14-2.55-4.42v-.09a3.92,3.92,0,0,0-2.15-.58c-3,0-5.4,2.63-5.4,7.41,0,5,2.72,8.63,6.57,8.63A7.26,7.26,0,0,0,501.49,45l.93.53A8.92,8.92,0,0,1,493.89,51.15Z"/><path class="cls-1" d="M514.13,51.15c-5.27,0-9.16-4.25-9.16-10.06,0-6.61,4.65-11.43,10.63-11.43,4.29,0,7.29,2.63,7.29,6.83a11.72,11.72,0,0,1-.27,2.46l-13-.18v.49c0,5,2.77,8.36,6.61,8.36A7.24,7.24,0,0,0,521.77,45l.94.53A9,9,0,0,1,514.13,51.15Zm.58-19.66c-2.32,0-4.56,2-5,5.81l8.49,0C518.37,33.63,516.94,31.49,514.71,31.49Z"/><path class="cls-1" d="M291.69,89a25.57,25.57,0,0,1-8.36-1.3l-.54-8.26h2.37l2,6.34a13,13,0,0,0,5.1,1.12c3.84,0,5.67-2.37,5.67-4.74,0-3.66-3-4.78-6.79-6.12-4.42-1.56-8.09-3.31-8.09-8.26,0-4,3.13-7.91,9.83-8a28.65,28.65,0,0,1,5.77.58l2.32-.63v9.07h-2.32l-1.61-5.94A12.19,12.19,0,0,0,292.4,62c-3.35,0-5,1.92-5,4.06,0,3.35,2.95,4.43,6.48,5.72,4.78,1.7,8.58,3.49,8.58,8.67C302.41,84.85,298.48,89,291.69,89Z"/><path class="cls-1" d="M326.36,69.84l-1.26.27c-1.2.18-1.69.85-2.54,3L317.29,87l-2.42,7.19c-1.29,3.89-2.72,5.81-5.36,5.81-1.92,0-3.22-1.07-3.22-2.64a2.28,2.28,0,0,1,2.37-2.5,3.09,3.09,0,0,1,2.77,1.65c.67-.35,1.12-1.16,1.83-3.08l1.52-4.33v-.18l-7.95-17.07a2.34,2.34,0,0,0-2.14-1.61l-1-.35-.18-1.7H314l-.14,1.65-1.2.31c-.9.09-1.34.58-.85,1.66l5,11.48,3.67-10.37c.62-1.83.44-2.5-1-2.72l-1.34-.36L318,68.19h8.49Z"/><path class="cls-1" d="M339.71,88.34l.14-1.66,1-.13c1.3-.09,1.52-.4,1.52-.85v-9c0-4.43-1.39-5.63-4-5.63A7.57,7.57,0,0,0,334,72.7v13c0,.44.27.71,1.7.8l1.34.13.13,1.66H326.67l.13-1.66,1.16-.13c1.07-.09,1.52-.31,1.52-.85v-11c0-2.81-.36-3.22-1.92-3.66l-1-.23,0-1.29,7.33-2v3.26h.22c2.37-1.92,4.78-3.26,7.24-3.26A5.35,5.35,0,0,1,345.12,69c1.21,1.21,1.7,2.86,1.7,5.1V85.7c0,.4.22.67,1.83.85l1.07.13.14,1.66Z"/><path class="cls-1" d="M374.12,88.16l-7.6.85V85.88h-.13A8.55,8.55,0,0,1,360.17,89c-4.87,0-8.26-4.24-8.26-9.92,0-6,4.2-11.3,11.12-11.3a13.35,13.35,0,0,1,3.44.54h0V61.8c0-.67-.18-1.07-.58-1.25l-2.95-1,.18-1.16L371,57.33V84.85c0,.67.18,1.16.62,1.3l2.64.8Zm-7.6-15.59c-1.34-1.57-2.82-2.82-4.83-2.82-2.86,0-5,3-5,7.64,0,5,2.32,8.22,5.81,8.22a5.88,5.88,0,0,0,4-1.7Z"/><path class="cls-1" d="M376,88.34l.14-1.66,1.11-.13c1.08-.09,1.52-.31,1.52-.85v-11c0-2.81-.31-3.22-1.92-3.66l-.93-.23,0-1.29,7.28-2V85.75c0,.44.27.71,1.7.8l1.12.13.13,1.66Zm4.61-24.26a3,3,0,1,1,2.81-3A2.8,2.8,0,0,1,380.64,64.08Z"/><path class="cls-1" d="M398.06,89c-5.32,0-9.2-4.25-9.2-10.05,0-6.66,4.87-11.44,10.85-11.44,4.29,0,6.66,2.1,6.66,4.47a2.42,2.42,0,0,1-2.72,2.54c-1.88,0-3-2.14-2.55-4.42V70a3.92,3.92,0,0,0-2.15-.58c-3,0-5.4,2.63-5.4,7.42,0,5,2.72,8.62,6.57,8.62a7.26,7.26,0,0,0,5.54-2.59l.93.53A8.92,8.92,0,0,1,398.06,89Z"/><path class="cls-1" d="M423.8,89.1c-1.75,0-3.13-1.07-3.27-3.53h-.22C418.7,87.49,417,89,414.64,89a5.29,5.29,0,0,1-5.46-5.23c0-3.71,3.62-5.85,11.35-7.73v-.4c.05-4.38-1.65-5.76-4.38-5.76-1.47,0-3.17.58-3.17.93s1.07,1,1.07,2.37a2.37,2.37,0,0,1-2.5,2.24,2.32,2.32,0,0,1-2.5-2.24c0-2.41,5.09-5.67,9.2-5.67,5.05,0,7,2.1,6.75,9L424.69,84c-.09,1.26.27,1.84,1,1.84a4.13,4.13,0,0,0,2.14-1.08l.76,1.08C427.24,87.67,425.49,89.1,423.8,89.1Zm-3.36-11.48c-5.58,1.42-6.88,3.17-6.88,5a3,3,0,0,0,3.09,3.13A5.49,5.49,0,0,0,420.27,84Z"/><path class="cls-1" d="M437.69,89c-3.22,0-5.59-1.92-5.5-6.44L432.46,71l-3.53-.27.05-1.47,6.07-5.28,1.79.27,0,4.11h7.28l-.31,2.46h-7l-.27,10.54c-.09,3.35,1.47,4.43,3.75,4.43a8.54,8.54,0,0,0,3.75-1l.18,1.21A9.06,9.06,0,0,1,437.69,89Z"/><path class="cls-1" d="M455.11,89C449.84,89,446,84.76,446,79c0-6.62,4.65-11.44,10.64-11.44,4.29,0,7.28,2.63,7.28,6.83a11.72,11.72,0,0,1-.27,2.46l-13-.18v.49c0,5,2.77,8.36,6.61,8.36a7.24,7.24,0,0,0,5.54-2.59l.94.53A9,9,0,0,1,455.11,89Zm.58-19.66c-2.32,0-4.55,2-5,5.81l8.49,0C459.36,71.49,457.93,69.35,455.69,69.35Z"/></svg>