<svg id="Layer_1" data-name="Layer 1" xmlns="http://www.w3.org/2000/svg" viewBox="0 0 488.62 100"><defs><style>.cls-1{fill:#fff;}.cls-2{fill:#006954;}</style></defs><rect class="cls-1" x="269.45" y="17.17" width="1.09" height="82.83"/><path class="cls-1" d="M0,25.94v-.09A15.36,15.36,0,0,1,15.75,10.22c5.7,0,9.11,1.9,11.92,4.67l-4.23,4.87c-2.33-2.11-4.71-3.41-7.73-3.41C10.62,16.35,7,20.58,7,25.76v.09c0,5.18,3.58,9.49,8.76,9.49,3.45,0,5.57-1.38,7.94-3.53l4.23,4.27a15.44,15.44,0,0,1-12.39,5.39A15.24,15.24,0,0,1,0,25.94Z"/><path class="cls-1" d="M33.2,10.74h6.64v12H52.1v-12h6.65V41H52.1V28.83H39.84V41H33.2Z"/><path class="cls-1" d="M66,10.74H88.79v5.91H72.61v6.13H86.85V28.7H72.61V35H89V41H66Z"/><path class="cls-1" d="M94.93,10.74h22.79v5.91H101.53v6.13h14.24V28.7H101.53V35h16.4V41h-23Z"/><path class="cls-1" d="M123.85,10.74h6.65V24l12.17-13.21h8.16L138.48,23.56,151.34,41h-8L134,28.09l-3.49,3.63V41h-6.65Z"/><path class="cls-1" d="M164.65,29,153,10.74h7.77L168,22.87l7.34-12.13h7.55L171.3,28.91V41h-6.65Z"/><path class="cls-1" d="M.39,71l3.7-4.43A13.09,13.09,0,0,0,12.59,70c2.57,0,4.11-1,4.11-2.69v-.08c0-1.59-1-2.4-5.73-3.62-5.74-1.47-9.44-3-9.44-8.71v-.08c0-5.17,4.15-8.58,10-8.58a16.45,16.45,0,0,1,10.58,3.62l-3.25,4.72a13.37,13.37,0,0,0-7.41-2.81c-2.4,0-3.66,1.1-3.66,2.48v.08c0,1.87,1.22,2.48,6.15,3.75,5.77,1.5,9,3.58,9,8.54v.08c0,5.66-4.31,8.83-10.46,8.83A18.07,18.07,0,0,1,.39,71Z"/><path class="cls-1" d="M27.12,61v-.08A14.48,14.48,0,0,1,42,46.16c5.37,0,8.58,1.79,11.23,4.4l-4,4.6c-2.2-2-4.43-3.22-7.28-3.22-4.8,0-8.26,4-8.26,8.87v.08c0,4.89,3.38,9,8.26,9,3.25,0,5.25-1.3,7.49-3.33l4,4a14.56,14.56,0,0,1-11.68,5.08A14.37,14.37,0,0,1,27.12,61Z"/><path class="cls-1" d="M58.69,46.65H65V75.13H58.69Z"/><path class="cls-1" d="M72.07,46.65H93.56v5.58H78.3V58H91.73v5.58H78.3v6H93.76v5.57H72.07Z"/><path class="cls-1" d="M99.33,46.65h5.78l13.35,17.54V46.65h6.18V75.13h-5.33L105.52,57v18.1H99.33Z"/><path class="cls-1" d="M138.11,52.43h-8.67V46.65H153v5.78h-8.67v22.7h-6.26Z"/><path class="cls-1" d="M158.12,46.65h6.27V75.13h-6.27Z"/><path class="cls-1" d="M169.56,71l3.7-4.43a13.09,13.09,0,0,0,8.5,3.46c2.57,0,4.11-1,4.11-2.69v-.08c0-1.59-1-2.4-5.73-3.62-5.74-1.47-9.44-3-9.44-8.71v-.08c0-5.17,4.15-8.58,10-8.58a16.45,16.45,0,0,1,10.58,3.62L188,54.59a13.37,13.37,0,0,0-7.41-2.81c-2.4,0-3.66,1.1-3.66,2.48v.08c0,1.87,1.22,2.48,6.15,3.75,5.77,1.5,9,3.58,9,8.54v.08c0,5.66-4.31,8.83-10.46,8.83A18.07,18.07,0,0,1,169.56,71Z"/><path class="cls-1" d="M203.57,52.43H194.9V46.65h23.6v5.78h-8.66v22.7h-6.27Z"/><path class="cls-2" d="M262,30a13.65,13.65,0,0,0-5-10.55,16.31,16.31,0,0,0-12.63-12,13.66,13.66,0,0,0-20.05-4.77,15.48,15.48,0,0,0-20.66,3.08A14.23,14.23,0,1,0,200,33.94a15.38,15.38,0,0,0,8.42,8.2c3.49,1.41,9,2.59,16.75-3.43l.09-.07c5.72-4.9,9.6-6.14,13.84-4.43a9.37,9.37,0,0,1,6.07,7.07c.64,3.72-.27,9.1-2.31,13.68a42.5,42.5,0,0,1-3.63,6.48c-2.88-13-13.5-19.66-14-20l-2.66,4.35a28.64,28.64,0,0,1,6.23,5.74,25.57,25.57,0,0,1,6.06,16.54v7l4.51-5.41A54.8,54.8,0,0,0,247.55,57a34.17,34.17,0,0,0,2.94-13.56A13.71,13.71,0,0,0,262,30ZM232.33,5.19A8.57,8.57,0,0,1,238.1,7.4c-6.3,1.31-9.87,6.53-12.54,11.66h0a8.58,8.58,0,0,1,6.77-13.88Zm-16.59-.1a10.32,10.32,0,0,1,5.06,1.32,13.67,13.67,0,0,0,1.64,16.83,9,9,0,0,1-6.7,2.68,10.42,10.42,0,0,1,0-20.83ZM192.53,19.8A9.15,9.15,0,0,1,201,10.69a15.4,15.4,0,0,0-.77,4.82,15.2,15.2,0,0,0,.64,4.4,14.87,14.87,0,0,0-1,2,15.46,15.46,0,0,0-1.12,6.51A9.16,9.16,0,0,1,192.53,19.8ZM222,34.73c-4.45,3.45-7.84,4.23-11.67,2.68a10.38,10.38,0,0,1-6.3-11.74A15.46,15.46,0,0,0,215.74,31c3.77,0,9.34-1,14.26-9.45l.06-.11c3.46-6.68,6.6-9.28,11.17-9.28A11.29,11.29,0,0,1,250,16.36a12.06,12.06,0,0,0-1.6-.1,13.62,13.62,0,0,0-12.29,7.64,13.77,13.77,0,0,0-1.32,4.51C229.85,28.71,225.64,31.63,222,34.73Zm27.7,3.7A14.83,14.83,0,0,0,241,29.48c-.42-.16-.82-.3-1.23-.43a8.46,8.46,0,0,1,.83-2.9,8.6,8.6,0,1,1,9.08,12.28Z"/><path class="cls-1" d="M5.34,83.21H.94V81H12.16v2.25H7.76V94.77H5.34Z"/><path class="cls-1" d="M14.69,81H24.92v2.17H17.11v3.59H24v2.19H17.11V92.6H25v2.17H14.69Z"/><path class="cls-1" d="M27.29,87.9v0a7,7,0,0,1,7.1-7.14,7.18,7.18,0,0,1,5.42,2.15l-1.56,1.79A5.48,5.48,0,0,0,34.37,83a4.63,4.63,0,0,0-4.54,4.86v0a4.66,4.66,0,0,0,4.56,4.89,5.37,5.37,0,0,0,4-1.78l1.56,1.58A7.13,7.13,0,0,1,34.31,95,6.94,6.94,0,0,1,27.29,87.9Z"/><path class="cls-1" d="M42.47,81H44.9V86.7h6.59V81h2.42V94.77H51.49V89H44.9v5.82H42.47Z"/><path class="cls-1" d="M57.46,81h2.25l7.4,9.55V81h2.38V94.77h-2L59.85,85v9.82H57.46Z"/><path class="cls-1" d="M73.18,81h2.43V94.77H73.18Z"/><path class="cls-1" d="M78.68,87.9v0a7,7,0,0,1,7.1-7.14,7.19,7.19,0,0,1,5.43,2.15l-1.56,1.79A5.52,5.52,0,0,0,85.76,83a4.63,4.63,0,0,0-4.53,4.86v0a4.65,4.65,0,0,0,4.55,4.89,5.39,5.39,0,0,0,4-1.78l1.56,1.58A7.13,7.13,0,0,1,85.7,95,6.94,6.94,0,0,1,78.68,87.9Z"/><path class="cls-1" d="M98.74,80.86H101l6.07,13.91H104.5l-1.4-3.33H96.57l-1.42,3.33H92.66Zm3.47,8.43-2.39-5.53-2.36,5.53Z"/><path class="cls-1" d="M109.43,81h2.42v11.6h7.26v2.21h-9.68Z"/><path class="cls-1" d="M127.53,81H133c3.23,0,5.24,1.84,5.24,4.62v0c0,3.09-2.48,4.71-5.52,4.71H130v4.44h-2.43Zm5.25,7.18c1.83,0,3-1,3-2.46v0c0-1.62-1.17-2.47-3-2.47H130v5Z"/><path class="cls-1" d="M140.71,81h6.15a5.52,5.52,0,0,1,4,1.38,4.19,4.19,0,0,1,1.15,3v0a4.14,4.14,0,0,1-3.28,4.18l3.73,5.23h-2.88L146.17,90h-3v4.81h-2.42Zm6,6.85c1.74,0,2.84-.91,2.84-2.31v0c0-1.48-1.06-2.29-2.86-2.29h-3.53v4.64Z"/><path class="cls-1" d="M154.35,87.9v0a7.22,7.22,0,0,1,14.44,0v0a7.22,7.22,0,0,1-14.44,0Zm11.9,0v0a4.72,4.72,0,0,0-4.7-4.9,4.65,4.65,0,0,0-4.65,4.86v0a4.71,4.71,0,0,0,4.69,4.89A4.66,4.66,0,0,0,166.25,87.9Z"/><path class="cls-1" d="M171.12,87.9v0a7,7,0,0,1,7.12-7.14,7.46,7.46,0,0,1,5.3,1.87L182,84.43A5.5,5.5,0,0,0,178.14,83a4.65,4.65,0,0,0-4.48,4.86v0a4.61,4.61,0,0,0,4.69,4.93,5.65,5.65,0,0,0,3.34-1V89.19h-3.53V87.06H184v5.8A8.86,8.86,0,0,1,178.28,95,6.85,6.85,0,0,1,171.12,87.9Z"/><path class="cls-1" d="M187.19,81h6.15a5.56,5.56,0,0,1,4,1.38,4.18,4.18,0,0,1,1.14,3v0a4.14,4.14,0,0,1-3.27,4.18l3.73,5.23h-2.88L192.65,90h-3v4.81h-2.43Zm6,6.85c1.73,0,2.84-.91,2.84-2.31v0c0-1.48-1.07-2.29-2.86-2.29h-3.53v4.64Z"/><path class="cls-1" d="M206.34,80.86h2.25l6.07,13.91H212.1l-1.4-3.33h-6.53l-1.42,3.33h-2.49Zm3.47,8.43-2.39-5.53-2.36,5.53Z"/><path class="cls-1" d="M217,81h2.58l4.2,6.53L228,81h2.59V94.77h-2.43v-9.9l-4.36,6.51h-.08l-4.32-6.47v9.86H217Z"/><path class="cls-1" d="M233.22,92.76,234.68,91a6.41,6.41,0,0,0,4.36,1.8c1.5,0,2.44-.71,2.44-1.74v0c0-1-.55-1.52-3.11-2.11-2.94-.71-4.6-1.58-4.6-4.12v0c0-2.37,2-4,4.72-4a7.68,7.68,0,0,1,5,1.74l-1.31,1.83a6.29,6.29,0,0,0-3.74-1.42c-1.42,0-2.25.73-2.25,1.64v0c0,1.07.63,1.54,3.29,2.17,2.92.71,4.42,1.76,4.42,4v0c0,2.59-2,4.13-4.93,4.13A8.51,8.51,0,0,1,233.22,92.76Z"/><path class="cls-1" d="M299.07,51.4H276.51l.13-1.62,1.7-.22c1.1-.13,1.53-.4,1.53-.79V26.64c0-.39-.26-.57-1.62-.74l-1.61-.22-.13-1.62h22.65v8.57h-2.54l-1-3.93c-.75-2.58-1.45-2.8-9-2.8h-1.79V36.61H286c2.93,0,3.76-.13,4.16-1.18l1-2.93h2l-1,10h-1.92l-.4-2.75c-.13-1-.52-1.27-4-1.27h-1V49.56h1.66c8,0,8.79-.31,9.66-2.8l1-3.63h2.75Z"/><path class="cls-1" d="M313.29,51.4l.13-1.58.74-.22c1.31-.26,1.45-.83.22-2.45l-2.71-3.89h-.09l-2.84,3.81c-1.27,1.66-1.44,2.31,0,2.58l.88.17.13,1.58h-8.22l.13-1.58,1.27-.3c1.22-.22,1.88-.84,3.41-2.63l4.15-5-4.37-5.77c-1.31-1.75-1.93-2.27-3.06-2.49l-1-.35L302,31.67h10.23l-.13,1.62-.74.22c-1.31.22-1.36.78-.09,2.45l2.23,3.28h.09L316,36c1.18-1.57,1.4-2.32,0-2.54l-.92-.17-.13-1.62h8.31l-.14,1.62-1.26.31c-1.36.21-2,.78-3.5,2.62l-3.68,4.37L319.41,47c1.31,1.75,2,2.23,3.06,2.49l.88.31.09,1.62Z"/><path class="cls-1" d="M335.11,52.05a15.92,15.92,0,0,1-3.85-.57h0v8.14c0,.43.26.7,1.66.79l1.58.13.13,1.61H324l.14-1.61,1.22-.13c1.05-.09,1.49-.31,1.49-.84V38.06c0-2.76-.31-3.15-1.88-3.59l-1-.22.05-1.27,7.17-2V34.6h.22a8.56,8.56,0,0,1,6.21-3.28c4.81,0,7.92,4.2,7.92,9.45C345.57,46.58,341.67,52.05,335.11,52.05Zm.44-17.32a5.73,5.73,0,0,0-4.33,2.1V47.5c1.36,1.53,2.84,2.67,4.72,2.67,2.58,0,4.9-2.93,4.9-7.65S338.65,34.73,335.55,34.73Z"/><path class="cls-1" d="M357.37,52.05c-5.16,0-9-4.15-9-9.84,0-6.47,4.55-11.2,10.41-11.2,4.2,0,7.13,2.59,7.13,6.7a11.18,11.18,0,0,1-.27,2.4L353,39.94v.48c0,4.9,2.71,8.18,6.47,8.18a7.06,7.06,0,0,0,5.42-2.54l.92.52A8.76,8.76,0,0,1,357.37,52.05Zm.57-19.24c-2.27,0-4.46,2-4.9,5.68l8.31,0C361.53,34.91,360.13,32.81,357.94,32.81Z"/><path class="cls-1" d="M382.52,36.44A2.92,2.92,0,0,1,380,34.86,12,12,0,0,0,376,39.19v9.67c0,.44.26.7,1.66.79l1.58.13.13,1.62h-10.5l.13-1.62,1.14-.13c1-.09,1.49-.31,1.49-.83V38.06c0-2.76-.35-3.15-1.88-3.59l-1-.22,0-1.27L376,31v5.56h.22c2.19-3.63,3.72-5.56,5.91-5.56a2.63,2.63,0,0,1,2.84,2.8A2.38,2.38,0,0,1,382.52,36.44Z"/><path class="cls-1" d="M393.94,52.05c-3.15,0-5.47-1.88-5.38-6.3l.26-11.37-3.45-.26,0-1.44,5.95-5.16,1.75.26-.05,4h7.13l-.3,2.41h-6.83l-.26,10.32c-.09,3.28,1.44,4.33,3.67,4.33a8.22,8.22,0,0,0,3.68-1l.17,1.18A8.82,8.82,0,0,1,393.94,52.05Z"/><path class="cls-1" d="M286,89.21A24.65,24.65,0,0,1,277.85,88l-.52-8.06h2.3l2,6.19a12.72,12.72,0,0,0,5,1.09c3.75,0,5.54-2.31,5.54-4.62,0-3.58-2.92-4.66-6.63-6-4.31-1.53-7.88-3.23-7.88-8.06,0-3.92,3.05-7.72,9.58-7.8a28,28,0,0,1,5.62.56l2.27-.61v8.85h-2.27l-1.57-5.8a12,12,0,0,0-4.53-.87c-3.26,0-4.92,1.88-4.92,4,0,3.27,2.88,4.31,6.32,5.58,4.66,1.65,8.36,3.39,8.36,8.45C296.45,85.16,292.62,89.17,286,89.21Z"/><path class="cls-1" d="M308.74,89.21c-5.14,0-8.93-4.13-8.93-9.8,0-6.45,4.53-11.15,10.37-11.15,4.18,0,7.1,2.57,7.1,6.66a11.15,11.15,0,0,1-.26,2.4l-12.68-.17v.47c0,4.88,2.7,8.15,6.45,8.15a7,7,0,0,0,5.4-2.52l.92.52A8.74,8.74,0,0,1,308.74,89.21ZM309.31,70c-2.27,0-4.45,2-4.88,5.67l8.28,0C312.88,72.13,311.49,70,309.31,70Z"/><path class="cls-1" d="M331.36,99.28l.13-1.61,1.65-.13c1.22-.09,1.48-.35,1.48-.83V86.17h-.13a8.33,8.33,0,0,1-6.05,3c-4.75,0-8.06-4.14-8.06-9.67,0-5.88,4.09-11,10.85-11a13.53,13.53,0,0,1,4.7,1H336l2.48-1.22H339V96.71c0,.44.22.65,1.74.83l1,.13.13,1.61Zm3.26-26.1c-1.3-1.53-2.74-2.75-4.7-2.75-2.79,0-4.88,2.88-4.88,7.46,0,4.88,2.26,8,5.66,8a5.8,5.8,0,0,0,3.92-1.65Z"/><path class="cls-1" d="M365.34,88.39l-7.36.82V86h-.22c-2.35,1.88-4.7,3.18-7.1,3.18A5.22,5.22,0,0,1,347,87.78a6.64,6.64,0,0,1-1.65-5l.08-11.33c0-.7-.3-.61-1.87-.83l-1-.13-.13-1.61H350l-.27,11.42c0,4.27,1.36,5.44,3.88,5.44A7.93,7.93,0,0,0,358,84.2V71.44c0-.44-.26-.66-1.66-.79l-1.48-.13-.17-1.61h7.62V85.16c0,.66.18,1.14.61,1.27l2.58.78Z"/><path class="cls-1" d="M376.2,89.21c-5.15,0-8.94-4.13-8.94-9.8,0-6.45,4.53-11.15,10.37-11.15,4.19,0,7.11,2.57,7.11,6.66a11.18,11.18,0,0,1-.27,2.4l-12.68-.17v.47c0,4.88,2.71,8.15,6.45,8.15a7.07,7.07,0,0,0,5.41-2.52l.91.52A8.72,8.72,0,0,1,376.2,89.21ZM376.76,70c-2.26,0-4.44,2-4.88,5.67l8.28,0C380.33,72.13,378.94,70,376.76,70Z"/><path class="cls-1" d="M400.34,88.56l.13-1.61.95-.13c1.27-.09,1.49-.39,1.49-.83v-8.8c0-4.32-1.35-5.49-3.88-5.49a7.42,7.42,0,0,0-4.32,1.61V86c0,.44.27.7,1.66.79l1.31.13.13,1.61h-10.2l.13-1.61,1.13-.13c1.05-.09,1.49-.31,1.49-.83V75.27c0-2.74-.35-3.14-1.88-3.57l-1-.22.05-1.26,7.14-2v3.18h.22c2.31-1.88,4.66-3.18,7.06-3.18a5.27,5.27,0,0,1,3.62,1.43,6.64,6.64,0,0,1,1.65,5V86c0,.39.22.65,1.79.83l1.05.13.13,1.61Z"/><path class="cls-1" d="M421.21,89.21c-5.19,0-9-4.13-9-9.8,0-6.49,4.75-11.15,10.59-11.15,4.18,0,6.49,2,6.49,4.35a2.37,2.37,0,0,1-2.66,2.49c-1.83,0-3-2.09-2.48-4.32V70.7a3.79,3.79,0,0,0-2.09-.57c-2.92,0-5.27,2.57-5.27,7.23,0,4.88,2.65,8.41,6.4,8.41a7.07,7.07,0,0,0,5.41-2.52l.91.52A8.72,8.72,0,0,1,421.21,89.21Z"/><path class="cls-1" d="M431.88,88.56,432,87l1.09-.13c1-.09,1.49-.31,1.49-.83V75.27c0-2.74-.31-3.14-1.88-3.57l-.91-.22,0-1.26,7.1-2V86c0,.44.26.7,1.66.79l1.09.13.13,1.61Zm4.49-23.66A2.9,2.9,0,1,1,439.12,62,2.72,2.72,0,0,1,436.37,64.9Z"/><path class="cls-1" d="M456.9,88.56,457,87l1-.13c1.27-.09,1.49-.39,1.49-.83v-8.8c0-4.32-1.35-5.49-3.88-5.49a7.42,7.42,0,0,0-4.32,1.61V86c0,.44.27.7,1.66.79l1.31.13.13,1.61h-10.2L444.3,87l1.14-.13c1-.09,1.48-.31,1.48-.83V75.27c0-2.74-.35-3.14-1.88-3.57l-1-.22.05-1.26,7.14-2v3.18h.22c2.31-1.88,4.66-3.18,7.06-3.18a5.27,5.27,0,0,1,3.62,1.43,6.64,6.64,0,0,1,1.65,5V86c0,.39.22.65,1.79.83l1.05.13.13,1.61Z"/><path class="cls-1" d="M484,71.79V72a5.42,5.42,0,0,1,1,3.14c0,4.14-3.39,7.28-8.14,7.28a11.45,11.45,0,0,1-2.57-.31c-.57.26-1.57,1.09-1.57,1.88,0,1.17,1.09,2,2.78,2s3.8-.13,5.28-.13a6.08,6.08,0,0,1,6.4,6c0,4.57-4.7,8.1-11.59,8.1-4.75,0-7.88-2-7.88-5.1,0-2.66,1.87-4.05,4.22-5v-.18a3.77,3.77,0,0,1-3-3.48c0-1.79,1.61-3.53,3.74-4.32,0-.22.13-.22.13-.22a6.2,6.2,0,0,1-3.87-6c0-4,3.13-7.32,8.14-7.32a12.14,12.14,0,0,1,5.36,1.26h6.15l-.05,3ZM479.69,90c-1.44-.13-3.06,0-5.93,0a4.09,4.09,0,0,0-2.22,3.49c0,2.66,2.44,4.49,6.14,4.49,3.44,0,5.84-1.92,5.84-4.4C483.52,91.57,482.52,90.26,479.69,90Zm-.35-19.17a3.27,3.27,0,0,0-2.27-1c-2.22,0-3.75,1.88-3.75,5.06a6.9,6.9,0,0,0,1.66,5,3,3,0,0,0,2,.88,3.51,3.51,0,0,0,2.49-.88c.87-.82,1.3-2.31,1.3-4.44A6.49,6.49,0,0,0,479.34,70.87Z"/><path class="cls-1" d="M214.13,70.94v0a4.38,4.38,0,0,1,4.39-4.37,4.33,4.33,0,0,1,4.35,4.34v0a4.37,4.37,0,0,1-8.74,0Zm8.24,0v0a3.87,3.87,0,1,0-7.73,0v0a3.8,3.8,0,0,0,3.85,3.86A3.85,3.85,0,0,0,222.37,70.92Zm-5.67-2.45h2.07a2,2,0,0,1,1.44.5,1.43,1.43,0,0,1,.38,1v0a1.45,1.45,0,0,1-1,1.44l1.13,1.66h-1.19l-1-1.49h-.81v1.49h-1Zm2.06,2.27c.52,0,.79-.28.79-.67v0c0-.45-.31-.68-.82-.68h-1v1.37Z"/></svg>