<svg id="Layer_1" data-name="Layer 1" xmlns="http://www.w3.org/2000/svg" viewBox="0 0 579.23 100"><defs><style>.cls-1{fill:#fff;}.cls-2{fill:#ff6f00;}</style></defs><path class="cls-1" d="M214.67,70.73v0a4.37,4.37,0,0,1,8.73,0v0a4.37,4.37,0,0,1-8.73,0Zm8.23,0v0a3.86,3.86,0,1,0-7.72,0v0a3.86,3.86,0,1,0,7.72,0Zm-5.66-2.45h2.06a2,2,0,0,1,1.44.51,1.39,1.39,0,0,1,.38,1v0a1.44,1.44,0,0,1-1,1.43l1.14,1.67h-1.2l-1-1.5h-.8v1.5h-1Zm2,2.27c.52,0,.8-.28.8-.66v0c0-.44-.32-.67-.82-.67h-1v1.36Z"/><path class="cls-1" d="M6.78,81.32H8.94l5.85,13.37H12.32L11,91.49H4.7l-1.37,3.2H.94Zm3.34,8.1L7.83,84.11,5.55,89.42Z"/><path class="cls-1" d="M17.07,81.42H22c4.17,0,7.05,2.86,7.05,6.6v0c0,3.74-2.88,6.64-7,6.64H17.07Zm2.33,2.12v9H22a4.33,4.33,0,0,0,4.61-4.48v0A4.36,4.36,0,0,0,22,83.54Z"/><path class="cls-1" d="M29.91,81.42h2.58l4,10.2,4-10.2H43L37.5,94.79H35.41Z"/><path class="cls-1" d="M48.09,81.32h2.16l5.84,13.37H53.62l-1.34-3.2H46l-1.37,3.2H42.24Zm3.33,8.1-2.29-5.31-2.28,5.31Z"/><path class="cls-1" d="M58.37,81.42h2.16l7.12,9.18V81.42h2.29V94.69H68l-7.33-9.44v9.44H58.37Z"/><path class="cls-1" d="M72.77,88.09v0a6.71,6.71,0,0,1,6.83-6.86,6.91,6.91,0,0,1,5.21,2.07L83.32,85a5.35,5.35,0,0,0-3.74-1.63A4.45,4.45,0,0,0,75.22,88v0a4.48,4.48,0,0,0,4.38,4.71,5.2,5.2,0,0,0,3.81-1.71l1.5,1.52a6.86,6.86,0,0,1-5.39,2.35A6.66,6.66,0,0,1,72.77,88.09Z"/><path class="cls-1" d="M87.38,81.42h9.84V83.5H89.71V87h6.66v2.11H89.71v3.55h7.61v2.08H87.38Z"/><path class="cls-1" d="M100.09,81.42h5c4.17,0,7.06,2.86,7.06,6.6v0c0,3.74-2.89,6.64-7.06,6.64h-5Zm2.33,2.12v9H105a4.33,4.33,0,0,0,4.61-4.48v0A4.36,4.36,0,0,0,105,83.54Z"/><path class="cls-1" d="M120.62,81.42h5.23c3.11,0,5.05,1.76,5.05,4.43v0c0,3-2.39,4.54-5.31,4.54H123v4.26h-2.33Zm5,6.9c1.77,0,2.87-1,2.87-2.37v0c0-1.55-1.12-2.37-2.87-2.37H123v4.78Z"/><path class="cls-1" d="M133.29,81.42h5.92A5.36,5.36,0,0,1,143,82.74a4,4,0,0,1,1.1,2.87v0a4,4,0,0,1-3.15,4l3.59,5h-2.77l-3.26-4.62h-2.93v4.62h-2.33ZM139,88c1.67,0,2.73-.88,2.73-2.22v0c0-1.42-1-2.2-2.75-2.2h-3.4V88Z"/><path class="cls-1" d="M146.42,88.09v0a6.95,6.95,0,0,1,13.89,0v0a6.81,6.81,0,0,1-7,6.87A6.74,6.74,0,0,1,146.42,88.09Zm11.44,0v0a4.53,4.53,0,0,0-4.52-4.7A4.47,4.47,0,0,0,148.87,88v0a4.53,4.53,0,0,0,4.51,4.71A4.47,4.47,0,0,0,157.86,88.09Z"/><path class="cls-1" d="M162.55,88.09v0a6.76,6.76,0,0,1,6.84-6.86A7.17,7.17,0,0,1,174.5,83L173,84.75a5.3,5.3,0,0,0-3.72-1.4A4.47,4.47,0,0,0,165,88v0a4.44,4.44,0,0,0,4.52,4.75,5.38,5.38,0,0,0,3.2-1V89.33h-3.39v-2H175v5.57a8.47,8.47,0,0,1-5.54,2.07A6.59,6.59,0,0,1,162.55,88.09Z"/><path class="cls-1" d="M178,81.42h5.92a5.36,5.36,0,0,1,3.83,1.32,4,4,0,0,1,1.1,2.87v0a4,4,0,0,1-3.15,4l3.59,5h-2.77l-3.27-4.62h-2.92v4.62H178ZM183.76,88c1.67,0,2.73-.88,2.73-2.22v0c0-1.42-1-2.2-2.75-2.2h-3.4V88Z"/><path class="cls-1" d="M196.43,81.32h2.16l5.85,13.37H202l-1.35-3.2h-6.28L193,94.69h-2.39Zm3.34,8.1-2.3-5.31-2.27,5.31Z"/><path class="cls-1" d="M206.71,81.42h2.49l4,6.27,4-6.27h2.48V94.69h-2.33V85.17l-4.19,6.26h-.08L209,85.21v9.48h-2.3Z"/><path class="cls-1" d="M222.29,92.76l1.4-1.67a6.17,6.17,0,0,0,4.2,1.73c1.44,0,2.35-.69,2.35-1.67v0c0-1-.53-1.46-3-2-2.82-.68-4.42-1.52-4.42-4v0c0-2.28,1.9-3.85,4.54-3.85a7.33,7.33,0,0,1,4.81,1.66l-1.25,1.77a6,6,0,0,0-3.6-1.37c-1.37,0-2.16.71-2.16,1.58v0c0,1,.6,1.48,3.16,2.08,2.81.69,4.25,1.69,4.25,3.89v0c0,2.48-1.95,4-4.74,4A8.18,8.18,0,0,1,222.29,92.76Z"/><rect class="cls-1" x="269.21" y="17.15" width="1.08" height="82.76"/><path class="cls-1" d="M0,25.91v-.08A15.35,15.35,0,0,1,15.74,10.21c5.69,0,9.1,1.9,11.9,4.66l-4.22,4.88c-2.33-2.12-4.7-3.41-7.72-3.41-5.09,0-8.76,4.22-8.76,9.4v.09c0,5.17,3.58,9.48,8.76,9.48,3.45,0,5.56-1.38,7.93-3.53l4.23,4.27a15.45,15.45,0,0,1-12.38,5.39A15.24,15.24,0,0,1,0,25.91Z"/><path class="cls-1" d="M33.17,10.73h6.64v12H52.05V10.73H58.7V40.92H52.05V28.8H39.81V40.92H33.17Z"/><path class="cls-1" d="M65.94,10.73H88.71v5.91H72.54v6.12H86.77v5.91H72.54V35H88.93v5.91h-23Z"/><path class="cls-1" d="M94.84,10.73h22.77v5.91H101.44v6.12h14.23v5.91H101.44V35h16.39v5.91h-23Z"/><path class="cls-1" d="M123.74,10.73h6.64v13.2l12.16-13.2h8.15L138.36,23.54l12.85,17.38h-8l-9.36-12.85-3.49,3.62v9.23h-6.64Z"/><path class="cls-1" d="M164.51,29,152.9,10.73h7.77l7.2,12.12,7.33-12.12h7.55l-11.6,18.16v12h-6.64Z"/><path class="cls-1" d="M.39,70.92l3.7-4.43A13.07,13.07,0,0,0,12.58,70c2.56,0,4.11-1,4.11-2.69v-.08c0-1.58-1-2.4-5.73-3.62-5.74-1.46-9.44-3.05-9.44-8.7v-.08c0-5.16,4.15-8.58,10-8.58a16.5,16.5,0,0,1,10.57,3.62L18.8,54.54a13.35,13.35,0,0,0-7.4-2.81c-2.4,0-3.66,1.1-3.66,2.48v.08c0,1.87,1.22,2.48,6.14,3.74,5.78,1.51,9,3.58,9,8.54v.08c0,5.65-4.31,8.82-10.45,8.82A18.08,18.08,0,0,1,.39,70.92Z"/><path class="cls-1" d="M27.09,60.92v-.08A14.47,14.47,0,0,1,41.93,46.12c5.37,0,8.58,1.79,11.22,4.39l-4,4.6c-2.2-2-4.43-3.21-7.28-3.21-4.8,0-8.25,4-8.25,8.86v.08c0,4.88,3.37,8.94,8.25,8.94,3.25,0,5.25-1.3,7.48-3.33l4,4a14.56,14.56,0,0,1-11.67,5.09A14.37,14.37,0,0,1,27.09,60.92Z"/><path class="cls-1" d="M58.64,46.61H64.9V75.07H58.64Z"/><path class="cls-1" d="M72,46.61H93.48v5.57H78.23V58H91.65v5.57H78.23v6H93.68v5.57H72Z"/><path class="cls-1" d="M99.25,46.61H105l13.33,17.52V46.61h6.18V75.07h-5.32L105.43,57V75.07H99.25Z"/><path class="cls-1" d="M138,52.38h-8.66V46.61H152.9v5.77h-8.65V75.07H138Z"/><path class="cls-1" d="M158,46.61h6.26V75.07H158Z"/><path class="cls-1" d="M169.41,70.92l3.7-4.43A13.07,13.07,0,0,0,181.6,70c2.56,0,4.11-1,4.11-2.69v-.08c0-1.58-1-2.4-5.73-3.62-5.74-1.46-9.44-3.05-9.44-8.7v-.08c0-5.16,4.15-8.58,10-8.58a16.5,16.5,0,0,1,10.57,3.62l-3.25,4.72a13.35,13.35,0,0,0-7.4-2.81c-2.4,0-3.66,1.1-3.66,2.48v.08c0,1.87,1.22,2.48,6.14,3.74,5.78,1.51,9,3.58,9,8.54v.08c0,5.65-4.31,8.82-10.45,8.82A18.08,18.08,0,0,1,169.41,70.92Z"/><path class="cls-1" d="M203.39,52.38h-8.66V46.61h23.58v5.77h-8.66V75.07h-6.26Z"/><path class="cls-2" d="M261.81,29.92a13.67,13.67,0,0,0-5-10.54,16.32,16.32,0,0,0-12.62-12,13.67,13.67,0,0,0-20-4.77,15.48,15.48,0,0,0-20.64,3.08,14.22,14.22,0,1,0-3.7,28.2,15.38,15.38,0,0,0,8.41,8.19c3.49,1.41,9,2.59,16.74-3.42l.09-.08c5.71-4.89,9.59-6.13,13.83-4.42A9.36,9.36,0,0,1,245,41.24c.64,3.72-.27,9.09-2.3,13.68a42.9,42.9,0,0,1-3.63,6.47c-2.88-13-13.48-19.65-14-20l-2.66,4.34a28.42,28.42,0,0,1,6.23,5.73A25.59,25.59,0,0,1,234.68,68v7l4.5-5.41A54.48,54.48,0,0,0,247.33,57a34.12,34.12,0,0,0,2.94-13.55A13.7,13.7,0,0,0,261.81,29.92ZM232.12,5.18a8.58,8.58,0,0,1,5.77,2.22c-6.3,1.3-9.86,6.52-12.53,11.65h0a8.58,8.58,0,0,1,6.76-13.88Zm-16.57-.09a10.45,10.45,0,0,1,5.06,1.31,13.63,13.63,0,0,0,1.63,16.82,9,9,0,0,1-6.69,2.68,10.41,10.41,0,0,1,0-20.81ZM192.36,19.78a9.14,9.14,0,0,1,8.47-9.1,15.46,15.46,0,0,0-.13,9.22,15.24,15.24,0,0,0-2.12,8.54A9.16,9.16,0,0,1,192.36,19.78ZM221.83,34.7c-4.45,3.45-7.84,4.23-11.66,2.68a10.4,10.4,0,0,1-6.31-11.73A15.47,15.47,0,0,0,215.55,31c3.77,0,9.33-1,14.24-9.44l.06-.1c3.47-6.68,6.6-9.28,11.17-9.28a11.29,11.29,0,0,1,8.72,4.17,14,14,0,0,0-1.6-.1,13.59,13.59,0,0,0-12.27,7.64,13.25,13.25,0,0,0-1.32,4.5C229.65,28.68,225.44,31.6,221.83,34.7Zm27.67,3.7a14.77,14.77,0,0,0-8.67-8.94c-.42-.17-.83-.31-1.23-.44a8.35,8.35,0,0,1,.83-2.89A8.59,8.59,0,1,1,249.5,38.4Z"/><path class="cls-1" d="M300.65,52.45l.14-1.63,2.39-.31c.84-.14,1.1-1.69.88-8.55l-.48-14.35h-.36l-8.28,24h-3l-7.84-23.08h-.53l-.62,13.29c-.36,7.93-.31,8.59.57,8.73l2.48.31.14,1.63h-9.66l.13-1.63,2.39-.31c.89-.14,1.38-.63,1.82-8.73l.58-11.43c.13-2-.54-3.14-1.82-3.45l-2.48-.45L277,24.77H288l6.82,20.11h.31l6.73-20.11H312.7l-.13,1.68-2.93.23a1.2,1.2,0,0,0-1,1.32l.44,14c.18,7.26.57,8.41,1.46,8.55l2.35.31.13,1.63Z"/><path class="cls-1" d="M324,53.12c-5.23,0-9.08-4.21-9.08-10,0-6.55,4.6-11.34,10.54-11.34,4.25,0,7.22,2.62,7.22,6.78a11.61,11.61,0,0,1-.27,2.44l-12.89-.18v.49c.05,5,2.75,8.28,6.56,8.28a7.17,7.17,0,0,0,5.49-2.57l.93.53A8.87,8.87,0,0,1,324,53.12Zm.57-19.49c-2.3,0-4.52,2-5,5.76l8.42,0C328.24,35.76,326.83,33.63,324.61,33.63Z"/><path class="cls-1" d="M357.87,52.28l-7.53.84V50h-.13a8.48,8.48,0,0,1-6.16,3c-4.83,0-8.19-4.2-8.19-9.83,0-6,4.16-11.2,11-11.2a13.61,13.61,0,0,1,3.41.53h0V26.14c0-.66-.18-1.06-.57-1.24l-2.93-1,.18-1.15,7.75-1.07V49c0,.66.18,1.15.62,1.28l2.61.8Zm-7.53-15.46C349,35.27,347.55,34,345.56,34c-2.84,0-5,2.92-5,7.57,0,5,2.3,8.15,5.76,8.15a5.81,5.81,0,0,0,4-1.68Z"/><path class="cls-1" d="M359.77,52.45l.14-1.63,1.1-.14c1.07-.09,1.51-.31,1.51-.84V39c0-2.8-.31-3.19-1.9-3.64l-.93-.22,0-1.28,7.22-2V49.88c0,.45.26.71,1.68.8l1.11.14.13,1.63Zm4.57-24.05a2.76,2.76,0,0,1-2.79-3,2.79,2.79,0,1,1,5.58,0A2.76,2.76,0,0,1,364.34,28.4Z"/><path class="cls-1" d="M381.61,53.12c-5.27,0-9.13-4.21-9.13-10,0-6.6,4.83-11.34,10.77-11.34,4.25,0,6.6,2.09,6.6,4.43a2.41,2.41,0,0,1-2.71,2.53c-1.86,0-3-2.13-2.52-4.39v-.09a3.91,3.91,0,0,0-2.13-.57c-3,0-5.36,2.61-5.36,7.35,0,5,2.71,8.55,6.52,8.55a7.18,7.18,0,0,0,5.49-2.57l.93.53A8.85,8.85,0,0,1,381.61,53.12Z"/><path class="cls-1" d="M407.12,53.21c-1.73,0-3.1-1.07-3.24-3.5h-.22c-1.59,1.9-3.32,3.41-5.62,3.41a5.24,5.24,0,0,1-5.41-5.18c0-3.68,3.59-5.81,11.25-7.67v-.4c.05-4.34-1.63-5.71-4.34-5.71-1.46,0-3.14.58-3.14.93s1.06,1,1.06,2.35A2.34,2.34,0,0,1,395,39.65a2.29,2.29,0,0,1-2.48-2.21c0-2.39,5.05-5.63,9.13-5.63,5,0,6.95,2.09,6.68,9l-.31,7.4c-.08,1.24.27,1.81,1,1.81a4.12,4.12,0,0,0,2.13-1.06L411.9,50C410.53,51.79,408.8,53.21,407.12,53.21ZM403.8,41.82c-5.54,1.42-6.82,3.15-6.82,5a3,3,0,0,0,3,3.1,5.44,5.44,0,0,0,3.59-1.77Z"/><path class="cls-1" d="M413.14,52.45l.13-1.63,1.15-.14c1.07-.09,1.51-.31,1.51-.84V27.38a1.25,1.25,0,0,0-.62-1.28L412.7,25l.13-1.2,7.53-2.17v28.3c0,.45.26.71,1.68.8l1.11.14.13,1.63Z"/><path class="cls-1" d="M476.92,26.45l-1,.31c-2,.67-2.52,1-5.09,8.77l-5.49,17h-3.55L456,34.38h-.22L449.41,52.5h-3.63l-8.15-24.23A1.75,1.75,0,0,0,436,26.9l-2.13-.45-.13-1.68h12.8l-.14,1.68-2,.31c-1.51.23-1.33,1.11-.22,4.66l4.74,15.36h.26l5.49-15.41-1-3.1A1.85,1.85,0,0,0,452,26.9l-2-.45-.14-1.68h12.63l-.13,1.68-2.09.31c-1.37.23-1.28,1.2-.17,4.66l4.65,15.41.31,0,3.41-11.25c2.26-7.39,2-8.28-.22-8.77l-1.64-.31-.18-1.68h10.63Z"/><path class="cls-1" d="M489.49,37.31a2.94,2.94,0,0,1-2.52-1.6,12,12,0,0,0-4.12,4.39v9.78c0,.45.26.71,1.68.8l1.6.14.13,1.63H475.63l.13-1.63,1.15-.14c1.07-.09,1.51-.31,1.51-.84V39c0-2.8-.35-3.19-1.91-3.64l-1-.22,0-1.28,7.27-2v5.63h.22c2.22-3.68,3.77-5.63,6-5.63a2.67,2.67,0,0,1,2.88,2.84A2.41,2.41,0,0,1,489.49,37.31Z"/><path class="cls-1" d="M493.39,52.45l.13-1.63,1.11-.14c1.06-.09,1.5-.31,1.5-.84V39c0-2.8-.31-3.19-1.9-3.64l-.93-.22,0-1.28,7.22-2V49.88c0,.45.27.71,1.69.8l1.1.14.14,1.63ZM498,28.4a2.76,2.76,0,0,1-2.79-3,2.79,2.79,0,1,1,5.58,0A2.76,2.76,0,0,1,498,28.4Z"/><path class="cls-1" d="M513.63,53.12c-3.19,0-5.54-1.91-5.45-6.38l.27-11.52L505,35l0-1.46,6-5.23,1.78.27,0,4.07H520l-.31,2.44h-6.91l-.26,10.45c-.09,3.32,1.46,4.38,3.72,4.38a8.38,8.38,0,0,0,3.72-1l.17,1.19A8.94,8.94,0,0,1,513.63,53.12Z"/><path class="cls-1" d="M522.13,52.45l.13-1.63,1.11-.14c1.06-.09,1.51-.31,1.51-.84V39c0-2.8-.31-3.19-1.91-3.64l-.93-.22.05-1.28,7.21-2V49.88c0,.45.27.71,1.69.8l1.11.14.13,1.63Zm4.56-24.05a2.76,2.76,0,0,1-2.79-3,2.79,2.79,0,1,1,5.58,0A2.76,2.76,0,0,1,526.69,28.4Z"/><path class="cls-1" d="M547.55,52.45l.13-1.63,1-.14c1.28-.09,1.51-.4,1.51-.84v-9c0-4.38-1.38-5.58-3.95-5.58A7.47,7.47,0,0,0,541.84,37V49.88c0,.45.26.71,1.68.8l1.33.14.13,1.63H534.62l.13-1.63,1.15-.14c1.07-.09,1.51-.31,1.51-.84V39c0-2.8-.36-3.19-1.91-3.64l-1-.22,0-1.28,7.27-2v3.24h.22c2.35-1.91,4.74-3.24,7.17-3.24a5.28,5.28,0,0,1,3.68,1.47c1.2,1.19,1.68,2.83,1.68,5V49.84c0,.4.23.67,1.82.84l1.06.14.14,1.63Z"/><path class="cls-1" d="M575.14,35.4v.22a5.47,5.47,0,0,1,1,3.19c0,4.21-3.45,7.4-8.28,7.4a11.82,11.82,0,0,1-2.61-.31c-.58.26-1.6,1.11-1.6,1.9,0,1.2,1.11,2,2.84,2s3.85-.14,5.36-.14a6.19,6.19,0,0,1,6.51,6.07c0,4.65-4.79,8.24-11.79,8.24-4.82,0-8-2-8-5.18,0-2.7,1.9-4.12,4.29-5v-.18a3.82,3.82,0,0,1-3-3.54c0-1.82,1.64-3.59,3.81-4.39,0-.22.13-.22.13-.22a6.31,6.31,0,0,1-3.94-6.15c0-4.08,3.19-7.45,8.28-7.45a12.41,12.41,0,0,1,5.45,1.29h6.24l0,3.1ZM570.71,54c-1.46-.13-3.1,0-6,0a4.14,4.14,0,0,0-2.26,3.54c0,2.7,2.48,4.57,6.25,4.57,3.5,0,5.93-2,5.93-4.48C574.61,55.51,573.59,54.18,570.71,54Zm-.35-19.49a3.29,3.29,0,0,0-2.3-1c-2.26,0-3.81,1.9-3.81,5.13a7.06,7.06,0,0,0,1.68,5,3,3,0,0,0,2,.89,3.55,3.55,0,0,0,2.52-.89c.89-.84,1.33-2.34,1.33-4.51A6.58,6.58,0,0,0,570.36,34.47Z"/><path class="cls-1" d="M292.24,89.19c-8.55,0-14.66-5.8-14.66-14.26a14.66,14.66,0,0,1,14.83-14.7c8.51,0,14.58,5.8,14.58,14.26A14.6,14.6,0,0,1,292.24,89.19Zm-.05-27.1c-5,0-9,4.34-9,12.31,0,8.19,4.25,12.93,9.25,12.93s9-4.29,9-12.31S297.2,62.09,292.19,62.09Z"/><path class="cls-1" d="M324.08,73.34a2.94,2.94,0,0,1-2.52-1.6,11.91,11.91,0,0,0-4.12,4.39v9.79c0,.44.26.7,1.68.79l1.59.13.14,1.64H310.22l.13-1.64,1.15-.13c1.06-.09,1.51-.31,1.51-.84V75c0-2.79-.36-3.18-1.91-3.63l-1-.22,0-1.28,7.27-2v5.63h.22c2.21-3.68,3.76-5.63,6-5.63a2.67,2.67,0,0,1,2.88,2.84A2.42,2.42,0,0,1,324.08,73.34Z"/><path class="cls-1" d="M343.61,71.43v.22a5.5,5.5,0,0,1,1,3.19c0,4.21-3.46,7.4-8.28,7.4a12,12,0,0,1-2.62-.31c-.57.26-1.59,1.11-1.59,1.9,0,1.2,1.11,2,2.83,2s3.86-.14,5.36-.14a6.19,6.19,0,0,1,6.51,6.07c0,4.65-4.78,8.24-11.78,8.24-4.83,0-8-2-8-5.18,0-2.7,1.91-4.12,4.3-5v-.18a3.81,3.81,0,0,1-3-3.54c0-1.82,1.63-3.59,3.8-4.39,0-.22.14-.22.14-.22a6.31,6.31,0,0,1-3.94-6.16c0-4.07,3.18-7.44,8.28-7.44A12.44,12.44,0,0,1,342,69.13h6.24l0,3.1ZM339.18,90c-1.46-.13-3.1,0-6,0a4.14,4.14,0,0,0-2.26,3.54c0,2.71,2.48,4.57,6.24,4.57,3.5,0,5.94-1.95,5.94-4.48C343.08,91.54,342.06,90.21,339.18,90Zm-.35-19.49a3.31,3.31,0,0,0-2.31-1c-2.26,0-3.81,1.9-3.81,5.13a7,7,0,0,0,1.69,5,3,3,0,0,0,2,.89,3.56,3.56,0,0,0,2.53-.89c.89-.84,1.33-2.34,1.33-4.51A6.6,6.6,0,0,0,338.83,70.5Z"/><path class="cls-1" d="M364,89.24c-1.73,0-3.1-1.07-3.23-3.5h-.22c-1.6,1.9-3.32,3.41-5.63,3.41A5.23,5.23,0,0,1,349.5,84c0-3.68,3.59-5.81,11.25-7.67v-.4c0-4.34-1.64-5.71-4.34-5.71-1.46,0-3.15.58-3.15.93s1.07,1,1.07,2.35a2.34,2.34,0,0,1-2.48,2.21,2.28,2.28,0,0,1-2.48-2.21c0-2.39,5-5.63,9.12-5.63,5,0,6.95,2.09,6.69,9l-.31,7.4c-.09,1.24.26,1.81,1,1.81A4,4,0,0,0,368,84.94l.76,1.06C367.39,87.82,365.66,89.24,364,89.24Zm-3.32-11.39c-5.54,1.42-6.82,3.15-6.82,5A3,3,0,0,0,356.9,86a5.44,5.44,0,0,0,3.58-1.77Z"/><path class="cls-1" d="M382.94,88.48l.13-1.64,1-.13c1.29-.09,1.51-.4,1.51-.84v-9c0-4.38-1.37-5.58-3.94-5.58A7.5,7.5,0,0,0,377.22,73V85.92c0,.44.27.7,1.69.79l1.32.13.14,1.64H370l.14-1.64,1.15-.13c1.06-.09,1.5-.31,1.5-.84V75c0-2.79-.35-3.18-1.9-3.63l-1-.22,0-1.28,7.26-2v3.24h.22c2.35-1.91,4.74-3.24,7.18-3.24a5.32,5.32,0,0,1,3.68,1.47,6.71,6.71,0,0,1,1.68,5V85.87c0,.4.22.66,1.81.84l1.07.13.13,1.64Z"/><path class="cls-1" d="M394.89,88.48l.14-1.64,1.1-.13c1.07-.09,1.51-.31,1.51-.84V75c0-2.79-.31-3.18-1.91-3.63l-.93-.22.05-1.28,7.22-2V85.92c0,.44.26.7,1.68.79l1.11.13.13,1.64Zm4.56-24a2.95,2.95,0,1,1,2.8-3A2.76,2.76,0,0,1,399.45,64.43Z"/><path class="cls-1" d="M412.74,86.67h2.13c5.62,0,6.64-.53,7.79-2.84l1.6-3.19h2.3l-1.86,7.84H407.43V86.89l12.49-16.57-1.47.05c-5.44,0-6.37.44-6.95,2.79l-.93,3.19h-2.39V68.51h17.05V70.1Z"/><path class="cls-1" d="M443.21,89.24c-1.73,0-3.1-1.07-3.23-3.5h-.22c-1.6,1.9-3.32,3.41-5.63,3.41a5.23,5.23,0,0,1-5.4-5.18c0-3.68,3.59-5.81,11.25-7.67v-.4c0-4.34-1.64-5.71-4.34-5.71-1.46,0-3.15.58-3.15.93s1.07,1,1.07,2.35a2.34,2.34,0,0,1-2.48,2.21,2.28,2.28,0,0,1-2.48-2.21c0-2.39,5-5.63,9.12-5.63,5,0,6.95,2.09,6.69,9l-.31,7.4c-.09,1.24.26,1.81,1,1.81a4,4,0,0,0,2.12-1.06L448,86C446.62,87.82,444.89,89.24,443.21,89.24Zm-3.32-11.39c-5.54,1.42-6.82,3.15-6.82,5a3,3,0,0,0,3.06,3.1,5.44,5.44,0,0,0,3.58-1.77Z"/><path class="cls-1" d="M457,89.15c-3.18,0-5.53-1.91-5.44-6.38l.26-11.52L448.3,71l.05-1.46,6-5.23,1.77.27,0,4.07h7.22L463,71.08H456.1l-.27,10.45c-.09,3.32,1.46,4.39,3.72,4.39a8.4,8.4,0,0,0,3.72-1l.18,1.19A9,9,0,0,1,457,89.15Z"/><path class="cls-1" d="M465.49,88.48l.13-1.64,1.11-.13c1.06-.09,1.5-.31,1.5-.84V75c0-2.79-.31-3.18-1.9-3.63l-.93-.22,0-1.28,7.22-2V85.92c0,.44.27.7,1.68.79l1.11.13.13,1.64Zm4.56-24a2.95,2.95,0,1,1,2.79-3A2.76,2.76,0,0,1,470.05,64.43Z"/><path class="cls-1" d="M488.12,89.15c-6.16,0-9.92-4.7-9.92-10.54A10.7,10.7,0,0,1,489,67.84c6.07,0,9.92,4.57,9.92,10.19A10.83,10.83,0,0,1,488.12,89.15Zm3.67-17.85a4.55,4.55,0,0,0-3.41-1.51c-3,0-5.31,2.84-5.31,7.58,0,3.58.62,6.73,2.21,8.41a4.85,4.85,0,0,0,3.46,1.46c2.92,0,5.27-2.88,5.27-7.57C494,76.13,493.34,72.89,491.79,71.3Z"/><path class="cls-1" d="M514.56,88.48l.13-1.64,1-.13c1.28-.09,1.5-.4,1.5-.84v-9c0-4.38-1.37-5.58-3.94-5.58A7.52,7.52,0,0,0,508.84,73V85.92c0,.44.27.7,1.69.79l1.33.13.13,1.64H501.62l.14-1.64,1.15-.13c1.06-.09,1.5-.31,1.5-.84V75c0-2.79-.35-3.18-1.9-3.63l-1-.22,0-1.28,7.26-2v3.24h.23c2.34-1.91,4.73-3.24,7.17-3.24a5.32,5.32,0,0,1,3.68,1.47,6.71,6.71,0,0,1,1.68,5V85.87c0,.4.22.66,1.82.84l1.06.13.13,1.64Z"/></svg>