<svg id="Layer_1" data-name="Layer 1" xmlns="http://www.w3.org/2000/svg" viewBox="0 0 667.73 100"><defs><style>.cls-1{fill:#002b49;}.cls-2{fill:#ff5f00;}</style></defs><path class="cls-1" d="M6.79,81.39H9L14.8,94.78H12.33L11,91.57H4.7L3.33,94.78H.94Zm3.34,8.11-2.3-5.32L5.55,89.5Z"/><path class="cls-1" d="M17.08,81.49h5c4.17,0,7.06,2.86,7.06,6.6v0c0,3.74-2.89,6.65-7.06,6.65h-5Zm2.34,2.12v9H22a4.33,4.33,0,0,0,4.61-4.48v0A4.36,4.36,0,0,0,22,83.61Z"/><path class="cls-1" d="M29.94,81.49h2.58l4,10.21,4-10.21H43L37.53,94.87H35.44Z"/><path class="cls-1" d="M48.13,81.39h2.16l5.85,13.39H53.67l-1.35-3.21H46l-1.37,3.21H42.28Zm3.34,8.11-2.3-5.32L46.89,89.5Z"/><path class="cls-1" d="M58.42,81.49h2.16l7.13,9.19V81.49H70V94.78h-2l-7.33-9.46v9.46h-2.3Z"/><path class="cls-1" d="M72.83,88.17v0a6.72,6.72,0,0,1,6.84-6.87,6.92,6.92,0,0,1,5.22,2.07l-1.5,1.73a5.3,5.3,0,0,0-3.74-1.64,4.45,4.45,0,0,0-4.37,4.67v0a4.48,4.48,0,0,0,4.39,4.71,5.14,5.14,0,0,0,3.81-1.71L85,92.65A6.85,6.85,0,0,1,79.59,95,6.68,6.68,0,0,1,72.83,88.17Z"/><path class="cls-1" d="M87.46,81.49h9.85v2.09H89.79V87h6.66v2.11H89.79v3.55H97.4v2.09H87.46Z"/><path class="cls-1" d="M100.18,81.49h4.95c4.18,0,7.07,2.86,7.07,6.6v0c0,3.74-2.89,6.65-7.07,6.65h-4.95Zm2.33,2.12v9h2.62a4.34,4.34,0,0,0,4.62-4.48v0a4.37,4.37,0,0,0-4.62-4.52Z"/><path class="cls-1" d="M120.72,81.49H126c3.12,0,5,1.76,5,4.44v0c0,3-2.39,4.54-5.31,4.54h-2.64v4.27h-2.34Zm5,6.91c1.77,0,2.87-1,2.87-2.37v0c0-1.56-1.12-2.38-2.87-2.38h-2.71V88.4Z"/><path class="cls-1" d="M133.41,81.49h5.92a5.36,5.36,0,0,1,3.84,1.33,4,4,0,0,1,1.1,2.86v0a4,4,0,0,1-3.15,4l3.59,5h-2.78l-3.26-4.63h-2.93v4.63h-2.33Zm5.75,6.59c1.67,0,2.74-.88,2.74-2.23v0c0-1.43-1-2.21-2.76-2.21h-3.4v4.47Z"/><path class="cls-1" d="M146.55,88.17v0a7,7,0,0,1,13.9,0v0a7,7,0,0,1-13.9,0Zm11.45,0v0a4.54,4.54,0,0,0-4.52-4.71A4.47,4.47,0,0,0,149,88.09v0a4.54,4.54,0,0,0,4.52,4.71A4.47,4.47,0,0,0,158,88.17Z"/><path class="cls-1" d="M162.69,88.17v0a6.77,6.77,0,0,1,6.85-6.87,7.22,7.22,0,0,1,5.11,1.8l-1.48,1.77a5.24,5.24,0,0,0-3.72-1.41,4.48,4.48,0,0,0-4.31,4.67v0a4.44,4.44,0,0,0,4.52,4.75,5.43,5.43,0,0,0,3.21-1V89.4h-3.4V87.35h5.66v5.59A8.48,8.48,0,0,1,169.58,95,6.6,6.6,0,0,1,162.69,88.17Z"/><path class="cls-1" d="M178.17,81.49h5.92a5.36,5.36,0,0,1,3.84,1.33,4,4,0,0,1,1.1,2.86v0a4,4,0,0,1-3.15,4l3.58,5h-2.77l-3.26-4.63H180.5v4.63h-2.33Zm5.75,6.59c1.67,0,2.73-.88,2.73-2.23v0c0-1.43-1-2.21-2.75-2.21h-3.4v4.47Z"/><path class="cls-1" d="M196.6,81.39h2.17l5.85,13.39h-2.47l-1.35-3.21h-6.28l-1.37,3.21h-2.39ZM200,89.5l-2.3-5.32-2.28,5.32Z"/><path class="cls-1" d="M206.9,81.49h2.48l4.05,6.28,4-6.28H220V94.78h-2.34V85.25l-4.19,6.26h-.08l-4.16-6.23v9.5H206.9Z"/><path class="cls-1" d="M222.49,92.84l1.4-1.67a6.17,6.17,0,0,0,4.2,1.73c1.44,0,2.35-.69,2.35-1.67v0c0-1-.53-1.46-3-2-2.83-.69-4.42-1.52-4.42-4v0c0-2.28,1.9-3.85,4.54-3.85A7.39,7.39,0,0,1,232.38,83l-1.25,1.76a6.07,6.07,0,0,0-3.61-1.36c-1.37,0-2.17.7-2.17,1.57v0c0,1,.61,1.48,3.18,2.09,2.8.68,4.25,1.69,4.25,3.89v0c0,2.49-2,4-4.75,4A8.15,8.15,0,0,1,222.49,92.84Z"/><rect class="cls-1" x="269.45" y="17.17" width="1.09" height="82.83"/><path class="cls-1" d="M0,25.94v-.09A15.36,15.36,0,0,1,15.75,10.22c5.7,0,9.11,1.9,11.92,4.67l-4.23,4.87c-2.33-2.11-4.71-3.41-7.73-3.41C10.62,16.35,7,20.58,7,25.76v.09c0,5.18,3.58,9.49,8.76,9.49,3.45,0,5.57-1.38,7.94-3.53l4.23,4.27a15.44,15.44,0,0,1-12.39,5.39A15.24,15.24,0,0,1,0,25.94Z"/><path class="cls-1" d="M33.2,10.74h6.64v12H52.1v-12h6.65V41H52.1V28.83H39.84V41H33.2Z"/><path class="cls-1" d="M66,10.74H88.79v5.91H72.61v6.13H86.85V28.7H72.61V35H89V41H66Z"/><path class="cls-1" d="M94.93,10.74h22.79v5.91H101.53v6.13h14.24V28.7H101.53V35h16.4V41h-23Z"/><path class="cls-1" d="M123.85,10.74h6.65V24l12.17-13.21h8.16L138.48,23.56,151.34,41h-8L134,28.09l-3.49,3.63V41h-6.65Z"/><path class="cls-1" d="M164.65,29,153,10.74h7.77L168,22.87l7.34-12.13h7.55L171.3,28.91V41h-6.65Z"/><path class="cls-1" d="M.39,71l3.7-4.43A13.09,13.09,0,0,0,12.59,70c2.57,0,4.11-1,4.11-2.69v-.08c0-1.59-1-2.4-5.73-3.62-5.74-1.47-9.44-3-9.44-8.71v-.08c0-5.17,4.15-8.58,10-8.58a16.45,16.45,0,0,1,10.58,3.62l-3.25,4.72a13.37,13.37,0,0,0-7.41-2.81c-2.4,0-3.66,1.1-3.66,2.48v.08c0,1.87,1.22,2.48,6.15,3.75,5.77,1.5,9,3.58,9,8.54v.08c0,5.66-4.31,8.83-10.46,8.83A18.07,18.07,0,0,1,.39,71Z"/><path class="cls-1" d="M27.12,61v-.08A14.48,14.48,0,0,1,42,46.16c5.37,0,8.58,1.79,11.23,4.4l-4,4.6c-2.2-2-4.43-3.22-7.28-3.22-4.8,0-8.26,4-8.26,8.87v.08c0,4.89,3.38,9,8.26,9,3.25,0,5.25-1.3,7.49-3.33l4,4a14.56,14.56,0,0,1-11.68,5.08A14.37,14.37,0,0,1,27.12,61Z"/><path class="cls-1" d="M58.69,46.65H65V75.13H58.69Z"/><path class="cls-1" d="M72.07,46.65H93.56v5.58H78.3V58H91.73v5.58H78.3v6H93.76v5.57H72.07Z"/><path class="cls-1" d="M99.33,46.65h5.78l13.35,17.54V46.65h6.18V75.13h-5.33L105.52,57v18.1H99.33Z"/><path class="cls-1" d="M138.11,52.43h-8.67V46.65H153v5.78h-8.67v22.7h-6.26Z"/><path class="cls-1" d="M158.12,46.65h6.27V75.13h-6.27Z"/><path class="cls-1" d="M169.56,71l3.7-4.43a13.09,13.09,0,0,0,8.5,3.46c2.57,0,4.11-1,4.11-2.69v-.08c0-1.59-1-2.4-5.73-3.62-5.74-1.47-9.44-3-9.44-8.71v-.08c0-5.17,4.15-8.58,10-8.58a16.45,16.45,0,0,1,10.58,3.62L188,54.59a13.37,13.37,0,0,0-7.41-2.81c-2.4,0-3.66,1.1-3.66,2.48v.08c0,1.87,1.22,2.48,6.15,3.75,5.77,1.5,9,3.58,9,8.54v.08c0,5.66-4.31,8.83-10.46,8.83A18.07,18.07,0,0,1,169.56,71Z"/><path class="cls-1" d="M203.57,52.43H194.9V46.65h23.6v5.78h-8.66v22.7h-6.27Z"/><path class="cls-2" d="M262,30a13.65,13.65,0,0,0-5-10.55,16.31,16.31,0,0,0-12.63-12,13.66,13.66,0,0,0-20.05-4.77,15.48,15.48,0,0,0-20.66,3.08A14.23,14.23,0,1,0,200,33.94a15.38,15.38,0,0,0,8.42,8.2c3.49,1.41,9,2.59,16.75-3.43l.09-.07c5.72-4.9,9.6-6.14,13.84-4.43a9.37,9.37,0,0,1,6.07,7.07c.64,3.72-.27,9.1-2.31,13.68a42.5,42.5,0,0,1-3.63,6.48c-2.88-13-13.5-19.66-14-20l-2.66,4.35a28.64,28.64,0,0,1,6.23,5.74,25.57,25.57,0,0,1,6.06,16.54v7l4.51-5.41A54.8,54.8,0,0,0,247.55,57a34.17,34.17,0,0,0,2.94-13.56A13.71,13.71,0,0,0,262,30ZM232.33,5.19A8.57,8.57,0,0,1,238.1,7.4c-6.3,1.31-9.87,6.53-12.54,11.66h0a8.58,8.58,0,0,1,6.77-13.88Zm-16.59-.1a10.32,10.32,0,0,1,5.06,1.32,13.67,13.67,0,0,0,1.64,16.83,9,9,0,0,1-6.7,2.68,10.42,10.42,0,0,1,0-20.83ZM192.53,19.8A9.15,9.15,0,0,1,201,10.69a15.4,15.4,0,0,0-.77,4.82,15.2,15.2,0,0,0,.64,4.4,14.87,14.87,0,0,0-1,2,15.46,15.46,0,0,0-1.12,6.51A9.16,9.16,0,0,1,192.53,19.8ZM222,34.73c-4.45,3.45-7.84,4.23-11.67,2.68a10.38,10.38,0,0,1-6.3-11.74A15.46,15.46,0,0,0,215.74,31c3.77,0,9.34-1,14.26-9.45l.06-.11c3.46-6.68,6.6-9.28,11.17-9.28A11.29,11.29,0,0,1,250,16.36a12.06,12.06,0,0,0-1.6-.1,13.62,13.62,0,0,0-12.29,7.64,13.77,13.77,0,0,0-1.32,4.51C229.85,28.71,225.64,31.63,222,34.73Zm27.7,3.7A14.83,14.83,0,0,0,241,29.48c-.42-.16-.82-.3-1.23-.43a8.46,8.46,0,0,1,.83-2.9,8.6,8.6,0,1,1,9.08,12.28Z"/><path class="cls-1" d="M289.14,41.59c-1.11,0-2.26-.09-3.32-.18V50c0,.45.31.62,1.59.76l2.4.22.13,1.64H277.39l.14-1.64,1.73-.22c1.1-.14,1.55-.4,1.55-.8V27.54c0-.4-.27-.58-1.64-.76l-1.64-.22-.14-1.64h11.93c7.36,0,11.13,3.28,11.13,7.54C300.45,38.44,295.21,41.59,289.14,41.59Zm-.26-14.85h-3.06V39.46a13.69,13.69,0,0,0,3.1.31c3.55,0,6.07-2.48,6.07-6.47S292.69,26.74,288.88,26.74Z"/><path class="cls-1" d="M316.85,37.47a3,3,0,0,1-2.53-1.6,12.07,12.07,0,0,0-4.12,4.39v9.8c0,.44.26.71,1.68.8l1.6.13.13,1.64H303L303.1,51l1.15-.13c1.07-.09,1.51-.31,1.51-.85V39.11c0-2.8-.35-3.19-1.9-3.64l-1-.22,0-1.28,7.28-2V37.6h.22c2.21-3.68,3.77-5.63,6-5.63a2.66,2.66,0,0,1,2.88,2.84A2.41,2.41,0,0,1,316.85,37.47Z"/><path class="cls-1" d="M330.81,53.29c-6.17,0-9.93-4.7-9.93-10.55A10.71,10.71,0,0,1,331.69,32c6.08,0,9.93,4.57,9.93,10.2A10.84,10.84,0,0,1,330.81,53.29Zm3.68-17.86a4.57,4.57,0,0,0-3.42-1.51c-3,0-5.32,2.84-5.32,7.58,0,3.59.62,6.74,2.22,8.42a4.81,4.81,0,0,0,3.46,1.47c2.92,0,5.27-2.88,5.27-7.58C336.7,40.26,336,37,334.49,35.43Z"/><path class="cls-1" d="M343.39,64.2c-2,0-3.54-1-3.54-2.88A2.44,2.44,0,0,1,342.29,59c1.64,0,2.66,1.07,3.28,2.66,1.06-.44,1.42-3,1.42-5.94V39.11c0-2.8-.32-3.19-1.91-3.64l-.93-.22,0-1.28,7.23-2V53.21C351,60.25,346.76,64.2,343.39,64.2Zm5.41-35.64a2.77,2.77,0,0,1-2.79-3,2.8,2.8,0,1,1,5.59,0A2.77,2.77,0,0,1,348.8,28.56Z"/><path class="cls-1" d="M365.56,53.29c-5.23,0-9.09-4.21-9.09-10C356.47,36.76,361.08,32,367,32c4.26,0,7.23,2.62,7.23,6.78a11.54,11.54,0,0,1-.27,2.44L361.08,41v.49c.05,5,2.75,8.29,6.56,8.29a7.19,7.19,0,0,0,5.5-2.57l.93.53A8.87,8.87,0,0,1,365.56,53.29Zm.58-19.5c-2.31,0-4.53,2-5,5.76l8.42,0C369.77,35.92,368.35,33.79,366.14,33.79Z"/><path class="cls-1" d="M386.52,53.29c-5.27,0-9.13-4.21-9.13-10,0-6.61,4.83-11.35,10.77-11.35,4.26,0,6.61,2.08,6.61,4.43a2.41,2.41,0,0,1-2.7,2.53c-1.87,0-3-2.13-2.53-4.39v-.09a3.93,3.93,0,0,0-2.13-.57c-3,0-5.36,2.61-5.36,7.36,0,5,2.7,8.55,6.51,8.55a7.19,7.19,0,0,0,5.5-2.57l.93.53A8.86,8.86,0,0,1,386.52,53.29Z"/><path class="cls-1" d="M405.05,53.29c-3.19,0-5.54-1.9-5.45-6.38l.27-11.53-3.51-.26.05-1.46,6-5.24,1.77.27,0,4.08h7.22l-.31,2.44h-6.91l-.27,10.46c-.09,3.32,1.46,4.39,3.72,4.39a8.4,8.4,0,0,0,3.73-1l.17,1.19A9,9,0,0,1,405.05,53.29Z"/><path class="cls-1" d="M447.39,52.63l.13-1.64,2.39-.31c.84-.13,1.11-1.69.89-8.56l-.49-14.36H450l-8.29,24h-3l-7.84-23.09h-.54L429.65,42c-.35,7.93-.31,8.6.58,8.73l2.48.31.14,1.64h-9.67l.13-1.64,2.4-.31c.88-.13,1.37-.62,1.82-8.73l.57-11.44c.13-2-.53-3.15-1.82-3.46l-2.48-.44-.13-1.69h11.08l6.83,20.13h.31l6.74-20.13h10.81l-.13,1.69-2.92.22a1.21,1.21,0,0,0-1,1.33l.44,14c.18,7.27.58,8.43,1.46,8.56l2.35.31.13,1.64Z"/><path class="cls-1" d="M477.13,53.38c-1.73,0-3.1-1.06-3.24-3.5h-.22c-1.6,1.91-3.32,3.41-5.63,3.41a5.24,5.24,0,0,1-5.41-5.18c0-3.68,3.59-5.81,11.26-7.67V40c.05-4.35-1.64-5.72-4.34-5.72-1.47,0-3.15.58-3.15.93s1.06,1,1.06,2.35A2.35,2.35,0,0,1,465,39.82a2.3,2.3,0,0,1-2.48-2.22c0-2.39,5.05-5.63,9.13-5.63,5,0,7,2.08,6.7,9l-.32,7.4c-.08,1.24.27,1.82,1,1.82a4,4,0,0,0,2.13-1.07l.76,1.07C480.54,52,478.81,53.38,477.13,53.38ZM473.8,42c-5.54,1.42-6.82,3.15-6.82,5A3,3,0,0,0,470,50.1a5.49,5.49,0,0,0,3.59-1.77Z"/><path class="cls-1" d="M496.1,52.63l.13-1.64,1-.13c1.28-.09,1.51-.4,1.51-.85V41.06c0-4.39-1.38-5.59-4-5.59a7.5,7.5,0,0,0-4.39,1.64v13c0,.44.27.71,1.69.8l1.33.13.13,1.64H483.16l.13-1.64,1.15-.13c1.06-.09,1.51-.31,1.51-.85V39.11c0-2.8-.36-3.19-1.91-3.64l-1-.22,0-1.28,7.27-2v3.24h.22C493,33.3,495.35,32,497.78,32a5.31,5.31,0,0,1,3.68,1.46,6.73,6.73,0,0,1,1.69,5.06V50c0,.4.22.67,1.82.85L506,51l.13,1.64Z"/><path class="cls-1" d="M522.74,53.38c-1.73,0-3.1-1.06-3.24-3.5h-.22c-1.59,1.91-3.32,3.41-5.63,3.41a5.24,5.24,0,0,1-5.41-5.18c0-3.68,3.6-5.81,11.26-7.67V40c0-4.35-1.64-5.72-4.34-5.72-1.46,0-3.15.58-3.15.93s1.07,1,1.07,2.35a2.36,2.36,0,0,1-2.49,2.22,2.3,2.3,0,0,1-2.48-2.22c0-2.39,5-5.63,9.13-5.63,5,0,7,2.08,6.7,9l-.31,7.4c-.09,1.24.26,1.82,1,1.82a4.06,4.06,0,0,0,2.12-1.07l.76,1.07C526.15,52,524.42,53.38,522.74,53.38ZM519.42,42c-5.55,1.42-6.83,3.15-6.83,5a3,3,0,0,0,3.06,3.1,5.46,5.46,0,0,0,3.59-1.77Z"/><path class="cls-1" d="M544.5,35.56v.22a5.43,5.43,0,0,1,1,3.19c0,4.22-3.45,7.41-8.29,7.41a11.89,11.89,0,0,1-2.61-.31c-.58.26-1.6,1.11-1.6,1.9,0,1.2,1.11,2,2.84,2s3.86-.13,5.36-.13c3.68,0,6.52,2.61,6.52,6.07,0,4.65-4.79,8.24-11.79,8.24-4.83,0-8-2-8-5.18,0-2.71,1.9-4.12,4.3-5.06v-.17a3.83,3.83,0,0,1-3.06-3.55c0-1.82,1.64-3.59,3.81-4.39,0-.22.13-.22.13-.22a6.32,6.32,0,0,1-3.94-6.16c0-4.08,3.19-7.45,8.29-7.45a12.3,12.3,0,0,1,5.45,1.29h6.25l0,3.1Zm-4.43,18.58c-1.46-.14-3.1,0-6,0a4.14,4.14,0,0,0-2.26,3.54c0,2.71,2.48,4.57,6.25,4.57,3.5,0,5.94-2,5.94-4.48C544,55.69,543,54.36,540.07,54.14Zm-.35-19.51a3.31,3.31,0,0,0-2.31-1c-2.26,0-3.81,1.9-3.81,5.14a7.08,7.08,0,0,0,1.68,5.05,3.08,3.08,0,0,0,2,.89,3.56,3.56,0,0,0,2.53-.89c.89-.84,1.33-2.35,1.33-4.52A6.6,6.6,0,0,0,539.72,34.63Z"/><path class="cls-1" d="M559.44,53.29c-5.23,0-9.09-4.21-9.09-10C550.35,36.76,555,32,560.9,32c4.26,0,7.23,2.62,7.23,6.78a11.54,11.54,0,0,1-.27,2.44L555,41v.49c0,5,2.75,8.29,6.57,8.29A7.17,7.17,0,0,0,567,47.22l.93.53A8.87,8.87,0,0,1,559.44,53.29Zm.58-19.5c-2.31,0-4.52,2-5,5.76l8.43,0C563.65,35.92,562.23,33.79,560,33.79Z"/><path class="cls-1" d="M596,52.63l.14-1.64,1-.13c1.29-.09,1.51-.4,1.51-.85V41.06c0-4.39-1.68-5.59-3.94-5.59a6.63,6.63,0,0,0-4.08,1.78,11.46,11.46,0,0,1,0,1.24V50c0,.4.22.67,1.82.85l1,.13.14,1.64h-10l.18-1.64,1-.13c1.29-.09,1.51-.4,1.51-.85V41.06c0-4.39-1.69-5.59-4-5.59a7.13,7.13,0,0,0-4,1.64v13c0,.44.27.71,1.68.8l1.24.13.14,1.64H571.05l.14-1.64,1.15-.13c1.06-.09,1.51-.31,1.51-.85V39.11c0-2.8-.36-3.19-1.91-3.64l-1-.22L571,34l7.27-2v3.24h.13c2.31-2,4.57-3.24,6.87-3.24A5.38,5.38,0,0,1,589,33.43a5.71,5.71,0,0,1,1.24,2h.18c2.39-2.21,4.87-3.5,7.27-3.5a5.34,5.34,0,0,1,3.72,1.46,6.93,6.93,0,0,1,1.68,5.06V50c0,.4.23.67,1.82.85l1,.13.13,1.64Z"/><path class="cls-1" d="M617.24,53.29c-5.23,0-9.09-4.21-9.09-10,0-6.56,4.61-11.35,10.55-11.35,4.26,0,7.23,2.62,7.23,6.78a12.21,12.21,0,0,1-.26,2.44L612.76,41v.49c0,5,2.75,8.29,6.57,8.29a7.15,7.15,0,0,0,5.49-2.57l.93.53A8.87,8.87,0,0,1,617.24,53.29Zm.58-19.5c-2.31,0-4.52,2-5,5.76l8.43,0C621.45,35.92,620,33.79,617.82,33.79Z"/><path class="cls-1" d="M641.8,52.63l.13-1.64,1-.13c1.28-.09,1.5-.4,1.5-.85V41.06c0-4.39-1.37-5.59-3.94-5.59a7.47,7.47,0,0,0-4.39,1.64v13c0,.44.27.71,1.68.8l1.33.13.14,1.64H628.85L629,51l1.15-.13c1.06-.09,1.51-.31,1.51-.85V39.11c0-2.8-.36-3.19-1.91-3.64l-1-.22,0-1.28,7.27-2v3.24h.22C638.65,33.3,641,32,643.48,32a5.31,5.31,0,0,1,3.68,1.46,6.73,6.73,0,0,1,1.69,5.06V50c0,.4.22.67,1.81.85l1.07.13.13,1.64Z"/><path class="cls-1" d="M661.43,53.29c-3.19,0-5.54-1.9-5.45-6.38l.27-11.53-3.5-.26,0-1.46,6-5.24,1.77.27,0,4.08h7.22l-.31,2.44h-6.91l-.27,10.46c-.09,3.32,1.47,4.39,3.73,4.39a8.4,8.4,0,0,0,3.72-1l.18,1.19A9,9,0,0,1,661.43,53.29Z"/><path class="cls-1" d="M302.84,88.69l-2.57-.49a22.71,22.71,0,0,1-7,1.16c-8.86,0-15.6-5-15.6-14.19s6.87-14.81,15.74-14.81a21.5,21.5,0,0,1,6.38,1l3.81-.8V70H301l-1.51-6a11.31,11.31,0,0,0-6.07-1.59c-6.29,0-10.2,5.1-10.2,12.19,0,7.71,3.77,12.9,10.56,12.9A11.28,11.28,0,0,0,299,86.21l2.09-6.34h2.7Z"/><path class="cls-1" d="M318,89.36c-6.16,0-9.93-4.7-9.93-10.55A10.72,10.72,0,0,1,318.84,68c6.07,0,9.93,4.57,9.93,10.2A10.85,10.85,0,0,1,318,89.36Zm3.68-17.87A4.6,4.6,0,0,0,318.22,70c-3,0-5.32,2.84-5.32,7.58,0,3.59.62,6.74,2.22,8.43a4.84,4.84,0,0,0,3.45,1.46c2.93,0,5.28-2.88,5.28-7.58C323.85,76.32,323.18,73.09,321.63,71.49Z"/><path class="cls-1" d="M344.42,88.69l.13-1.64,1-.13c1.28-.09,1.5-.4,1.5-.84v-9c0-4.39-1.37-5.59-3.94-5.59a7.54,7.54,0,0,0-4.39,1.64v13c0,.44.26.71,1.68.8l1.33.13.14,1.64H331.47l.13-1.64,1.16-.13c1.06-.09,1.5-.31,1.5-.84V75.17c0-2.79-.35-3.19-1.9-3.64l-1-.22.05-1.28,7.27-2v3.24h.22c2.35-1.91,4.74-3.24,7.18-3.24a5.28,5.28,0,0,1,3.68,1.47c1.2,1.19,1.68,2.83,1.68,5V86.08c0,.39.23.66,1.82.84l1.07.13.13,1.64Z"/><path class="cls-1" d="M363.7,89.36a19.11,19.11,0,0,1-6.43-1l-.22-5.86h2.61l1.07,4a6.38,6.38,0,0,0,3.41,1.11c1.95,0,4-1.29,4-3.33s-2.39-2.83-4.92-3.76c-3.1-1.2-6-2.49-6-6.39,0-3.19,2.71-6.07,7.49-6.07a13.4,13.4,0,0,1,4.61.75l1.64-.57.27,6.47h-2.48l-1.07-3.81a5.8,5.8,0,0,0-3.23-1c-2,0-3.42,1.15-3.42,2.79,0,2,1.69,2.66,4.7,3.82s6.21,2.52,6.21,6.38C371.9,86.34,369,89.36,363.7,89.36Z"/><path class="cls-1" d="M385,89.36c-6.16,0-9.93-4.7-9.93-10.55A10.71,10.71,0,0,1,385.91,68c6.07,0,9.93,4.57,9.93,10.2A10.85,10.85,0,0,1,385,89.36Zm3.68-17.87A4.6,4.6,0,0,0,385.29,70c-3,0-5.32,2.84-5.32,7.58,0,3.59.62,6.74,2.21,8.43a4.87,4.87,0,0,0,3.46,1.46c2.93,0,5.28-2.88,5.28-7.58C390.92,76.32,390.25,73.09,388.7,71.49Z"/><path class="cls-1" d="M412.41,73.53a2.94,2.94,0,0,1-2.52-1.6,12.17,12.17,0,0,0-4.13,4.39v9.8c0,.44.27.71,1.69.8l1.59.13.14,1.64H398.54l.13-1.64,1.15-.13c1.07-.09,1.51-.31,1.51-.84V75.17c0-2.79-.35-3.19-1.91-3.64l-1-.22,0-1.28,7.27-2v5.63H406C408.2,70,409.75,68,412,68a2.66,2.66,0,0,1,2.88,2.84A2.41,2.41,0,0,1,412.41,73.53Z"/><path class="cls-1" d="M424,89.36c-3.19,0-5.54-1.91-5.45-6.39l.26-11.52-3.5-.27,0-1.46,6-5.23,1.77.26-.05,4.08h7.23L430,71.27h-6.92l-.26,10.46c-.09,3.33,1.46,4.39,3.72,4.39a8.44,8.44,0,0,0,3.73-1l.17,1.2A9,9,0,0,1,424,89.36Z"/><path class="cls-1" d="M432.49,88.69l.13-1.64,1.11-.13c1.07-.09,1.51-.31,1.51-.84V75.17c0-2.79-.31-3.19-1.91-3.64l-.93-.22.05-1.28,7.22-2V86.12c0,.44.27.71,1.69.8l1.11.13.13,1.64Zm4.57-24.07a3,3,0,1,1,2.79-3A2.77,2.77,0,0,1,437.06,64.62Z"/><path class="cls-1" d="M467.38,88.51l-7.49.85V86.12h-.23c-2.39,1.91-4.78,3.24-7.22,3.24a5.28,5.28,0,0,1-3.68-1.47c-1.2-1.19-1.69-2.83-1.69-5l.09-11.53c0-.71-.31-.62-1.9-.84l-1-.13-.13-1.64h7.62l-.26,11.61c-.05,4.35,1.37,5.54,3.94,5.54a8.1,8.1,0,0,0,4.44-1.59v-13c0-.44-.27-.67-1.69-.8l-1.51-.13-.17-1.64h7.75V85.23c0,.67.18,1.16.63,1.29l2.61.8Z"/><path class="cls-1" d="M494.06,88.69l.14-1.64,1-.13c1.29-.09,1.51-.4,1.51-.84v-9c0-4.39-1.68-5.59-3.94-5.59a6.69,6.69,0,0,0-4.08,1.78,11.46,11.46,0,0,1,0,1.24V86.08c0,.39.22.66,1.82.84l1,.13.13,1.64h-10l.18-1.64,1-.13c1.29-.09,1.51-.4,1.51-.84v-9c0-4.39-1.69-5.59-3.95-5.59a7.2,7.2,0,0,0-4,1.64v13c0,.44.27.71,1.68.8l1.25.13.13,1.64H469.1l.14-1.64,1.15-.13c1.06-.09,1.51-.31,1.51-.84V75.17c0-2.79-.36-3.19-1.91-3.64l-1-.22,0-1.28,7.27-2v3.24h.13c2.31-2,4.57-3.24,6.87-3.24a5.35,5.35,0,0,1,3.73,1.47,5.67,5.67,0,0,1,1.24,2h.18c2.39-2.21,4.87-3.5,7.27-3.5a5.31,5.31,0,0,1,3.72,1.47,6.89,6.89,0,0,1,1.69,5V86.08c0,.39.22.66,1.81.84l1,.13.14,1.64Z"/><path class="cls-1" d="M214.13,70.62v0a4.38,4.38,0,0,1,4.39-4.37,4.33,4.33,0,0,1,4.35,4.34v0a4.37,4.37,0,0,1-8.74,0Zm8.24,0v0a3.87,3.87,0,1,0-7.73,0v0a3.8,3.8,0,0,0,3.85,3.86A3.85,3.85,0,0,0,222.37,70.6Zm-5.67-2.45h2.07a2,2,0,0,1,1.44.5,1.43,1.43,0,0,1,.38,1v0a1.45,1.45,0,0,1-1,1.44l1.13,1.66h-1.19l-1-1.49h-.81v1.49h-1Zm2.06,2.27c.52,0,.79-.28.79-.67v0c0-.45-.31-.68-.82-.68h-1v1.37Z"/></svg>