<svg id="Layer_1" data-name="Layer 1" xmlns="http://www.w3.org/2000/svg" viewBox="0 0 649.22 100"><defs><style>.cls-1{fill:#fff;}.cls-2{fill:#ff6f00;}</style></defs><path class="cls-1" d="M227.13,74.94v0a4.62,4.62,0,0,1,4.62-4.6,4.56,4.56,0,0,1,4.58,4.58v0a4.6,4.6,0,0,1-9.2,0Zm8.67,0v0a4.07,4.07,0,1,0-8.13,0v0a4.07,4.07,0,1,0,8.13,0Zm-6-2.58H232a2.07,2.07,0,0,1,1.52.54,1.47,1.47,0,0,1,.4,1.06v0a1.51,1.51,0,0,1-1.05,1.51l1.19,1.76h-1.26l-1-1.58h-.85v1.58h-1.08ZM232,74.72c.55,0,.84-.29.84-.7v0c0-.47-.33-.71-.86-.71h-1.06v1.43Z"/><path class="cls-1" d="M7.15,85.67H9.42l6.16,14.09H13l-1.42-3.38H5L3.51,99.76H1Zm3.51,8.53L8.24,88.61,5.85,94.2Z"/><path class="cls-1" d="M18,85.77h5.21c4.4,0,7.44,3,7.44,7v0c0,3.93-3,7-7.44,7H18ZM20.44,88v9.51h2.75a4.56,4.56,0,0,0,4.86-4.71v0A4.59,4.59,0,0,0,23.19,88Z"/><path class="cls-1" d="M31.51,85.77h2.72l4.21,10.75,4.2-10.75H45.3L39.5,99.86H37.31Z"/><path class="cls-1" d="M50.66,85.67h2.28l6.15,14.09h-2.6l-1.42-3.38H48.46L47,99.76H44.5Zm3.52,8.53-2.42-5.59-2.4,5.59Z"/><path class="cls-1" d="M61.49,85.77h2.28l7.49,9.67V85.77h2.42v14H71.62l-7.71-10v10H61.49Z"/><path class="cls-1" d="M76.66,92.81v0a7.08,7.08,0,0,1,7.2-7.24,7.31,7.31,0,0,1,5.49,2.18l-1.58,1.82a5.57,5.57,0,0,0-3.93-1.72,4.69,4.69,0,0,0-4.6,4.92v0a4.71,4.71,0,0,0,4.62,5,5.45,5.45,0,0,0,4-1.8l1.58,1.6A7.22,7.22,0,0,1,83.78,100,7,7,0,0,1,76.66,92.81Z"/><path class="cls-1" d="M92.05,85.77h10.37V88H94.51v3.64h7v2.21h-7v3.74h8v2.2H92.05Z"/><path class="cls-1" d="M105.44,85.77h5.22c4.4,0,7.43,3,7.43,7v0c0,3.93-3,7-7.43,7h-5.22ZM107.9,88v9.51h2.76a4.56,4.56,0,0,0,4.86-4.71v0A4.59,4.59,0,0,0,110.66,88Z"/><path class="cls-1" d="M127.07,85.77h5.52c3.27,0,5.31,1.86,5.31,4.68v0c0,3.14-2.52,4.77-5.59,4.77h-2.78v4.5h-2.46Zm5.32,7.28c1.86,0,3-1,3-2.5v0c0-1.64-1.17-2.5-3-2.5h-2.86v5Z"/><path class="cls-1" d="M140.42,85.77h6.24a5.6,5.6,0,0,1,4,1.4,4.23,4.23,0,0,1,1.16,3v0a4.19,4.19,0,0,1-3.31,4.23l3.77,5.3H149.4L146,94.88h-3.08v4.88h-2.46Zm6.06,6.94c1.76,0,2.88-.92,2.88-2.34v0c0-1.5-1.08-2.32-2.9-2.32h-3.58v4.7Z"/><path class="cls-1" d="M154.25,92.81v0a7.32,7.32,0,0,1,14.63,0v0a7.32,7.32,0,0,1-14.63,0Zm12.05,0v0a4.77,4.77,0,0,0-4.75-5,4.71,4.71,0,0,0-4.72,4.92v0a4.78,4.78,0,0,0,4.76,5A4.7,4.7,0,0,0,166.3,92.81Z"/><path class="cls-1" d="M171.24,92.81v0a7.13,7.13,0,0,1,7.22-7.24,7.53,7.53,0,0,1,5.37,1.9l-1.56,1.86a5.52,5.52,0,0,0-3.91-1.48,4.72,4.72,0,0,0-4.54,4.92v0a4.67,4.67,0,0,0,4.76,5A5.72,5.72,0,0,0,182,96.7V94.1h-3.58V92h6v5.87A8.9,8.9,0,0,1,178.5,100,6.94,6.94,0,0,1,171.24,92.81Z"/><path class="cls-1" d="M187.53,85.77h6.24a5.64,5.64,0,0,1,4,1.4,4.27,4.27,0,0,1,1.15,3v0a4.18,4.18,0,0,1-3.31,4.23l3.77,5.3h-2.91l-3.44-4.88H190v4.88h-2.46Zm6.06,6.94c1.76,0,2.88-.92,2.88-2.34v0c0-1.5-1.08-2.32-2.9-2.32H190v4.7Z"/><path class="cls-1" d="M206.94,85.67h2.28l6.15,14.09h-2.59l-1.42-3.38h-6.62l-1.44,3.38h-2.52Zm3.52,8.53L208,88.61l-2.4,5.59Z"/><path class="cls-1" d="M217.77,85.77h2.62l4.26,6.62,4.26-6.62h2.61v14h-2.46v-10l-4.41,6.59h-.08l-4.38-6.55v10h-2.42Z"/><path class="cls-1" d="M234.18,97.72,235.66,96a6.48,6.48,0,0,0,4.42,1.82c1.52,0,2.48-.72,2.48-1.76v0c0-1-.56-1.54-3.16-2.14-3-.71-4.66-1.59-4.66-4.17v0c0-2.4,2-4.06,4.78-4.06a7.76,7.76,0,0,1,5.08,1.76l-1.32,1.86a6.36,6.36,0,0,0-3.8-1.44c-1.44,0-2.28.74-2.28,1.66v0c0,1.08.64,1.56,3.34,2.2,3,.72,4.48,1.78,4.48,4.09v0c0,2.62-2.06,4.18-5,4.18A8.62,8.62,0,0,1,234.18,97.72Z"/><rect class="cls-1" x="283.61" y="12.54" width="1.14" height="87.18"/><path class="cls-1" d="M0,27.3v-.09A16.16,16.16,0,0,1,16.58,10.76c6,0,9.59,2,12.54,4.91L24.67,20.8c-2.45-2.22-5-3.59-8.13-3.59-5.36,0-9.23,4.46-9.23,9.91v.09c0,5.45,3.77,10,9.23,10,3.63,0,5.86-1.45,8.36-3.72L29.35,38a16.28,16.28,0,0,1-13,5.67A16,16,0,0,1,0,27.3Z"/><path class="cls-1" d="M34.94,11.31h7V23.89h12.9V11.31h7v31.8h-7V30.34H41.94V43.11h-7Z"/><path class="cls-1" d="M69.47,11.31h24v6.22h-17V24h15v6.23h-15v6.68H93.69v6.22H69.47Z"/><path class="cls-1" d="M99.92,11.31h24v6.22h-17V24h15v6.23h-15v6.68h17.26v6.22H99.92Z"/><path class="cls-1" d="M130.36,11.31h7v13.9l12.81-13.9h8.59l-13,13.49L159.3,43.11h-8.4L141,29.57l-3.68,3.82v9.72h-7Z"/><path class="cls-1" d="M173.31,30.57,161.09,11.31h8.17l7.59,12.76,7.72-12.76h8L180.3,30.43V43.11h-7Z"/><path class="cls-1" d="M.41,74.72,4.3,70.05c2.7,2.22,5.53,3.64,9,3.64,2.69,0,4.32-1.07,4.32-2.83v-.08c0-1.67-1-2.53-6-3.82-6-1.54-9.93-3.21-9.93-9.16v-.09c0-5.44,4.36-9,10.49-9a17.34,17.34,0,0,1,11.13,3.81l-3.42,5c-2.66-1.85-5.27-3-7.8-3s-3.85,1.16-3.85,2.61v.09c0,2,1.28,2.61,6.47,3.94,6.08,1.58,9.5,3.77,9.5,9v.09c0,6-4.54,9.29-11,9.29A19.07,19.07,0,0,1,.41,74.72Z"/><path class="cls-1" d="M28.54,64.18v-.09a15.24,15.24,0,0,1,15.64-15.5c5.65,0,9,1.89,11.82,4.63l-4.2,4.84c-2.31-2.1-4.67-3.39-7.67-3.39-5.05,0-8.69,4.2-8.69,9.34v.08c0,5.14,3.55,9.43,8.69,9.43,3.43,0,5.53-1.37,7.88-3.51l4.2,4.23A15.32,15.32,0,0,1,43.92,79.6,15.14,15.14,0,0,1,28.54,64.18Z"/><path class="cls-1" d="M61.77,49.1h6.6v30h-6.6Z"/><path class="cls-1" d="M75.86,49.1H98.48V55H82.42v6.08H96.55v5.87H82.42v6.3H98.69v5.86H75.86Z"/><path class="cls-1" d="M104.56,49.1h6.08l14,18.46V49.1h6.51v30h-5.62L111.07,60v19h-6.51Z"/><path class="cls-1" d="M145.37,55.19h-9.12V49.1h24.84v6.09H152V79.08h-6.59Z"/><path class="cls-1" d="M166.44,49.1H173v30h-6.59Z"/><path class="cls-1" d="M178.47,74.72l3.9-4.67c2.7,2.22,5.52,3.64,8.95,3.64,2.7,0,4.32-1.07,4.32-2.83v-.08c0-1.67-1-2.53-6-3.82-6-1.54-9.94-3.21-9.94-9.16v-.09c0-5.44,4.37-9,10.49-9a17.37,17.37,0,0,1,11.14,3.81l-3.43,5c-2.65-1.85-5.27-3-7.79-3s-3.86,1.16-3.86,2.61v.09c0,2,1.29,2.61,6.47,3.94,6.08,1.58,9.51,3.77,9.51,9v.09c0,6-4.54,9.29-11,9.29A19.09,19.09,0,0,1,178.47,74.72Z"/><path class="cls-1" d="M214.27,55.19h-9.12V49.1H230v6.09h-9.12V79.08h-6.6Z"/><path class="cls-2" d="M275.82,31.52a14.41,14.41,0,0,0-5.23-11.1A17.18,17.18,0,0,0,257.3,7.8a14.41,14.41,0,0,0-21.11-5A16.31,16.31,0,0,0,214.44,6a14.31,14.31,0,0,0-2.17-.16,15,15,0,0,0-1.72,29.87,16.15,16.15,0,0,0,8.85,8.62c3.68,1.49,9.5,2.73,17.64-3.6l.1-.08c6-5.16,10.1-6.47,14.56-4.66a9.87,9.87,0,0,1,6.39,7.44c.67,3.92-.28,9.58-2.43,14.4a44.39,44.39,0,0,1-3.82,6.82c-3-13.72-14.21-20.69-14.75-21l-2.8,4.58a30,30,0,0,1,6.56,6,26.92,26.92,0,0,1,6.38,17.41v7.41l4.75-5.7A57.16,57.16,0,0,0,260.56,60a35.77,35.77,0,0,0,3.1-14.28A14.43,14.43,0,0,0,275.82,31.52ZM244.54,5.46a9,9,0,0,1,6.07,2.33c-6.63,1.38-10.38,6.87-13.19,12.28h0a9,9,0,0,1,7.13-14.62Zm-17.45-.1a10.93,10.93,0,0,1,5.32,1.38,14.38,14.38,0,0,0,1.72,17.72,9.5,9.5,0,0,1-7,2.83,11,11,0,1,1,0-21.93ZM202.65,20.84a9.63,9.63,0,0,1,8.92-9.59,16.36,16.36,0,0,0-.81,5.07,16.17,16.17,0,0,0,.68,4.64,15.38,15.38,0,0,0-1.07,2.15A16.24,16.24,0,0,0,209.2,30,9.65,9.65,0,0,1,202.65,20.84Zm31,15.71c-4.69,3.64-8.26,4.46-12.29,2.83A11,11,0,0,1,214.77,27a16.29,16.29,0,0,0,12.32,5.63c4,0,9.83-1,15-9.95l.06-.11c3.65-7,6.95-9.77,11.77-9.77a11.89,11.89,0,0,1,9.18,4.4,13.33,13.33,0,0,0-1.69-.11A14.44,14.44,0,0,0,247.09,29.9C241.93,30.22,237.51,33.29,233.7,36.55Zm29.15,3.9A15.59,15.59,0,0,0,253.71,31q-.66-.26-1.29-.45a9,9,0,1,1,10.43,9.87Z"/><path class="cls-1" d="M318,48.23c1.31,1.82,1.82,2.24,2.8,2.43l1.35.33.19,1.72H314l-1.82-3.45-5.27-9.38-3.27.1V50c0,.47.33.65,1.68.79l1.87.24.14,1.72H294.77l.14-1.72,1.82-.24c1.16-.14,1.63-.42,1.63-.84V26.3c0-.42-.28-.6-1.73-.79l-1.72-.23-.14-1.73h12.88c7.51,0,11,2.89,11,7.23,0,3.88-2.56,6.58-6.67,8ZM306.2,25.51l-2.57,0V37.83l3.08.28c3.69-.33,6.12-2.29,6.12-6.35S310.49,25.28,306.2,25.51Z"/><path class="cls-1" d="M333,53.41c-5.51,0-9.57-4.43-9.57-10.49,0-6.91,4.86-12,11.11-12,4.48,0,7.6,2.75,7.6,7.14a12.17,12.17,0,0,1-.28,2.57l-13.57-.19V41c0,5.23,2.89,8.73,6.9,8.73A7.55,7.55,0,0,0,341,47l1,.56A9.36,9.36,0,0,1,333,53.41Zm.6-20.53c-2.42,0-4.76,2.1-5.22,6.07l8.86-.05C337.46,35.12,336,32.88,333.63,32.88Z"/><path class="cls-1" d="M361.82,34.75V35a5.83,5.83,0,0,1,1.07,3.36c0,4.43-3.64,7.79-8.73,7.79a13.13,13.13,0,0,1-2.75-.32c-.61.28-1.68,1.16-1.68,2,0,1.26,1.17,2.1,3,2.1s4.06-.14,5.64-.14c3.87,0,6.86,2.76,6.86,6.4,0,4.9-5,8.68-12.41,8.68-5.09,0-8.45-2.15-8.45-5.46,0-2.85,2-4.34,4.53-5.32v-.19a4,4,0,0,1-3.22-3.73c0-1.92,1.73-3.78,4-4.62,0-.24.14-.24.14-.24a6.63,6.63,0,0,1-4.15-6.48c0-4.29,3.36-7.84,8.73-7.84a13,13,0,0,1,5.73,1.35h6.58l0,3.27ZM357.15,54.3c-1.54-.14-3.27,0-6.35,0A4.39,4.39,0,0,0,348.42,58c0,2.85,2.62,4.81,6.58,4.81,3.69,0,6.26-2.05,6.26-4.71C361.26,55.93,360.18,54.53,357.15,54.3Zm-.37-20.53a3.5,3.5,0,0,0-2.43-1c-2.38,0-4,2-4,5.42a7.4,7.4,0,0,0,1.77,5.31,3.22,3.22,0,0,0,2.15.94,3.77,3.77,0,0,0,2.66-.94c.93-.88,1.4-2.47,1.4-4.75A6.94,6.94,0,0,0,356.78,33.77Z"/><path class="cls-1" d="M391.3,52.53l-7.88.88V50h-.24c-2.52,2-5,3.4-7.6,3.4a5.58,5.58,0,0,1-3.88-1.54c-1.26-1.26-1.77-3-1.77-5.32L370,34.42c0-.74-.32-.65-2-.88l-1-.14-.14-1.73h8L374.6,43.9c-.05,4.57,1.44,5.83,4.15,5.83a8.56,8.56,0,0,0,4.67-1.68V34.38c0-.47-.28-.7-1.78-.84l-1.58-.14-.19-1.73H388v17.4c0,.7.18,1.22.65,1.36l2.75.84Z"/><path class="cls-1" d="M393.12,52.71l.14-1.72,1.21-.14c1.12-.1,1.59-.33,1.59-.89V26.3c0-.7-.19-1.12-.65-1.35l-2.76-1.21.14-1.26,7.94-2.29V50c0,.46.28.74,1.77.84l1.16.14.14,1.72Z"/><path class="cls-1" d="M421.81,53.51c-1.82,0-3.26-1.12-3.4-3.69h-.24c-1.67,2-3.49,3.59-5.92,3.59A5.51,5.51,0,0,1,406.56,48c0-3.87,3.78-6.11,11.85-8.07v-.42c0-4.57-1.73-6-4.57-6-1.54,0-3.32.61-3.32,1s1.12,1.08,1.12,2.48A2.47,2.47,0,0,1,409,39.23a2.41,2.41,0,0,1-2.61-2.33c0-2.52,5.32-5.93,9.61-5.93,5.27,0,7.32,2.19,7,9.43l-.32,7.79c-.1,1.3.28,1.91,1.07,1.91A4.29,4.29,0,0,0,426.06,49l.79,1.12C425.41,52,423.59,53.51,421.81,53.51Zm-3.49-12c-5.84,1.49-7.19,3.31-7.19,5.27a3.15,3.15,0,0,0,3.22,3.26,5.72,5.72,0,0,0,3.78-1.86Z"/><path class="cls-1" d="M436.32,53.41c-3.36,0-5.83-2-5.74-6.72l.28-12.13-3.68-.28,0-1.54,6.35-5.5,1.87.28-.05,4.29H443l-.33,2.57h-7.28l-.28,11C435,48.89,436.65,50,439,50A8.77,8.77,0,0,0,443,48.93l.19,1.26A9.44,9.44,0,0,1,436.32,53.41Z"/><path class="cls-1" d="M455.41,53.41c-6.49,0-10.46-4.94-10.46-11.1A11.28,11.28,0,0,1,456.34,31c6.39,0,10.45,4.81,10.45,10.73A11.41,11.41,0,0,1,455.41,53.41Zm3.87-18.8A4.82,4.82,0,0,0,455.69,33c-3.18,0-5.6,3-5.6,8,0,3.78.65,7.09,2.33,8.87a5.12,5.12,0,0,0,3.64,1.54c3.08,0,5.55-3,5.55-8C461.61,39.7,460.91,36.29,459.28,34.61Z"/><path class="cls-1" d="M484.24,36.76a3.12,3.12,0,0,1-2.66-1.68,12.68,12.68,0,0,0-4.34,4.62V50c0,.46.28.74,1.78.84l1.67.14.14,1.72H469.64l.14-1.72,1.21-.14c1.12-.1,1.59-.33,1.59-.89V38.48c0-2.94-.38-3.36-2-3.82l-1-.24,0-1.35,7.65-2.1V36.9h.24c2.33-3.88,4-5.93,6.29-5.93a2.81,2.81,0,0,1,3,3A2.54,2.54,0,0,1,484.24,36.76Z"/><path class="cls-1" d="M509.9,33.4l-1.3.28c-1.26.18-1.78.88-2.66,3.12l-5.51,14.51-2.52,7.52c-1.35,4.06-2.85,6.06-5.6,6.06-2,0-3.36-1.12-3.36-2.75a2.38,2.38,0,0,1,2.47-2.61,3.23,3.23,0,0,1,2.9,1.72c.7-.37,1.16-1.21,1.91-3.22l1.59-4.52v-.19L489.51,35.5a2.42,2.42,0,0,0-2.24-1.68l-1-.38-.18-1.77H497l-.14,1.73-1.26.32c-.94.1-1.4.61-.89,1.73l5.23,12,3.82-10.82c.66-1.92.47-2.62-1-2.85l-1.4-.37-.14-1.73H510Z"/><path class="cls-1" d="M535.61,52.71l.14-1.77,2-.33c1.82-.32,1.72-1.07.46-4.9l-1-3.12h-9.61l-.84,2.75c-1.31,3.64-1.26,5,.33,5.27l1.72.33.14,1.77H518.72l.14-1.77,1.21-.33c2-.51,2.66-1.12,5.55-9.19l5.46-15.12V24.48L536,22.66,544.9,49a2.08,2.08,0,0,0,1.86,1.44l2.15.47.14,1.77Zm-2.85-24.4h-.32l-4.11,12.18h8.21Z"/><path class="cls-1" d="M578.91,26.16c-1.49,0-2.8-1.12-3.36-3.5l0-.18-1.35-.1c-1.91,1.17-3,3.69-3,7.84v1.59h6.39l-.33,2.57h-6.06V50c0,.46.28.74,1.77.84l2.24.14.14,1.72H563.56L563.7,51l1.21-.14c.84-.1,1.59-.33,1.59-.89V34.33h-9.38V49.54c0,.51.28.93,1.26,1l2.94.42.14,1.72h-11.9L549.7,51l1.58-.42c.89-.1,1.22-.47,1.22-1v-15l-3.78-.28.28-2.47h3.26l0-.56c.61-6.39,5.13-10.59,10.36-10.59,2.57,0,4.76,1.4,4.76,3.31a2.37,2.37,0,0,1-2.52,2.52c-1.49,0-2.8-1.07-3.36-3.45l0-.19-1.35-.09c-1.91,1.16-3,3.64-3,7.79v1.26h9.14l.1-.89c.37-6.39,5.08-10.59,10.31-10.59,2.57,0,4.76,1.35,4.76,3.27A2.41,2.41,0,0,1,578.91,26.16Z"/><path class="cls-1" d="M594.58,53.51c-1.82,0-3.26-1.12-3.4-3.69h-.24c-1.68,2-3.5,3.59-5.92,3.59a5.52,5.52,0,0,1-5.7-5.46c0-3.87,3.79-6.11,11.86-8.07v-.42c0-4.57-1.73-6-4.58-6-1.54,0-3.31.61-3.31,1s1.12,1.08,1.12,2.48a2.47,2.47,0,0,1-2.61,2.33,2.41,2.41,0,0,1-2.61-2.33c0-2.52,5.31-5.93,9.61-5.93,5.27,0,7.32,2.19,7,9.43l-.32,7.79c-.1,1.3.28,1.91,1.07,1.91A4.29,4.29,0,0,0,598.83,49l.79,1.12C598.18,52,596.36,53.51,594.58,53.51Zm-3.5-12c-5.83,1.49-7.18,3.31-7.18,5.27a3.15,3.15,0,0,0,3.22,3.26,5.74,5.74,0,0,0,3.78-1.86Z"/><path class="cls-1" d="M601,52.71l.14-1.72,1.17-.14c1.12-.1,1.58-.33,1.58-.89V38.48c0-2.94-.32-3.36-2-3.82l-1-.24,0-1.35,7.61-2.1V50c0,.46.28.74,1.77.84l1.17.14.14,1.72Zm4.81-25.33a2.92,2.92,0,0,1-2.94-3.13,2.94,2.94,0,1,1,5.88,0A2.92,2.92,0,0,1,605.83,27.38Z"/><path class="cls-1" d="M628.78,36.76a3.12,3.12,0,0,1-2.66-1.68,12.77,12.77,0,0,0-4.34,4.62V50c0,.46.28.74,1.78.84l1.68.14.14,1.72h-11.2l.14-1.72,1.21-.14c1.12-.1,1.59-.33,1.59-.89V38.48c0-2.94-.38-3.36-2-3.82l-1-.24,0-1.35,7.65-2.1V36.9H622c2.33-3.88,4-5.93,6.3-5.93a2.8,2.8,0,0,1,3,3A2.54,2.54,0,0,1,628.78,36.76Z"/><path class="cls-1" d="M640.59,53.41a20,20,0,0,1-6.77-1.07l-.23-6.16h2.75l1.12,4.15a6.67,6.67,0,0,0,3.59,1.17c2.06,0,4.2-1.35,4.2-3.5s-2.52-3-5.18-4c-3.26-1.26-6.34-2.61-6.34-6.71,0-3.36,2.84-6.4,7.88-6.4a14.06,14.06,0,0,1,4.85.8l1.73-.61.28,6.81h-2.61l-1.12-4a6.27,6.27,0,0,0-3.41-1c-2.05,0-3.59,1.22-3.59,2.94,0,2.1,1.77,2.8,5,4s6.53,2.65,6.53,6.71C649.22,50.24,646.14,53.41,640.59,53.41Z"/><path class="cls-1" d="M321.55,92.25l-2.7-.51A24,24,0,0,1,311.47,93c-9.33,0-16.42-5.27-16.42-14.93s7.23-15.58,16.56-15.58a22.73,22.73,0,0,1,6.72,1l4-.84v9.94h-2.7l-1.59-6.34a11.85,11.85,0,0,0-6.39-1.68c-6.63,0-10.73,5.36-10.73,12.83,0,8.12,4,13.58,11.1,13.58a11.92,11.92,0,0,0,5.46-1.31l2.2-6.67h2.84Z"/><path class="cls-1" d="M337.46,93C331,93,327,88,327,81.85a11.27,11.27,0,0,1,11.38-11.34c6.4,0,10.45,4.81,10.45,10.73A11.41,11.41,0,0,1,337.46,93Zm3.87-18.8a4.82,4.82,0,0,0-3.59-1.59c-3.17,0-5.6,3-5.6,8,0,3.78.65,7.09,2.33,8.87A5.14,5.14,0,0,0,338.11,91c3.08,0,5.56-3,5.56-8C343.67,79.24,343,75.83,341.33,74.15Z"/><path class="cls-1" d="M375.25,92.07l-7.88.88v-3.4h-.24c-2.52,2-5,3.4-7.6,3.4a5.54,5.54,0,0,1-3.87-1.54c-1.26-1.26-1.78-3-1.78-5.32L354,74c0-.74-.33-.65-2-.88l-1-.14-.14-1.73h8l-.28,12.22c-.05,4.58,1.44,5.84,4.15,5.84a8.56,8.56,0,0,0,4.67-1.68V73.92c0-.47-.28-.7-1.78-.84L364,72.94l-.19-1.73H372v17.4c0,.7.18,1.22.65,1.36l2.75.84Z"/><path class="cls-1" d="M390.7,92.25l.14-1.72,1-.14c1.36-.1,1.59-.42,1.59-.89V80.08c0-4.62-1.45-5.88-4.15-5.88a7.87,7.87,0,0,0-4.62,1.72V89.55c0,.46.28.74,1.77.84l1.4.14.14,1.72H377.07l.14-1.72,1.21-.14c1.12-.1,1.59-.33,1.59-.89V78c0-2.94-.37-3.36-2-3.82L377,74l0-1.35,7.66-2.1v3.41h.23c2.47-2,5-3.41,7.56-3.41a5.58,5.58,0,0,1,3.87,1.54c1.26,1.26,1.77,3,1.77,5.32V89.5c0,.42.24.7,1.92.89l1.12.14.14,1.72Z"/><path class="cls-1" d="M413,93c-5.55,0-9.61-4.43-9.61-10.5,0-7,5.09-11.94,11.34-11.94,4.48,0,7,2.19,7,4.67a2.53,2.53,0,0,1-2.84,2.66c-2,0-3.18-2.24-2.66-4.62v-.1a4.14,4.14,0,0,0-2.24-.6c-3.13,0-5.65,2.75-5.65,7.74,0,5.23,2.85,9,6.86,9A7.55,7.55,0,0,0,421,86.56l1,.56A9.35,9.35,0,0,1,413,93Z"/><path class="cls-1" d="M424.47,92.25l.14-1.72,1.17-.14c1.12-.1,1.59-.33,1.59-.89V78c0-2.94-.33-3.36-2-3.82l-1-.24.05-1.35,7.6-2.1v19c0,.46.28.74,1.78.84l1.16.14.14,1.72Zm4.81-25.33a3.11,3.11,0,1,1,2.94-3.13A2.92,2.92,0,0,1,429.28,66.92Z"/><path class="cls-1" d="M437.63,92.25l.14-1.72,1.21-.14c1.12-.1,1.59-.33,1.59-.89V65.84c0-.7-.19-1.12-.65-1.35l-2.76-1.21L437.3,62l7.94-2.29V89.55c0,.46.28.74,1.77.84l1.17.14.14,1.72Z"/></svg>