<svg id="Layer_1" data-name="Layer 1" xmlns="http://www.w3.org/2000/svg" viewBox="0 0 543.74 100"><defs><style>.cls-1{fill:#fff;}.cls-2{fill:#ff6f00;}</style></defs><path class="cls-1" d="M535.51,59.3v0a4.37,4.37,0,0,1,8.74,0v0a4.38,4.38,0,0,1-4.39,4.37A4.33,4.33,0,0,1,535.51,59.3Zm8.23,0v0a3.87,3.87,0,1,0-7.73,0v0a3.87,3.87,0,1,0,7.73,0Zm-5.66-2.45h2.06a2,2,0,0,1,1.44.51,1.4,1.4,0,0,1,.39,1v0a1.44,1.44,0,0,1-1,1.44l1.14,1.67h-1.2l-1-1.5h-.81v1.5h-1Zm2,2.27c.52,0,.8-.28.8-.66v0c0-.45-.32-.68-.82-.68h-1V59.1Z"/><path class="cls-1" d="M214.13,70.35v0A4.38,4.38,0,0,1,218.52,66a4.33,4.33,0,0,1,4.35,4.35v0a4.37,4.37,0,0,1-8.74,0Zm8.24,0v0a3.87,3.87,0,1,0-7.73,0v0a3.87,3.87,0,1,0,7.73,0Zm-5.67-2.45h2.07a2,2,0,0,1,1.44.51,1.39,1.39,0,0,1,.38,1v0a1.43,1.43,0,0,1-1,1.43l1.13,1.67h-1.19l-1-1.5h-.81v1.5h-1Zm2.06,2.27c.52,0,.79-.28.79-.66v0c0-.44-.31-.67-.82-.67h-1v1.36Z"/><path class="cls-1" d="M6.79,81.39H9L14.8,94.78H12.33L11,91.57H4.7L3.33,94.78H.94Zm3.34,8.11-2.3-5.32L5.55,89.5Z"/><path class="cls-1" d="M17.08,81.49h5c4.17,0,7.06,2.86,7.06,6.6v0c0,3.74-2.89,6.65-7.06,6.65h-5Zm2.34,2.12v9H22a4.33,4.33,0,0,0,4.61-4.48v0A4.36,4.36,0,0,0,22,83.61Z"/><path class="cls-1" d="M29.94,81.49h2.58l4,10.21,4-10.21H43L37.53,94.87H35.44Z"/><path class="cls-1" d="M48.13,81.39h2.16l5.85,13.39H53.67l-1.35-3.21H46l-1.37,3.21H42.28Zm3.34,8.11-2.3-5.32L46.89,89.5Z"/><path class="cls-1" d="M58.42,81.49h2.16l7.13,9.19V81.49H70V94.78h-2l-7.33-9.46v9.46h-2.3Z"/><path class="cls-1" d="M72.83,88.17v0a6.72,6.72,0,0,1,6.84-6.87,6.92,6.92,0,0,1,5.22,2.07l-1.5,1.73a5.3,5.3,0,0,0-3.74-1.64,4.45,4.45,0,0,0-4.37,4.67v0a4.48,4.48,0,0,0,4.39,4.71,5.14,5.14,0,0,0,3.81-1.71L85,92.65A6.85,6.85,0,0,1,79.59,95,6.68,6.68,0,0,1,72.83,88.17Z"/><path class="cls-1" d="M87.46,81.49h9.85v2.09H89.79V87h6.66v2.11H89.79v3.55H97.4v2.09H87.46Z"/><path class="cls-1" d="M100.18,81.49h4.95c4.18,0,7.07,2.86,7.07,6.6v0c0,3.74-2.89,6.65-7.07,6.65h-4.95Zm2.33,2.12v9h2.62a4.34,4.34,0,0,0,4.62-4.48v0a4.37,4.37,0,0,0-4.62-4.52Z"/><path class="cls-1" d="M120.72,81.49H126c3.12,0,5,1.76,5,4.44v0c0,3-2.39,4.54-5.31,4.54h-2.64v4.27h-2.34Zm5,6.91c1.77,0,2.87-1,2.87-2.37v0c0-1.56-1.12-2.38-2.87-2.38h-2.71V88.4Z"/><path class="cls-1" d="M133.41,81.49h5.92a5.36,5.36,0,0,1,3.84,1.33,4,4,0,0,1,1.1,2.86v0a4,4,0,0,1-3.15,4l3.59,5h-2.78l-3.26-4.63h-2.93v4.63h-2.33Zm5.75,6.59c1.67,0,2.74-.88,2.74-2.23v0c0-1.43-1-2.21-2.76-2.21h-3.4v4.47Z"/><path class="cls-1" d="M146.55,88.17v0a7,7,0,0,1,13.9,0v0a7,7,0,0,1-13.9,0Zm11.45,0v0a4.54,4.54,0,0,0-4.52-4.71A4.47,4.47,0,0,0,149,88.09v0a4.54,4.54,0,0,0,4.52,4.71A4.47,4.47,0,0,0,158,88.17Z"/><path class="cls-1" d="M162.69,88.17v0a6.77,6.77,0,0,1,6.85-6.87,7.22,7.22,0,0,1,5.11,1.8l-1.48,1.77a5.24,5.24,0,0,0-3.72-1.41,4.48,4.48,0,0,0-4.31,4.67v0a4.44,4.44,0,0,0,4.52,4.75,5.43,5.43,0,0,0,3.21-1V89.4h-3.4V87.35h5.66v5.59A8.48,8.48,0,0,1,169.58,95,6.6,6.6,0,0,1,162.69,88.17Z"/><path class="cls-1" d="M178.17,81.49h5.92a5.36,5.36,0,0,1,3.84,1.33,4,4,0,0,1,1.1,2.86v0a4,4,0,0,1-3.15,4l3.58,5h-2.77l-3.26-4.63H180.5v4.63h-2.33Zm5.75,6.59c1.67,0,2.73-.88,2.73-2.23v0c0-1.43-1-2.21-2.75-2.21h-3.4v4.47Z"/><path class="cls-1" d="M196.6,81.39h2.17l5.85,13.39h-2.47l-1.35-3.21h-6.28l-1.37,3.21h-2.39ZM200,89.5l-2.3-5.32-2.28,5.32Z"/><path class="cls-1" d="M206.9,81.49h2.48l4.05,6.28,4-6.28H220V94.78h-2.34V85.25l-4.19,6.26h-.08l-4.16-6.23v9.5H206.9Z"/><path class="cls-1" d="M222.49,92.84l1.4-1.67a6.17,6.17,0,0,0,4.2,1.73c1.44,0,2.35-.69,2.35-1.67v0c0-1-.53-1.46-3-2-2.83-.69-4.42-1.52-4.42-4v0c0-2.28,1.9-3.85,4.54-3.85A7.39,7.39,0,0,1,232.38,83l-1.25,1.76a6.07,6.07,0,0,0-3.61-1.36c-1.37,0-2.17.7-2.17,1.57v0c0,1,.61,1.48,3.18,2.09,2.8.68,4.25,1.69,4.25,3.89v0c0,2.49-2,4-4.75,4A8.15,8.15,0,0,1,222.49,92.84Z"/><rect class="cls-1" x="269.45" y="17.17" width="1.09" height="82.83"/><path class="cls-1" d="M0,25.94v-.09A15.36,15.36,0,0,1,15.75,10.22c5.7,0,9.11,1.9,11.92,4.67l-4.23,4.87c-2.33-2.11-4.71-3.41-7.73-3.41C10.62,16.35,7,20.58,7,25.76v.09c0,5.18,3.58,9.49,8.76,9.49,3.45,0,5.57-1.38,7.94-3.53l4.23,4.27a15.44,15.44,0,0,1-12.39,5.39A15.24,15.24,0,0,1,0,25.94Z"/><path class="cls-1" d="M33.2,10.74h6.64v12H52.1v-12h6.65V41H52.1V28.83H39.84V41H33.2Z"/><path class="cls-1" d="M66,10.74H88.79v5.91H72.61v6.13H86.85V28.7H72.61V35H89V41H66Z"/><path class="cls-1" d="M94.93,10.74h22.79v5.91H101.53v6.13h14.24V28.7H101.53V35h16.4V41h-23Z"/><path class="cls-1" d="M123.85,10.74h6.65V24l12.17-13.21h8.16L138.48,23.56,151.34,41h-8L134,28.09l-3.49,3.63V41h-6.65Z"/><path class="cls-1" d="M164.65,29,153,10.74h7.77L168,22.87l7.34-12.13h7.55L171.3,28.91V41h-6.65Z"/><path class="cls-1" d="M.39,71l3.7-4.43A13.09,13.09,0,0,0,12.59,70c2.57,0,4.11-1,4.11-2.69v-.08c0-1.59-1-2.4-5.73-3.62-5.74-1.47-9.44-3-9.44-8.71v-.08c0-5.17,4.15-8.58,10-8.58a16.45,16.45,0,0,1,10.58,3.62l-3.25,4.72a13.37,13.37,0,0,0-7.41-2.81c-2.4,0-3.66,1.1-3.66,2.48v.08c0,1.87,1.22,2.48,6.15,3.75,5.77,1.5,9,3.58,9,8.54v.08c0,5.66-4.31,8.83-10.46,8.83A18.07,18.07,0,0,1,.39,71Z"/><path class="cls-1" d="M27.12,61v-.08A14.48,14.48,0,0,1,42,46.16c5.37,0,8.58,1.79,11.23,4.4l-4,4.6c-2.2-2-4.43-3.22-7.28-3.22-4.8,0-8.26,4-8.26,8.87v.08c0,4.89,3.38,9,8.26,9,3.25,0,5.25-1.3,7.49-3.33l4,4a14.56,14.56,0,0,1-11.68,5.08A14.37,14.37,0,0,1,27.12,61Z"/><path class="cls-1" d="M58.69,46.65H65V75.13H58.69Z"/><path class="cls-1" d="M72.07,46.65H93.56v5.58H78.3V58H91.73v5.58H78.3v6H93.76v5.57H72.07Z"/><path class="cls-1" d="M99.33,46.65h5.78l13.35,17.54V46.65h6.18V75.13h-5.33L105.52,57v18.1H99.33Z"/><path class="cls-1" d="M138.11,52.43h-8.67V46.65H153v5.78h-8.67v22.7h-6.26Z"/><path class="cls-1" d="M158.12,46.65h6.27V75.13h-6.27Z"/><path class="cls-1" d="M169.56,71l3.7-4.43a13.09,13.09,0,0,0,8.5,3.46c2.57,0,4.11-1,4.11-2.69v-.08c0-1.59-1-2.4-5.73-3.62-5.74-1.47-9.44-3-9.44-8.71v-.08c0-5.17,4.15-8.58,10-8.58a16.45,16.45,0,0,1,10.58,3.62L188,54.59a13.37,13.37,0,0,0-7.41-2.81c-2.4,0-3.66,1.1-3.66,2.48v.08c0,1.87,1.22,2.48,6.15,3.75,5.77,1.5,9,3.58,9,8.54v.08c0,5.66-4.31,8.83-10.46,8.83A18.07,18.07,0,0,1,169.56,71Z"/><path class="cls-1" d="M203.57,52.43H194.9V46.65h23.6v5.78h-8.66v22.7h-6.27Z"/><path class="cls-2" d="M262,30a13.65,13.65,0,0,0-5-10.55,16.31,16.31,0,0,0-12.63-12,13.66,13.66,0,0,0-20.05-4.77,15.48,15.48,0,0,0-20.66,3.08A14.23,14.23,0,1,0,200,33.94a15.38,15.38,0,0,0,8.42,8.2c3.49,1.41,9,2.59,16.75-3.43l.09-.07c5.72-4.9,9.6-6.14,13.84-4.43a9.37,9.37,0,0,1,6.07,7.07c.64,3.72-.27,9.1-2.31,13.68a42.5,42.5,0,0,1-3.63,6.48c-2.88-13-13.5-19.66-14-20l-2.66,4.35a28.64,28.64,0,0,1,6.23,5.74,25.57,25.57,0,0,1,6.06,16.54v7l4.51-5.41A54.8,54.8,0,0,0,247.55,57a34.17,34.17,0,0,0,2.94-13.56A13.71,13.71,0,0,0,262,30ZM232.33,5.19A8.57,8.57,0,0,1,238.1,7.4c-6.3,1.31-9.87,6.53-12.54,11.66h0a8.58,8.58,0,0,1,6.77-13.88Zm-16.59-.1a10.32,10.32,0,0,1,5.06,1.32,13.67,13.67,0,0,0,1.64,16.83,9,9,0,0,1-6.7,2.68,10.42,10.42,0,0,1,0-20.83ZM192.53,19.8A9.15,9.15,0,0,1,201,10.69a15.4,15.4,0,0,0-.77,4.82,15.2,15.2,0,0,0,.64,4.4,14.87,14.87,0,0,0-1,2,15.46,15.46,0,0,0-1.12,6.51A9.16,9.16,0,0,1,192.53,19.8ZM222,34.73c-4.45,3.45-7.84,4.23-11.67,2.68a10.38,10.38,0,0,1-6.3-11.74A15.46,15.46,0,0,0,215.74,31c3.77,0,9.34-1,14.26-9.45l.06-.11c3.46-6.68,6.6-9.28,11.17-9.28A11.29,11.29,0,0,1,250,16.36a12.06,12.06,0,0,0-1.6-.1,13.62,13.62,0,0,0-12.29,7.64,13.77,13.77,0,0,0-1.32,4.51C229.85,28.71,225.64,31.63,222,34.73Zm27.7,3.7A14.83,14.83,0,0,0,241,29.48c-.42-.16-.82-.3-1.23-.43a8.46,8.46,0,0,1,.83-2.9,8.6,8.6,0,1,1,9.08,12.28Z"/><path class="cls-1" d="M286.24,62A25.12,25.12,0,0,1,278,60.68l-.54-8.2h2.35l2,6.3a13,13,0,0,0,5.05,1.11c3.81,0,5.63-2.35,5.63-4.7,0-3.64-3-4.75-6.74-6.08-4.39-1.55-8-3.28-8-8.2,0-4,3.1-7.84,9.75-7.93a28.19,28.19,0,0,1,5.72.57l2.31-.62v9h-2.31L291.56,36a12.14,12.14,0,0,0-4.61-.89c-3.32,0-5,1.91-5,4,0,3.33,2.93,4.39,6.43,5.68,4.75,1.68,8.51,3.46,8.51,8.6C296.88,57.85,293,61.93,286.24,62Z"/><path class="cls-1" d="M309.43,62c-5.28,0-9.13-4.21-9.13-10,0-6.61,4.83-11.35,10.77-11.35,4.25,0,6.6,2.08,6.6,4.43a2.4,2.4,0,0,1-2.7,2.53c-1.86,0-3-2.13-2.53-4.39v-.09a3.83,3.83,0,0,0-2.13-.58c-3,0-5.36,2.62-5.36,7.36,0,5,2.7,8.56,6.52,8.56A7.15,7.15,0,0,0,317,55.9l.93.53A8.84,8.84,0,0,1,309.43,62Z"/><path class="cls-1" d="M320.29,61.31l.13-1.65,1.11-.13c1.06-.09,1.51-.31,1.51-.84V47.78c0-2.79-.31-3.19-1.91-3.63l-.93-.22,0-1.29,7.23-2V58.73c0,.45.27.71,1.68.8l1.11.13.13,1.65Zm4.56-24.08a2.77,2.77,0,0,1-2.79-3,2.8,2.8,0,1,1,5.59,0A2.77,2.77,0,0,1,324.85,37.23Z"/><path class="cls-1" d="M342.1,62c-5.23,0-9.09-4.21-9.09-10,0-6.57,4.61-11.35,10.55-11.35,4.26,0,7.23,2.61,7.23,6.78a11.61,11.61,0,0,1-.27,2.44l-12.9-.18v.49c0,5,2.75,8.29,6.56,8.29a7.19,7.19,0,0,0,5.5-2.57l.93.53A8.87,8.87,0,0,1,342.1,62Zm.57-19.51c-2.3,0-4.52,2-5,5.77l8.42,0C346.31,44.59,344.89,42.46,342.67,42.46Z"/><path class="cls-1" d="M366.65,61.31l.14-1.65,1-.13c1.29-.09,1.51-.4,1.51-.84V49.74c0-4.39-1.38-5.59-3.95-5.59a7.52,7.52,0,0,0-4.39,1.64V58.73c0,.45.27.71,1.69.8l1.33.13.13,1.65H353.71l.13-1.65,1.15-.13c1.07-.09,1.51-.31,1.51-.84V47.78c0-2.79-.35-3.19-1.91-3.63l-1-.22,0-1.29,7.27-2v3.23h.23c2.35-1.9,4.74-3.23,7.18-3.23A5.3,5.3,0,0,1,372,42.11a6.75,6.75,0,0,1,1.68,5V58.69c0,.4.22.66,1.82.84l1.06.13.14,1.65Z"/><path class="cls-1" d="M386.29,62c-3.19,0-5.54-1.91-5.45-6.38l.26-11.53-3.5-.27,0-1.46,6-5.23,1.78.27-.05,4.08h7.23l-.31,2.43H385.4l-.26,10.47c-.09,3.32,1.46,4.38,3.72,4.38a8.4,8.4,0,0,0,3.72-1l.18,1.2A9,9,0,0,1,386.29,62Z"/><path class="cls-1" d="M394.8,61.31l.13-1.65,1.11-.13c1.06-.09,1.51-.31,1.51-.84V47.78c0-2.79-.31-3.19-1.91-3.63l-.93-.22,0-1.29,7.23-2V58.73c0,.45.27.71,1.68.8l1.11.13.14,1.65Zm4.56-24.08a2.77,2.77,0,0,1-2.79-3,2.8,2.8,0,1,1,5.59,0A2.77,2.77,0,0,1,399.36,37.23Z"/><path class="cls-1" d="M414.7,62a18.9,18.9,0,0,1-6.43-1l-.22-5.85h2.62L411.73,59a6.38,6.38,0,0,0,3.41,1.11c2,0,4-1.28,4-3.32s-2.39-2.84-4.92-3.77c-3.1-1.2-6-2.48-6-6.38,0-3.2,2.7-6.08,7.49-6.08a13.41,13.41,0,0,1,4.61.76l1.64-.58.26,6.47h-2.48l-1.06-3.81a5.93,5.93,0,0,0-3.24-1c-2,0-3.41,1.16-3.41,2.8,0,2,1.68,2.66,4.7,3.81s6.2,2.53,6.2,6.38C422.9,59,420,62,414.7,62Z"/><path class="cls-1" d="M433.63,62c-3.19,0-5.54-1.91-5.45-6.38l.26-11.53-3.5-.27,0-1.46,6-5.23,1.78.27-.05,4.08H440l-.31,2.43h-6.92l-.26,10.47c-.09,3.32,1.46,4.38,3.72,4.38a8.4,8.4,0,0,0,3.72-1l.18,1.2A9,9,0,0,1,433.63,62Z"/><path class="cls-1" d="M465.06,62l.13-1.64,2.39-.31c.85-.14,1.11-1.69.89-8.56L468,37.09h-.35l-8.29,24h-3L448.48,38H448l-.62,13.3c-.36,7.94-.31,8.6.57,8.74l2.48.31.14,1.64h-9.67l.14-1.64,2.39-.31c.89-.14,1.37-.62,1.82-8.74l.57-11.43c.14-2-.53-3.15-1.81-3.46l-2.49-.45-.13-1.68h11.08l6.83,20.13h.31l6.74-20.13h10.82L477,35.93l-2.92.23a1.2,1.2,0,0,0-1,1.33l.44,14c.18,7.27.58,8.42,1.46,8.56l2.35.31.14,1.64Z"/><path class="cls-1" d="M492.1,62H480.48l.13-1.64,1.73-.23c1.11-.13,1.56-.39,1.56-.79V36.87c0-.4-.27-.58-1.65-.76l-1.64-.22-.13-1.64h12c7.71,0,10.42,2.62,10.42,6.16s-3.19,6.39-7.27,7v.22c5.54.53,8.29,3.37,8.29,6.87C503.89,59.25,499.81,62,492.1,62ZM491,36H488.9V46.88l2.66,0c4.08-.09,5.86-2.62,5.86-5.23C497.42,38.28,495.38,36,491,36Zm-.18,12.64H488.9v11l2.75.53h.76c3.19-.09,6.07-1.95,6.07-5.45C498.48,50.65,495.24,48.66,490.81,48.66Z"/><path class="cls-1" d="M520.6,62l.13-1.69,1.91-.31c1.73-.31,1.64-1,.44-4.65l-.93-3H513l-.8,2.61c-1.24,3.46-1.2,4.75.31,5l1.64.31L514.3,62h-9.75l.13-1.69,1.16-.31c2-.49,2.52-1.06,5.27-8.73l5.19-14.36V35.14l4.7-1.73,8.42,25a2,2,0,0,0,1.77,1.38l2,.44.14,1.69Zm-2.71-23.19h-.31l-3.9,11.57h7.81Z"/></svg>